M48
; DRILL file {KiCad 8.0.0} date 2024-04-08T20:49:17-0400
; FORMAT={-:-/ absolute / inch / decimal}
; #@! TF.CreationDate,2024-04-08T20:49:17-04:00
; #@! TF.GenerationSoftware,Kicad,Pcbnew,8.0.0
; #@! TF.FileFunction,Plated,1,2,PTH
FMAT,2
INCH
; #@! TA.AperFunction,Plated,PTH,ViaDrill
T1C0.0394
; #@! TA.AperFunction,Plated,PTH,ComponentDrill
T2C0.0394
%
G90
G05
T1
X1.5551Y-3.0315
X1.6535Y-3.0315
X2.1063Y-2.2047
X2.185Y-2.126
X2.2638Y-2.0472
T2
X1.8173Y-3.3071
X1.9173Y-3.3071
X1.9587Y-1.1094
X1.9587Y-1.2094
X1.9587Y-1.3094
X1.9587Y-1.4094
X1.9587Y-1.5094
X1.9587Y-1.6094
X1.9587Y-1.7094
X1.9587Y-1.8094
X1.9587Y-1.9094
X1.9587Y-2.0094
X1.9587Y-2.1094
X1.9587Y-2.2094
X1.9587Y-2.3094
X1.9587Y-2.4094
X1.9587Y-2.5094
X1.9587Y-2.6094
X1.9587Y-2.7094
X1.9587Y-2.8094
X1.9587Y-2.9094
X1.9587Y-3.0094
X2.0173Y-3.3071
X2.1173Y-3.3071
X2.2173Y-3.3071
X2.3173Y-3.3071
X2.4173Y-3.3071
X2.5173Y-3.3071
X2.6173Y-3.3071
X2.7173Y-3.3071
X2.8173Y-3.3071
X2.8642Y-1.1102
X2.8642Y-1.2102
X2.8642Y-1.3102
X2.8642Y-1.4102
X2.8642Y-1.5102
X2.8642Y-1.6102
X2.8642Y-1.7102
X2.8642Y-1.8102
X2.8642Y-1.9102
X2.8642Y-2.0102
X2.8642Y-2.1102
X2.8642Y-2.2102
X2.8642Y-2.3102
X2.8642Y-2.4102
X2.8642Y-2.5102
X2.8642Y-2.6102
X2.8642Y-2.7102
X2.8642Y-2.8102
X2.8642Y-2.9102
X2.8642Y-3.0102
X2.9173Y-3.3071
X3.0173Y-3.3071
T2
G00X1.0709Y-1.5059
M15
G01X1.0709Y-1.6043
M16
G05
G00X1.0709Y-2.5295
M15
G01X1.0709Y-2.628
M16
G05
G00X1.0709Y-3.5531
M15
G01X1.0709Y-3.6516
M16
G05
G00X1.2402Y-1.5059
M15
G01X1.2402Y-1.6043
M16
G05
G00X1.2402Y-2.5295
M15
G01X1.2402Y-2.628
M16
G05
G00X1.2402Y-3.5531
M15
G01X1.2402Y-3.6516
M16
G05
G00X1.3051Y-1.378
M15
G01X1.2067Y-1.378
M16
G05
G00X1.3051Y-1.7323
M15
G01X1.2067Y-1.7323
M16
G05
G00X1.3051Y-2.4016
M15
G01X1.2067Y-2.4016
M16
G05
G00X1.3051Y-2.7559
M15
G01X1.2067Y-2.7559
M16
G05
G00X1.3051Y-3.4252
M15
G01X1.2067Y-3.4252
M16
G05
G00X1.3051Y-3.7795
M15
G01X1.2067Y-3.7795
M16
G05
G00X1.4646Y-1.5059
M15
G01X1.4646Y-1.6043
M16
G05
G00X1.4646Y-2.5295
M15
G01X1.4646Y-2.628
M16
G05
G00X1.4646Y-3.5531
M15
G01X1.4646Y-3.6516
M16
G05
G00X3.378Y-1.6043
M15
G01X3.378Y-1.5059
M16
G05
G00X3.378Y-2.628
M15
G01X3.378Y-2.5295
M16
G05
G00X3.378Y-3.6516
M15
G01X3.378Y-3.5531
M16
G05
G00X3.5374Y-1.378
M15
G01X3.6358Y-1.378
M16
G05
G00X3.5374Y-1.7323
M15
G01X3.6358Y-1.7323
M16
G05
G00X3.5374Y-2.4016
M15
G01X3.6358Y-2.4016
M16
G05
G00X3.5374Y-2.7559
M15
G01X3.6358Y-2.7559
M16
G05
G00X3.5374Y-3.4252
M15
G01X3.6358Y-3.4252
M16
G05
G00X3.5374Y-3.7795
M15
G01X3.6358Y-3.7795
M16
G05
G00X3.6024Y-1.6043
M15
G01X3.6024Y-1.5059
M16
G05
G00X3.6024Y-2.628
M15
G01X3.6024Y-2.5295
M16
G05
G00X3.6024Y-3.6516
M15
G01X3.6024Y-3.5531
M16
G05
G00X3.7717Y-1.6043
M15
G01X3.7717Y-1.5059
M16
G05
G00X3.7717Y-2.628
M15
G01X3.7717Y-2.5295
M16
G05
G00X3.7717Y-3.6516
M15
G01X3.7717Y-3.5531
M16
G05
M30
