%TF.GenerationSoftware,KiCad,Pcbnew,8.0.0*%
%TF.CreationDate,2024-04-08T20:49:20-04:00*%
%TF.ProjectId,Final Project,46696e61-6c20-4507-926f-6a6563742e6b,rev?*%
%TF.SameCoordinates,Original*%
%TF.FileFunction,Copper,L2,Bot*%
%TF.FilePolarity,Positive*%
%FSLAX46Y46*%
G04 Gerber Fmt 4.6, Leading zero omitted, Abs format (unit mm)*
G04 Created by KiCad (PCBNEW 8.0.0) date 2024-04-08 20:49:20*
%MOMM*%
%LPD*%
G01*
G04 APERTURE LIST*
%TA.AperFunction,ComponentPad*%
%ADD10O,2.000000X4.800000*%
%TD*%
%TA.AperFunction,ComponentPad*%
%ADD11O,4.800000X2.000000*%
%TD*%
%TA.AperFunction,ComponentPad*%
%ADD12R,1.700000X1.700000*%
%TD*%
%TA.AperFunction,ComponentPad*%
%ADD13O,1.700000X1.700000*%
%TD*%
%TA.AperFunction,ViaPad*%
%ADD14C,1.500000*%
%TD*%
%TA.AperFunction,Conductor*%
%ADD15C,1.000000*%
%TD*%
G04 APERTURE END LIST*
D10*
%TO.P,U5,1,C*%
%TO.N,Net-(U5-C)*%
X27200000Y-65500000D03*
%TO.P,U5,2,NO*%
%TO.N,GND*%
X31500000Y-65500000D03*
%TO.P,U5,3,NC*%
%TO.N,unconnected-(U5-NC-Pad3)*%
X37200000Y-65500000D03*
D11*
%TO.P,U5,4,-*%
%TO.N,GND*%
X31900000Y-70000000D03*
%TO.P,U5,5,+*%
%TO.N,Net-(U5-+)*%
X31900000Y-61000000D03*
%TD*%
D12*
%TO.P,LPC1,1,GND*%
%TO.N,GND*%
X49750000Y-28180000D03*
D13*
%TO.P,LPC1,2,VIN*%
%TO.N,unconnected-(LPC1-VIN-Pad2)*%
X49750000Y-30720000D03*
%TO.P,LPC1,3,VB*%
%TO.N,unconnected-(LPC1-VB-Pad3)*%
X49750000Y-33260000D03*
%TO.P,LPC1,4,nR*%
%TO.N,unconnected-(LPC1-nR-Pad4)*%
X49750000Y-35800000D03*
%TO.P,LPC1,5,mosi*%
%TO.N,Net-(LPC1-mosi-Pad5)*%
X49750000Y-38340000D03*
%TO.P,LPC1,6,miso*%
%TO.N,Net-(LPC1-miso-Pad6)*%
X49750000Y-40880000D03*
%TO.P,LPC1,7,sck*%
%TO.N,Net-(LPC1-sck)*%
X49750000Y-43420000D03*
%TO.P,LPC1,8*%
%TO.N,Net-(LPC1-Pad8)*%
X49750000Y-45960000D03*
%TO.P,LPC1,9,tx/sda*%
%TO.N,Net-(LPC1-tx{slash}sda)*%
X49750000Y-48500000D03*
%TO.P,LPC1,10,rx/scl*%
%TO.N,Net-(LPC1-rx{slash}scl)*%
X49750000Y-51040000D03*
%TO.P,LPC1,11,mosi*%
%TO.N,Net-(LPC1-mosi-Pad11)*%
X49750000Y-53580000D03*
%TO.P,LPC1,12,miso*%
%TO.N,Net-(LPC1-miso-Pad12)*%
X49750000Y-56120000D03*
%TO.P,LPC1,13,tx/sck*%
%TO.N,Net-(LPC1-tx{slash}sck)*%
X49750000Y-58660000D03*
%TO.P,LPC1,14,rx*%
%TO.N,Net-(LPC1-rx)*%
X49750000Y-61200000D03*
%TO.P,LPC1,15*%
%TO.N,Net-(U1-C)*%
X49750000Y-63740000D03*
%TO.P,LPC1,16*%
%TO.N,Net-(U2-C)*%
X49750000Y-66280000D03*
%TO.P,LPC1,17*%
%TO.N,Net-(U3-C)*%
X49750000Y-68820000D03*
%TO.P,LPC1,18*%
%TO.N,Net-(U4-C)*%
X49750000Y-71360000D03*
%TO.P,LPC1,19*%
%TO.N,Net-(U5-C)*%
X49750000Y-73900000D03*
%TO.P,LPC1,20*%
%TO.N,Net-(U6-C)*%
X49750000Y-76440000D03*
%TO.P,LPC1,21*%
%TO.N,Net-(LPC1-Pad21)*%
X72750000Y-76460000D03*
%TO.P,LPC1,22*%
%TO.N,Net-(LPC1-Pad22)*%
X72750000Y-73920000D03*
%TO.P,LPC1,23*%
%TO.N,Net-(LPC1-Pad23)*%
X72750000Y-71380000D03*
%TO.P,LPC1,24*%
%TO.N,Net-(LPC1-Pad24)*%
X72750000Y-68840000D03*
%TO.P,LPC1,25*%
%TO.N,Net-(LPC1-Pad25)*%
X72750000Y-66300000D03*
%TO.P,LPC1,26*%
%TO.N,Net-(LPC1-Pad26)*%
X72750000Y-63760000D03*
%TO.P,LPC1,27,scl/rx*%
%TO.N,Net-(LPC1-scl{slash}rx)*%
X72750000Y-61220000D03*
%TO.P,LPC1,28,sda/tx*%
%TO.N,Net-(LPC1-sda{slash}tx)*%
X72750000Y-58680000D03*
%TO.P,LPC1,29,td*%
%TO.N,unconnected-(LPC1-td-Pad29)*%
X72750000Y-56140000D03*
%TO.P,LPC1,30,rd*%
%TO.N,unconnected-(LPC1-rd-Pad30)*%
X72750000Y-53600000D03*
%TO.P,LPC1,31,D+*%
%TO.N,unconnected-(LPC1-D+-Pad31)*%
X72750000Y-51060000D03*
%TO.P,LPC1,32,D-*%
%TO.N,unconnected-(LPC1-D--Pad32)*%
X72750000Y-48520000D03*
%TO.P,LPC1,33,TD+*%
%TO.N,Net-(LPC1-TD+)*%
X72750000Y-45980000D03*
%TO.P,LPC1,34,TD-*%
%TO.N,Net-(LPC1-TD-)*%
X72750000Y-43440000D03*
%TO.P,LPC1,35,RD+*%
%TO.N,Net-(LPC1-RD+)*%
X72750000Y-40900000D03*
%TO.P,LPC1,36,RD-*%
%TO.N,Net-(LPC1-RD-)*%
X72750000Y-38360000D03*
%TO.P,LPC1,37,IF+*%
%TO.N,unconnected-(LPC1-IF+-Pad37)*%
X72750000Y-35820000D03*
%TO.P,LPC1,38,IF-*%
%TO.N,unconnected-(LPC1-IF--Pad38)*%
X72750000Y-33280000D03*
%TO.P,LPC1,39,VU*%
%TO.N,unconnected-(LPC1-VU-Pad39)*%
X72750000Y-30740000D03*
D12*
%TO.P,LPC1,40,VOUT*%
%TO.N,unconnected-(LPC1-VOUT-Pad40)*%
X72750000Y-28200000D03*
%TD*%
D10*
%TO.P,U3,1,C*%
%TO.N,Net-(U3-C)*%
X95800000Y-91500000D03*
%TO.P,U3,2,NO*%
%TO.N,GND*%
X91500000Y-91500000D03*
%TO.P,U3,3,NC*%
%TO.N,unconnected-(U3-NC-Pad3)*%
X85800000Y-91500000D03*
D11*
%TO.P,U3,4,-*%
%TO.N,GND*%
X91100000Y-87000000D03*
%TO.P,U3,5,+*%
%TO.N,Net-(U3-+)*%
X91100000Y-96000000D03*
%TD*%
D12*
%TO.P,U7,1,SH*%
%TO.N,unconnected-(U7-SH-Pad1)*%
X76640000Y-84000000D03*
D13*
%TO.P,U7,2,G-*%
%TO.N,GND*%
X74100000Y-84000000D03*
%TO.P,U7,3,G+*%
%TO.N,Net-(U7-G+)*%
X71560000Y-84000000D03*
%TO.P,U7,4,Y-*%
%TO.N,GND*%
X69020000Y-84000000D03*
%TO.P,U7,5,Y+*%
%TO.N,Net-(U7-Y+)*%
X66480000Y-84000000D03*
%TO.P,U7,6,P8*%
%TO.N,Net-(LPC1-RD-)*%
X63940000Y-84000000D03*
%TO.P,U7,7,P7*%
%TO.N,Net-(LPC1-RD+)*%
X61400000Y-84000000D03*
%TO.P,U7,8,P6*%
%TO.N,unconnected-(U7-P6-Pad8)*%
X58860000Y-84000000D03*
%TO.P,U7,9,P5*%
%TO.N,unconnected-(U7-P5-Pad9)*%
X56320000Y-84000000D03*
%TO.P,U7,10,P4*%
%TO.N,unconnected-(U7-P4-Pad10)*%
X53780000Y-84000000D03*
%TO.P,U7,11,P3*%
%TO.N,unconnected-(U7-P3-Pad11)*%
X51240000Y-84000000D03*
%TO.P,U7,12,P2*%
%TO.N,Net-(LPC1-TD-)*%
X48700000Y-84000000D03*
%TO.P,U7,13,P1*%
%TO.N,Net-(LPC1-TD+)*%
X46160000Y-84000000D03*
%TD*%
D10*
%TO.P,U4,1,C*%
%TO.N,Net-(U4-C)*%
X27200000Y-91500000D03*
%TO.P,U4,2,NO*%
%TO.N,GND*%
X31500000Y-91500000D03*
%TO.P,U4,3,NC*%
%TO.N,unconnected-(U4-NC-Pad3)*%
X37200000Y-91500000D03*
D11*
%TO.P,U4,4,-*%
%TO.N,GND*%
X31900000Y-96000000D03*
%TO.P,U4,5,+*%
%TO.N,Net-(U4-+)*%
X31900000Y-87000000D03*
%TD*%
D10*
%TO.P,U1,1,C*%
%TO.N,Net-(U1-C)*%
X95800000Y-39500000D03*
%TO.P,U1,2,NO*%
%TO.N,GND*%
X91500000Y-39500000D03*
%TO.P,U1,3,NC*%
%TO.N,unconnected-(U1-NC-Pad3)*%
X85800000Y-39500000D03*
D11*
%TO.P,U1,4,-*%
%TO.N,GND*%
X91100000Y-35000000D03*
%TO.P,U1,5,+*%
%TO.N,Net-(U1-+)*%
X91100000Y-44000000D03*
%TD*%
D10*
%TO.P,U6,1,C*%
%TO.N,Net-(U6-C)*%
X27200000Y-39500000D03*
%TO.P,U6,2,NO*%
%TO.N,GND*%
X31500000Y-39500000D03*
%TO.P,U6,3,NC*%
%TO.N,unconnected-(U6-NC-Pad3)*%
X37200000Y-39500000D03*
D11*
%TO.P,U6,4,-*%
%TO.N,GND*%
X31900000Y-44000000D03*
%TO.P,U6,5,+*%
%TO.N,Net-(U6-+)*%
X31900000Y-35000000D03*
%TD*%
D10*
%TO.P,U2,1,C*%
%TO.N,Net-(U2-C)*%
X95800000Y-65500000D03*
%TO.P,U2,2,NO*%
%TO.N,GND*%
X91500000Y-65500000D03*
%TO.P,U2,3,NC*%
%TO.N,unconnected-(U2-NC-Pad3)*%
X85800000Y-65500000D03*
D11*
%TO.P,U2,4,-*%
%TO.N,GND*%
X91100000Y-61000000D03*
%TO.P,U2,5,+*%
%TO.N,Net-(U2-+)*%
X91100000Y-70000000D03*
%TD*%
D14*
%TO.N,Net-(LPC1-RD+)*%
X57500000Y-52000000D03*
%TO.N,Net-(LPC1-TD-)*%
X55500000Y-54000000D03*
%TO.N,Net-(LPC1-TD+)*%
X53500000Y-56000000D03*
%TO.N,Net-(U5-+)*%
X39500000Y-77000000D03*
%TO.N,Net-(U6-+)*%
X42000000Y-77000000D03*
%TD*%
D15*
%TO.N,Net-(U4-C)*%
X49350000Y-71350000D02*
X49250000Y-71350000D01*
X49000000Y-71360000D02*
X49750000Y-71360000D01*
X35100000Y-79500000D02*
X43000000Y-79500000D01*
X43000000Y-79500000D02*
X46000000Y-76500000D01*
X27200000Y-90800000D02*
X27200000Y-87400000D01*
X46000000Y-76500000D02*
X46000000Y-74360000D01*
X46000000Y-74360000D02*
X49000000Y-71360000D01*
X27200000Y-87400000D02*
X35100000Y-79500000D01*
%TO.N,Net-(LPC1-RD+)*%
X57500000Y-52000000D02*
X59500000Y-52000000D01*
X59500000Y-52000000D02*
X70600000Y-40900000D01*
X70600000Y-40900000D02*
X72750000Y-40900000D01*
%TO.N,Net-(LPC1-TD-)*%
X55500000Y-54000000D02*
X60500000Y-54000000D01*
X71060000Y-43440000D02*
X72750000Y-43440000D01*
X60500000Y-54000000D02*
X71060000Y-43440000D01*
%TO.N,Net-(U1-C)*%
X96000000Y-40500000D02*
X96000000Y-44500000D01*
X76000000Y-78500000D02*
X64500000Y-78500000D01*
X80500000Y-74000000D02*
X76000000Y-78500000D01*
X80500000Y-60000000D02*
X80500000Y-74000000D01*
X96000000Y-44500000D02*
X80500000Y-60000000D01*
X64500000Y-78500000D02*
X49740000Y-63740000D01*
%TO.N,Net-(LPC1-TD+)*%
X53500000Y-56000000D02*
X61500000Y-56000000D01*
X61500000Y-56000000D02*
X71520000Y-45980000D01*
X71520000Y-45980000D02*
X72750000Y-45980000D01*
%TO.N,Net-(U3-C)*%
X89404163Y-81500000D02*
X62340000Y-81500000D01*
X62340000Y-81500000D02*
X49660000Y-68820000D01*
X95800000Y-87895837D02*
X89404163Y-81500000D01*
X95800000Y-91500000D02*
X95800000Y-87895837D01*
%TO.N,Net-(U5-+)*%
X41500000Y-73000000D02*
X41500000Y-63000000D01*
X39500000Y-77000000D02*
X39500000Y-75000000D01*
X41500000Y-63000000D02*
X38000000Y-59500000D01*
X36000000Y-59500000D02*
X34500000Y-61000000D01*
X34500000Y-61000000D02*
X31900000Y-61000000D01*
X38000000Y-59500000D02*
X36000000Y-59500000D01*
X39500000Y-75000000D02*
X41500000Y-73000000D01*
%TO.N,Net-(U6-+)*%
X44000000Y-75000000D02*
X44000000Y-37500000D01*
X42000000Y-77000000D02*
X44000000Y-75000000D01*
X40500000Y-34000000D02*
X35000000Y-34000000D01*
X44000000Y-37500000D02*
X40500000Y-34000000D01*
X35000000Y-34000000D02*
X34000000Y-35000000D01*
X34000000Y-35000000D02*
X31900000Y-35000000D01*
%TO.N,Net-(U2-C)*%
X96000000Y-65500000D02*
X95800000Y-65500000D01*
X95800000Y-65500000D02*
X97700000Y-67400000D01*
X97700000Y-67400000D02*
X97700000Y-72775614D01*
X63470000Y-80000000D02*
X49750000Y-66280000D01*
X97700000Y-72775614D02*
X90475614Y-80000000D01*
X90475614Y-80000000D02*
X63470000Y-80000000D01*
%TD*%
%TA.AperFunction,Conductor*%
%TO.N,GND*%
G36*
X70861935Y-27020185D02*
G01*
X70907690Y-27072989D01*
X70917634Y-27142147D01*
X70914111Y-27158613D01*
X70910114Y-27172581D01*
X70910113Y-27172581D01*
X70899500Y-27291966D01*
X70899500Y-29108028D01*
X70899501Y-29108034D01*
X70910113Y-29227415D01*
X70966089Y-29423045D01*
X70966090Y-29423047D01*
X70966091Y-29423049D01*
X71060302Y-29603407D01*
X71075593Y-29622160D01*
X71128551Y-29687108D01*
X71155660Y-29751505D01*
X71143651Y-29820334D01*
X71141282Y-29824895D01*
X71062426Y-29969309D01*
X70969921Y-30217326D01*
X70913658Y-30475965D01*
X70913657Y-30475972D01*
X70894773Y-30739998D01*
X70894773Y-30740001D01*
X70913657Y-31004027D01*
X70913658Y-31004034D01*
X70969921Y-31262673D01*
X71062426Y-31510690D01*
X71062428Y-31510694D01*
X71189280Y-31743005D01*
X71189285Y-31743013D01*
X71333520Y-31935690D01*
X71357937Y-32001155D01*
X71343085Y-32069427D01*
X71333520Y-32084310D01*
X71189285Y-32276986D01*
X71189280Y-32276994D01*
X71062428Y-32509305D01*
X71062426Y-32509309D01*
X70969921Y-32757326D01*
X70913658Y-33015965D01*
X70913657Y-33015972D01*
X70894773Y-33279998D01*
X70894773Y-33280001D01*
X70913657Y-33544027D01*
X70913658Y-33544034D01*
X70969921Y-33802673D01*
X71062426Y-34050690D01*
X71062428Y-34050694D01*
X71189280Y-34283005D01*
X71189285Y-34283013D01*
X71333520Y-34475690D01*
X71357937Y-34541155D01*
X71343085Y-34609427D01*
X71333520Y-34624310D01*
X71189285Y-34816986D01*
X71189280Y-34816994D01*
X71062428Y-35049305D01*
X71062426Y-35049309D01*
X70969921Y-35297326D01*
X70913658Y-35555965D01*
X70913657Y-35555972D01*
X70894773Y-35819998D01*
X70894773Y-35820001D01*
X70913657Y-36084027D01*
X70913658Y-36084034D01*
X70969921Y-36342673D01*
X71062426Y-36590690D01*
X71062428Y-36590694D01*
X71189280Y-36823005D01*
X71189285Y-36823013D01*
X71333520Y-37015690D01*
X71357937Y-37081155D01*
X71343085Y-37149427D01*
X71333520Y-37164310D01*
X71189285Y-37356986D01*
X71189280Y-37356994D01*
X71062428Y-37589305D01*
X71062426Y-37589309D01*
X70969921Y-37837326D01*
X70913658Y-38095965D01*
X70913657Y-38095972D01*
X70894773Y-38359998D01*
X70894773Y-38360001D01*
X70913657Y-38624027D01*
X70913658Y-38624034D01*
X70969921Y-38882673D01*
X71062426Y-39130690D01*
X71062428Y-39130694D01*
X71109049Y-39216073D01*
X71123901Y-39284346D01*
X71099484Y-39349810D01*
X71043551Y-39391682D01*
X71000217Y-39399500D01*
X70481903Y-39399500D01*
X70248631Y-39436446D01*
X70024003Y-39509433D01*
X69813563Y-39616659D01*
X69622496Y-39755476D01*
X69622491Y-39755480D01*
X58914792Y-50463181D01*
X58853469Y-50496666D01*
X58827111Y-50499500D01*
X58444889Y-50499500D01*
X58382291Y-50481119D01*
X58381728Y-50482095D01*
X58377708Y-50479775D01*
X58377704Y-50479772D01*
X58343252Y-50463181D01*
X58141325Y-50365938D01*
X58141327Y-50365938D01*
X57890623Y-50288606D01*
X57890619Y-50288605D01*
X57890615Y-50288604D01*
X57762577Y-50269305D01*
X57631187Y-50249500D01*
X57631182Y-50249500D01*
X57368818Y-50249500D01*
X57368812Y-50249500D01*
X57207247Y-50273853D01*
X57109385Y-50288604D01*
X57109382Y-50288605D01*
X57109376Y-50288606D01*
X56858673Y-50365938D01*
X56622303Y-50479767D01*
X56622302Y-50479768D01*
X56405520Y-50627567D01*
X56213198Y-50806014D01*
X56049614Y-51011143D01*
X55918432Y-51238356D01*
X55822582Y-51482578D01*
X55822576Y-51482597D01*
X55764197Y-51738374D01*
X55764196Y-51738379D01*
X55744592Y-51999995D01*
X55744592Y-52000004D01*
X55753302Y-52116234D01*
X55738683Y-52184557D01*
X55689445Y-52234130D01*
X55629649Y-52249500D01*
X55368812Y-52249500D01*
X55207247Y-52273853D01*
X55109385Y-52288604D01*
X55109382Y-52288605D01*
X55109376Y-52288606D01*
X54858673Y-52365938D01*
X54622303Y-52479767D01*
X54622302Y-52479768D01*
X54405520Y-52627567D01*
X54213198Y-52806014D01*
X54049614Y-53011143D01*
X53918432Y-53238356D01*
X53822582Y-53482578D01*
X53822576Y-53482597D01*
X53764197Y-53738374D01*
X53764196Y-53738379D01*
X53744592Y-53999995D01*
X53744592Y-54000004D01*
X53753302Y-54116234D01*
X53738683Y-54184557D01*
X53689445Y-54234130D01*
X53629649Y-54249500D01*
X53368812Y-54249500D01*
X53207247Y-54273853D01*
X53109385Y-54288604D01*
X53109382Y-54288605D01*
X53109376Y-54288606D01*
X52858673Y-54365938D01*
X52622303Y-54479767D01*
X52622302Y-54479768D01*
X52405520Y-54627567D01*
X52213198Y-54806014D01*
X52049614Y-55011143D01*
X51918432Y-55238356D01*
X51822582Y-55482578D01*
X51822577Y-55482595D01*
X51783834Y-55652340D01*
X51749725Y-55713318D01*
X51688064Y-55746176D01*
X51618427Y-55740481D01*
X51562923Y-55698041D01*
X51541777Y-55651105D01*
X51530078Y-55597326D01*
X51487279Y-55482578D01*
X51437574Y-55349311D01*
X51376988Y-55238357D01*
X51310719Y-55116994D01*
X51310714Y-55116986D01*
X51166479Y-54924310D01*
X51142062Y-54858846D01*
X51156914Y-54790573D01*
X51166479Y-54775690D01*
X51277362Y-54627567D01*
X51310716Y-54583011D01*
X51437574Y-54350689D01*
X51530077Y-54102678D01*
X51586343Y-53844026D01*
X51605227Y-53580000D01*
X51586343Y-53315974D01*
X51530077Y-53057322D01*
X51437574Y-52809311D01*
X51435776Y-52806019D01*
X51310719Y-52576994D01*
X51310714Y-52576986D01*
X51166479Y-52384310D01*
X51142062Y-52318846D01*
X51156914Y-52250573D01*
X51166479Y-52235690D01*
X51255902Y-52116234D01*
X51310716Y-52043011D01*
X51437574Y-51810689D01*
X51530077Y-51562678D01*
X51586343Y-51304026D01*
X51605227Y-51040000D01*
X51586343Y-50775974D01*
X51530077Y-50517322D01*
X51437574Y-50269311D01*
X51426756Y-50249500D01*
X51310719Y-50036994D01*
X51310714Y-50036986D01*
X51166479Y-49844310D01*
X51142062Y-49778846D01*
X51156914Y-49710573D01*
X51166479Y-49695690D01*
X51228263Y-49613155D01*
X51310716Y-49503011D01*
X51437574Y-49270689D01*
X51530077Y-49022678D01*
X51586343Y-48764026D01*
X51605227Y-48500000D01*
X51586343Y-48235974D01*
X51530077Y-47977322D01*
X51437574Y-47729311D01*
X51321635Y-47516986D01*
X51310719Y-47496994D01*
X51310714Y-47496986D01*
X51166479Y-47304310D01*
X51142062Y-47238846D01*
X51156914Y-47170573D01*
X51166479Y-47155690D01*
X51228263Y-47073155D01*
X51310716Y-46963011D01*
X51437574Y-46730689D01*
X51530077Y-46482678D01*
X51586343Y-46224026D01*
X51605227Y-45960000D01*
X51586343Y-45695974D01*
X51530077Y-45437322D01*
X51437574Y-45189311D01*
X51396343Y-45113803D01*
X51310719Y-44956994D01*
X51310714Y-44956986D01*
X51166479Y-44764310D01*
X51142062Y-44698846D01*
X51156914Y-44630573D01*
X51166479Y-44615690D01*
X51228263Y-44533155D01*
X51310716Y-44423011D01*
X51437574Y-44190689D01*
X51530077Y-43942678D01*
X51586343Y-43684026D01*
X51605227Y-43420000D01*
X51586343Y-43155974D01*
X51530077Y-42897322D01*
X51437574Y-42649311D01*
X51352067Y-42492718D01*
X51310719Y-42416994D01*
X51310714Y-42416986D01*
X51166479Y-42224310D01*
X51142062Y-42158846D01*
X51156914Y-42090573D01*
X51166479Y-42075690D01*
X51277882Y-41926872D01*
X51310716Y-41883011D01*
X51437574Y-41650689D01*
X51530077Y-41402678D01*
X51586343Y-41144026D01*
X51605227Y-40880000D01*
X51586343Y-40615974D01*
X51530077Y-40357322D01*
X51437574Y-40109311D01*
X51321635Y-39896986D01*
X51310719Y-39876994D01*
X51310714Y-39876986D01*
X51166479Y-39684310D01*
X51142062Y-39618846D01*
X51156914Y-39550573D01*
X51166479Y-39535690D01*
X51274281Y-39391682D01*
X51310716Y-39343011D01*
X51437574Y-39110689D01*
X51530077Y-38862678D01*
X51586343Y-38604026D01*
X51605227Y-38340000D01*
X51586343Y-38075974D01*
X51530077Y-37817322D01*
X51437574Y-37569311D01*
X51375472Y-37455581D01*
X51310719Y-37336994D01*
X51310714Y-37336986D01*
X51166479Y-37144310D01*
X51142062Y-37078846D01*
X51156914Y-37010573D01*
X51166479Y-36995690D01*
X51239313Y-36898394D01*
X51310716Y-36803011D01*
X51437574Y-36570689D01*
X51530077Y-36322678D01*
X51586343Y-36064026D01*
X51605227Y-35800000D01*
X51586343Y-35535974D01*
X51530077Y-35277322D01*
X51437574Y-35029311D01*
X51349967Y-34868872D01*
X51310719Y-34796994D01*
X51310714Y-34796986D01*
X51166479Y-34604310D01*
X51142062Y-34538846D01*
X51156914Y-34470573D01*
X51166479Y-34455690D01*
X51241427Y-34355571D01*
X51310716Y-34263011D01*
X51437574Y-34030689D01*
X51530077Y-33782678D01*
X51586343Y-33524026D01*
X51605227Y-33260000D01*
X51586343Y-32995974D01*
X51555781Y-32855482D01*
X51530078Y-32737326D01*
X51482376Y-32609432D01*
X51437574Y-32489311D01*
X51321635Y-32276986D01*
X51310719Y-32256994D01*
X51310714Y-32256986D01*
X51166479Y-32064310D01*
X51142062Y-31998846D01*
X51156914Y-31930573D01*
X51166479Y-31915690D01*
X51228263Y-31833155D01*
X51310716Y-31723011D01*
X51437574Y-31490689D01*
X51530077Y-31242678D01*
X51586343Y-30984026D01*
X51605227Y-30720000D01*
X51586343Y-30455974D01*
X51530077Y-30197322D01*
X51437574Y-29949311D01*
X51369637Y-29824895D01*
X51310719Y-29716994D01*
X51310714Y-29716986D01*
X51152093Y-29505092D01*
X51152077Y-29505074D01*
X50964925Y-29317922D01*
X50964907Y-29317906D01*
X50753013Y-29159285D01*
X50753005Y-29159280D01*
X50520694Y-29032428D01*
X50520690Y-29032426D01*
X50272673Y-28939921D01*
X50014034Y-28883658D01*
X50014027Y-28883657D01*
X49750001Y-28864773D01*
X49749999Y-28864773D01*
X49485972Y-28883657D01*
X49485965Y-28883658D01*
X49227326Y-28939921D01*
X48979309Y-29032426D01*
X48979305Y-29032428D01*
X48746994Y-29159280D01*
X48746986Y-29159285D01*
X48535092Y-29317906D01*
X48535074Y-29317922D01*
X48347922Y-29505074D01*
X48347906Y-29505092D01*
X48189285Y-29716986D01*
X48189280Y-29716994D01*
X48062428Y-29949305D01*
X48062426Y-29949309D01*
X47969921Y-30197326D01*
X47913658Y-30455965D01*
X47913657Y-30455972D01*
X47894773Y-30719998D01*
X47894773Y-30720001D01*
X47913657Y-30984027D01*
X47913658Y-30984034D01*
X47969921Y-31242673D01*
X48062426Y-31490690D01*
X48062428Y-31490694D01*
X48189280Y-31723005D01*
X48189285Y-31723013D01*
X48333520Y-31915690D01*
X48357937Y-31981155D01*
X48343085Y-32049427D01*
X48333520Y-32064310D01*
X48189285Y-32256986D01*
X48189280Y-32256994D01*
X48062428Y-32489305D01*
X48062426Y-32489309D01*
X47969921Y-32737326D01*
X47913658Y-32995965D01*
X47913657Y-32995972D01*
X47894773Y-33259998D01*
X47894773Y-33260001D01*
X47913657Y-33524027D01*
X47913658Y-33524034D01*
X47969921Y-33782673D01*
X48062426Y-34030690D01*
X48062428Y-34030694D01*
X48189280Y-34263005D01*
X48189285Y-34263013D01*
X48333520Y-34455690D01*
X48357937Y-34521155D01*
X48343085Y-34589427D01*
X48333520Y-34604310D01*
X48189285Y-34796986D01*
X48189280Y-34796994D01*
X48062428Y-35029305D01*
X48062426Y-35029309D01*
X47969921Y-35277326D01*
X47913658Y-35535965D01*
X47913657Y-35535972D01*
X47894773Y-35799998D01*
X47894773Y-35800001D01*
X47913657Y-36064027D01*
X47913658Y-36064034D01*
X47969921Y-36322673D01*
X48062426Y-36570690D01*
X48062428Y-36570694D01*
X48189280Y-36803005D01*
X48189285Y-36803013D01*
X48333520Y-36995690D01*
X48357937Y-37061155D01*
X48343085Y-37129427D01*
X48333520Y-37144310D01*
X48189285Y-37336986D01*
X48189280Y-37336994D01*
X48062428Y-37569305D01*
X48062426Y-37569309D01*
X47969921Y-37817326D01*
X47913658Y-38075965D01*
X47913657Y-38075972D01*
X47894773Y-38339998D01*
X47894773Y-38340001D01*
X47913657Y-38604027D01*
X47913658Y-38604034D01*
X47969921Y-38862673D01*
X48062426Y-39110690D01*
X48062428Y-39110694D01*
X48189280Y-39343005D01*
X48189285Y-39343013D01*
X48333520Y-39535690D01*
X48357937Y-39601155D01*
X48343085Y-39669427D01*
X48333520Y-39684310D01*
X48189285Y-39876986D01*
X48189280Y-39876994D01*
X48062428Y-40109305D01*
X48062426Y-40109309D01*
X47969921Y-40357326D01*
X47913658Y-40615965D01*
X47913657Y-40615972D01*
X47894773Y-40879998D01*
X47894773Y-40880001D01*
X47913657Y-41144027D01*
X47913658Y-41144034D01*
X47969921Y-41402673D01*
X48062426Y-41650690D01*
X48062428Y-41650694D01*
X48189280Y-41883005D01*
X48189285Y-41883013D01*
X48333520Y-42075690D01*
X48357937Y-42141155D01*
X48343085Y-42209427D01*
X48333520Y-42224310D01*
X48189285Y-42416986D01*
X48189280Y-42416994D01*
X48062428Y-42649305D01*
X48062426Y-42649309D01*
X47969921Y-42897326D01*
X47913658Y-43155965D01*
X47913657Y-43155972D01*
X47894773Y-43419998D01*
X47894773Y-43420001D01*
X47913657Y-43684027D01*
X47913658Y-43684034D01*
X47969921Y-43942673D01*
X48062426Y-44190690D01*
X48062428Y-44190694D01*
X48189280Y-44423005D01*
X48189285Y-44423013D01*
X48333520Y-44615690D01*
X48357937Y-44681155D01*
X48343085Y-44749427D01*
X48333520Y-44764310D01*
X48189285Y-44956986D01*
X48189280Y-44956994D01*
X48062428Y-45189305D01*
X48062426Y-45189309D01*
X47969921Y-45437326D01*
X47913658Y-45695965D01*
X47913657Y-45695972D01*
X47894773Y-45959998D01*
X47894773Y-45960001D01*
X47913657Y-46224027D01*
X47913658Y-46224034D01*
X47969921Y-46482673D01*
X48062426Y-46730690D01*
X48062428Y-46730694D01*
X48189280Y-46963005D01*
X48189285Y-46963013D01*
X48333520Y-47155690D01*
X48357937Y-47221155D01*
X48343085Y-47289427D01*
X48333520Y-47304310D01*
X48189285Y-47496986D01*
X48189280Y-47496994D01*
X48062428Y-47729305D01*
X48062426Y-47729309D01*
X47969921Y-47977326D01*
X47913658Y-48235965D01*
X47913657Y-48235972D01*
X47894773Y-48499998D01*
X47894773Y-48500001D01*
X47913657Y-48764027D01*
X47913658Y-48764034D01*
X47969921Y-49022673D01*
X48062426Y-49270690D01*
X48062428Y-49270694D01*
X48189280Y-49503005D01*
X48189285Y-49503013D01*
X48333520Y-49695690D01*
X48357937Y-49761155D01*
X48343085Y-49829427D01*
X48333520Y-49844310D01*
X48189285Y-50036986D01*
X48189280Y-50036994D01*
X48062428Y-50269305D01*
X48062426Y-50269309D01*
X47969921Y-50517326D01*
X47913658Y-50775965D01*
X47913657Y-50775972D01*
X47894773Y-51039998D01*
X47894773Y-51040001D01*
X47913657Y-51304027D01*
X47913658Y-51304034D01*
X47969921Y-51562673D01*
X48062426Y-51810690D01*
X48062428Y-51810694D01*
X48189280Y-52043005D01*
X48189285Y-52043013D01*
X48333520Y-52235690D01*
X48357937Y-52301155D01*
X48343085Y-52369427D01*
X48333520Y-52384310D01*
X48189285Y-52576986D01*
X48189280Y-52576994D01*
X48062428Y-52809305D01*
X48062426Y-52809309D01*
X47969921Y-53057326D01*
X47913658Y-53315965D01*
X47913657Y-53315972D01*
X47894773Y-53579998D01*
X47894773Y-53580001D01*
X47913657Y-53844027D01*
X47913658Y-53844034D01*
X47969921Y-54102673D01*
X48062426Y-54350690D01*
X48062428Y-54350694D01*
X48189280Y-54583005D01*
X48189285Y-54583013D01*
X48333520Y-54775690D01*
X48357937Y-54841155D01*
X48343085Y-54909427D01*
X48333520Y-54924310D01*
X48189285Y-55116986D01*
X48189280Y-55116994D01*
X48062428Y-55349305D01*
X48062426Y-55349309D01*
X47969921Y-55597326D01*
X47913658Y-55855965D01*
X47913657Y-55855972D01*
X47894773Y-56119998D01*
X47894773Y-56120001D01*
X47913657Y-56384027D01*
X47913658Y-56384034D01*
X47969921Y-56642673D01*
X48062426Y-56890690D01*
X48062428Y-56890694D01*
X48189280Y-57123005D01*
X48189285Y-57123013D01*
X48333520Y-57315690D01*
X48357937Y-57381155D01*
X48343085Y-57449427D01*
X48333520Y-57464310D01*
X48189285Y-57656986D01*
X48189280Y-57656994D01*
X48062428Y-57889305D01*
X48062426Y-57889309D01*
X47969921Y-58137326D01*
X47913658Y-58395965D01*
X47913657Y-58395972D01*
X47894773Y-58659998D01*
X47894773Y-58660001D01*
X47913657Y-58924027D01*
X47913658Y-58924034D01*
X47969921Y-59182673D01*
X48062426Y-59430690D01*
X48062428Y-59430694D01*
X48189280Y-59663005D01*
X48189285Y-59663013D01*
X48333520Y-59855690D01*
X48357937Y-59921155D01*
X48343085Y-59989427D01*
X48333520Y-60004310D01*
X48189285Y-60196986D01*
X48189280Y-60196994D01*
X48062428Y-60429305D01*
X48062426Y-60429309D01*
X47969921Y-60677326D01*
X47913658Y-60935965D01*
X47913657Y-60935972D01*
X47894773Y-61199998D01*
X47894773Y-61200001D01*
X47913657Y-61464027D01*
X47913658Y-61464034D01*
X47969921Y-61722673D01*
X48062426Y-61970690D01*
X48062428Y-61970694D01*
X48189280Y-62203005D01*
X48189285Y-62203013D01*
X48333520Y-62395690D01*
X48357937Y-62461155D01*
X48343085Y-62529427D01*
X48333520Y-62544310D01*
X48189285Y-62736986D01*
X48189280Y-62736994D01*
X48062428Y-62969305D01*
X48062426Y-62969309D01*
X47969921Y-63217326D01*
X47913658Y-63475965D01*
X47913657Y-63475972D01*
X47894773Y-63739998D01*
X47894773Y-63740001D01*
X47913657Y-64004027D01*
X47913658Y-64004034D01*
X47969921Y-64262673D01*
X48062426Y-64510690D01*
X48062428Y-64510694D01*
X48189280Y-64743005D01*
X48189285Y-64743013D01*
X48333520Y-64935690D01*
X48357937Y-65001155D01*
X48343085Y-65069427D01*
X48333520Y-65084310D01*
X48189285Y-65276986D01*
X48189280Y-65276994D01*
X48062428Y-65509305D01*
X48062426Y-65509309D01*
X47969921Y-65757326D01*
X47913658Y-66015965D01*
X47913657Y-66015972D01*
X47894773Y-66279998D01*
X47894773Y-66280001D01*
X47913657Y-66544027D01*
X47913658Y-66544034D01*
X47969921Y-66802673D01*
X48062426Y-67050690D01*
X48062428Y-67050694D01*
X48189280Y-67283005D01*
X48189285Y-67283013D01*
X48333520Y-67475690D01*
X48357937Y-67541155D01*
X48343085Y-67609427D01*
X48333520Y-67624310D01*
X48189285Y-67816986D01*
X48189280Y-67816994D01*
X48062428Y-68049305D01*
X48062426Y-68049309D01*
X47969921Y-68297326D01*
X47913658Y-68555965D01*
X47913657Y-68555972D01*
X47894773Y-68819998D01*
X47894773Y-68820001D01*
X47913657Y-69084027D01*
X47913658Y-69084034D01*
X47969921Y-69342673D01*
X48062426Y-69590690D01*
X48062428Y-69590694D01*
X48189280Y-69823005D01*
X48189285Y-69823013D01*
X48245536Y-69898156D01*
X48269953Y-69963621D01*
X48255101Y-70031893D01*
X48216530Y-70072447D01*
X48217508Y-70073793D01*
X48022496Y-70215476D01*
X48022491Y-70215480D01*
X45712181Y-72525791D01*
X45650858Y-72559276D01*
X45581166Y-72554292D01*
X45525233Y-72512420D01*
X45500816Y-72446956D01*
X45500500Y-72438110D01*
X45500500Y-37381902D01*
X45463553Y-37148631D01*
X45420357Y-37015690D01*
X45414282Y-36996992D01*
X45410775Y-36986197D01*
X45390570Y-36924012D01*
X45390568Y-36924006D01*
X45335933Y-36816781D01*
X45283343Y-36713566D01*
X45144517Y-36522490D01*
X41477510Y-32855483D01*
X41286434Y-32716657D01*
X41075996Y-32609433D01*
X40851368Y-32536446D01*
X40618097Y-32499500D01*
X40618092Y-32499500D01*
X34881908Y-32499500D01*
X34881903Y-32499500D01*
X34751989Y-32520077D01*
X34648631Y-32536447D01*
X34424003Y-32609433D01*
X34213563Y-32716659D01*
X34022497Y-32855475D01*
X33862504Y-33015467D01*
X33801180Y-33048951D01*
X33742730Y-33047560D01*
X33691116Y-33033730D01*
X33658616Y-33029451D01*
X33431127Y-32999500D01*
X33431120Y-32999500D01*
X30368880Y-32999500D01*
X30368872Y-32999500D01*
X30137772Y-33029926D01*
X30108884Y-33033730D01*
X29988118Y-33066089D01*
X29855581Y-33101602D01*
X29855571Y-33101605D01*
X29613309Y-33201953D01*
X29613299Y-33201958D01*
X29386196Y-33333075D01*
X29178148Y-33492718D01*
X28992718Y-33678148D01*
X28833075Y-33886196D01*
X28701958Y-34113299D01*
X28701953Y-34113309D01*
X28601605Y-34355571D01*
X28601602Y-34355581D01*
X28538944Y-34589427D01*
X28533730Y-34608885D01*
X28499500Y-34868872D01*
X28499500Y-35131127D01*
X28518748Y-35277322D01*
X28533730Y-35391116D01*
X28601602Y-35644418D01*
X28601605Y-35644428D01*
X28701953Y-35886690D01*
X28701958Y-35886700D01*
X28833075Y-36113803D01*
X28992718Y-36321851D01*
X28992726Y-36321860D01*
X29178140Y-36507274D01*
X29178148Y-36507281D01*
X29386196Y-36666924D01*
X29613299Y-36798041D01*
X29613309Y-36798046D01*
X29855571Y-36898394D01*
X29855581Y-36898398D01*
X30108884Y-36966270D01*
X30368880Y-37000500D01*
X30368887Y-37000500D01*
X33431113Y-37000500D01*
X33431120Y-37000500D01*
X33691116Y-36966270D01*
X33944419Y-36898398D01*
X34126434Y-36823005D01*
X34186690Y-36798046D01*
X34186691Y-36798045D01*
X34186697Y-36798043D01*
X34413803Y-36666924D01*
X34621851Y-36507282D01*
X34621855Y-36507277D01*
X34621860Y-36507274D01*
X34807277Y-36321856D01*
X34807281Y-36321852D01*
X34822550Y-36301953D01*
X34889385Y-36214851D01*
X34914863Y-36190031D01*
X34977510Y-36144517D01*
X35585209Y-35536819D01*
X35646532Y-35503334D01*
X35672890Y-35500500D01*
X39827111Y-35500500D01*
X39894150Y-35520185D01*
X39914792Y-35536819D01*
X42463181Y-38085208D01*
X42496666Y-38146531D01*
X42499500Y-38172889D01*
X42499500Y-61578111D01*
X42479815Y-61645150D01*
X42427011Y-61690905D01*
X42357853Y-61700849D01*
X42294297Y-61671824D01*
X42287819Y-61665792D01*
X38977511Y-58355484D01*
X38786434Y-58216657D01*
X38575996Y-58109433D01*
X38351368Y-58036446D01*
X38118097Y-57999500D01*
X38118092Y-57999500D01*
X35881908Y-57999500D01*
X35881903Y-57999500D01*
X35648631Y-58036446D01*
X35531083Y-58074641D01*
X35502255Y-58084008D01*
X35502254Y-58084008D01*
X35424012Y-58109429D01*
X35213565Y-58216657D01*
X35022488Y-58355484D01*
X35022487Y-58355485D01*
X34237730Y-59140241D01*
X34176407Y-59173726D01*
X34106715Y-59168742D01*
X34102596Y-59167121D01*
X33944428Y-59101605D01*
X33944421Y-59101603D01*
X33944419Y-59101602D01*
X33691116Y-59033730D01*
X33633339Y-59026123D01*
X33431127Y-58999500D01*
X33431120Y-58999500D01*
X30368880Y-58999500D01*
X30368872Y-58999500D01*
X30137772Y-59029926D01*
X30108884Y-59033730D01*
X29855581Y-59101602D01*
X29855571Y-59101605D01*
X29613309Y-59201953D01*
X29613299Y-59201958D01*
X29386196Y-59333075D01*
X29178148Y-59492718D01*
X28992718Y-59678148D01*
X28833075Y-59886196D01*
X28701958Y-60113299D01*
X28701953Y-60113309D01*
X28601605Y-60355571D01*
X28601602Y-60355581D01*
X28533730Y-60608884D01*
X28529926Y-60637772D01*
X28499500Y-60868872D01*
X28499500Y-61131127D01*
X28526123Y-61333339D01*
X28533730Y-61391116D01*
X28583835Y-61578111D01*
X28601602Y-61644418D01*
X28601605Y-61644428D01*
X28701953Y-61886690D01*
X28701958Y-61886700D01*
X28833075Y-62113803D01*
X28992718Y-62321851D01*
X28992726Y-62321860D01*
X29178140Y-62507274D01*
X29178148Y-62507281D01*
X29386196Y-62666924D01*
X29613299Y-62798041D01*
X29613309Y-62798046D01*
X29855571Y-62898394D01*
X29855581Y-62898398D01*
X30108884Y-62966270D01*
X30368880Y-63000500D01*
X30368887Y-63000500D01*
X33431113Y-63000500D01*
X33431120Y-63000500D01*
X33691116Y-62966270D01*
X33944419Y-62898398D01*
X34186697Y-62798043D01*
X34413803Y-62666924D01*
X34608984Y-62517154D01*
X34665065Y-62493059D01*
X34851368Y-62463553D01*
X35075992Y-62390568D01*
X35286434Y-62283343D01*
X35477510Y-62144517D01*
X36585208Y-61036819D01*
X36646531Y-61003334D01*
X36672889Y-61000500D01*
X37327111Y-61000500D01*
X37394150Y-61020185D01*
X37414792Y-61036819D01*
X39963181Y-63585208D01*
X39996666Y-63646531D01*
X39999500Y-63672889D01*
X39999500Y-72327111D01*
X39979815Y-72394150D01*
X39963181Y-72414792D01*
X38355485Y-74022487D01*
X38355484Y-74022488D01*
X38216657Y-74213565D01*
X38110121Y-74422656D01*
X38110113Y-74422670D01*
X38109431Y-74424006D01*
X38036447Y-74648627D01*
X38036447Y-74648630D01*
X37999500Y-74881902D01*
X37999500Y-76064717D01*
X37982887Y-76126717D01*
X37918432Y-76238356D01*
X37822582Y-76482578D01*
X37822576Y-76482597D01*
X37764197Y-76738374D01*
X37764196Y-76738379D01*
X37744592Y-76999995D01*
X37744592Y-77000004D01*
X37764196Y-77261620D01*
X37764197Y-77261625D01*
X37822576Y-77517402D01*
X37822582Y-77517421D01*
X37918431Y-77761641D01*
X37948372Y-77813501D01*
X37964844Y-77881401D01*
X37941991Y-77947428D01*
X37887069Y-77990618D01*
X37840984Y-77999500D01*
X34981903Y-77999500D01*
X34748634Y-78036446D01*
X34524005Y-78109433D01*
X34313565Y-78216657D01*
X34122488Y-78355484D01*
X26055484Y-86422488D01*
X25916657Y-86613565D01*
X25898790Y-86648632D01*
X25809434Y-86824003D01*
X25736446Y-87048631D01*
X25699500Y-87281902D01*
X25699500Y-88727218D01*
X25679815Y-88794257D01*
X25673882Y-88802695D01*
X25617697Y-88875916D01*
X25533072Y-88986201D01*
X25401958Y-89213299D01*
X25401953Y-89213309D01*
X25301605Y-89455571D01*
X25301602Y-89455581D01*
X25233730Y-89708885D01*
X25199500Y-89968872D01*
X25199500Y-93031127D01*
X25226123Y-93233339D01*
X25233730Y-93291116D01*
X25301602Y-93544418D01*
X25301605Y-93544428D01*
X25401953Y-93786690D01*
X25401958Y-93786700D01*
X25533075Y-94013803D01*
X25692718Y-94221851D01*
X25692726Y-94221860D01*
X25878140Y-94407274D01*
X25878148Y-94407281D01*
X26086196Y-94566924D01*
X26313299Y-94698041D01*
X26313309Y-94698046D01*
X26555571Y-94798394D01*
X26555581Y-94798398D01*
X26808884Y-94866270D01*
X27068880Y-94900500D01*
X27068887Y-94900500D01*
X27331113Y-94900500D01*
X27331120Y-94900500D01*
X27591116Y-94866270D01*
X27844419Y-94798398D01*
X28086697Y-94698043D01*
X28313803Y-94566924D01*
X28521851Y-94407282D01*
X28521855Y-94407277D01*
X28521860Y-94407274D01*
X28707274Y-94221860D01*
X28707277Y-94221855D01*
X28707282Y-94221851D01*
X28866924Y-94013803D01*
X28998043Y-93786697D01*
X29098398Y-93544419D01*
X29166270Y-93291116D01*
X29200499Y-93031127D01*
X35199500Y-93031127D01*
X35226123Y-93233339D01*
X35233730Y-93291116D01*
X35301602Y-93544418D01*
X35301605Y-93544428D01*
X35401953Y-93786690D01*
X35401958Y-93786700D01*
X35533075Y-94013803D01*
X35692718Y-94221851D01*
X35692726Y-94221860D01*
X35878140Y-94407274D01*
X35878148Y-94407281D01*
X36086196Y-94566924D01*
X36313299Y-94698041D01*
X36313309Y-94698046D01*
X36555571Y-94798394D01*
X36555581Y-94798398D01*
X36808884Y-94866270D01*
X37068880Y-94900500D01*
X37068887Y-94900500D01*
X37331113Y-94900500D01*
X37331120Y-94900500D01*
X37591116Y-94866270D01*
X37844419Y-94798398D01*
X38086697Y-94698043D01*
X38313803Y-94566924D01*
X38521851Y-94407282D01*
X38521855Y-94407277D01*
X38521860Y-94407274D01*
X38707274Y-94221860D01*
X38707277Y-94221855D01*
X38707282Y-94221851D01*
X38866924Y-94013803D01*
X38998043Y-93786697D01*
X39098398Y-93544419D01*
X39166270Y-93291116D01*
X39200499Y-93031127D01*
X83799500Y-93031127D01*
X83826123Y-93233339D01*
X83833730Y-93291116D01*
X83901602Y-93544418D01*
X83901605Y-93544428D01*
X84001953Y-93786690D01*
X84001958Y-93786700D01*
X84133075Y-94013803D01*
X84292718Y-94221851D01*
X84292726Y-94221860D01*
X84478140Y-94407274D01*
X84478148Y-94407281D01*
X84686196Y-94566924D01*
X84913299Y-94698041D01*
X84913309Y-94698046D01*
X85155571Y-94798394D01*
X85155581Y-94798398D01*
X85408884Y-94866270D01*
X85668880Y-94900500D01*
X85668887Y-94900500D01*
X85931113Y-94900500D01*
X85931120Y-94900500D01*
X86191116Y-94866270D01*
X86444419Y-94798398D01*
X86686697Y-94698043D01*
X86913803Y-94566924D01*
X87121851Y-94407282D01*
X87121855Y-94407277D01*
X87121860Y-94407274D01*
X87307274Y-94221860D01*
X87307277Y-94221855D01*
X87307282Y-94221851D01*
X87466924Y-94013803D01*
X87598043Y-93786697D01*
X87698398Y-93544419D01*
X87766270Y-93291116D01*
X87800500Y-93031120D01*
X87800500Y-89968880D01*
X87766270Y-89708884D01*
X87698398Y-89455581D01*
X87698394Y-89455571D01*
X87598046Y-89213309D01*
X87598041Y-89213299D01*
X87466924Y-88986196D01*
X87326125Y-88802705D01*
X87307282Y-88778149D01*
X87307281Y-88778148D01*
X87307274Y-88778140D01*
X87121860Y-88592726D01*
X87121851Y-88592718D01*
X86913803Y-88433075D01*
X86686700Y-88301958D01*
X86686690Y-88301953D01*
X86444428Y-88201605D01*
X86444421Y-88201603D01*
X86444419Y-88201602D01*
X86191116Y-88133730D01*
X86133339Y-88126123D01*
X85931127Y-88099500D01*
X85931120Y-88099500D01*
X85668880Y-88099500D01*
X85668872Y-88099500D01*
X85437772Y-88129926D01*
X85408884Y-88133730D01*
X85155581Y-88201602D01*
X85155571Y-88201605D01*
X84913309Y-88301953D01*
X84913299Y-88301958D01*
X84686196Y-88433075D01*
X84478148Y-88592718D01*
X84292718Y-88778148D01*
X84133075Y-88986196D01*
X84001958Y-89213299D01*
X84001953Y-89213309D01*
X83901605Y-89455571D01*
X83901602Y-89455581D01*
X83833730Y-89708885D01*
X83799500Y-89968872D01*
X83799500Y-93031127D01*
X39200499Y-93031127D01*
X39200500Y-93031120D01*
X39200500Y-89968880D01*
X39166270Y-89708884D01*
X39098398Y-89455581D01*
X39098394Y-89455571D01*
X38998046Y-89213309D01*
X38998041Y-89213299D01*
X38866924Y-88986196D01*
X38726125Y-88802705D01*
X38707282Y-88778149D01*
X38707281Y-88778148D01*
X38707274Y-88778140D01*
X38521860Y-88592726D01*
X38521851Y-88592718D01*
X38313803Y-88433075D01*
X38086700Y-88301958D01*
X38086690Y-88301953D01*
X37844428Y-88201605D01*
X37844421Y-88201603D01*
X37844419Y-88201602D01*
X37591116Y-88133730D01*
X37533339Y-88126123D01*
X37331127Y-88099500D01*
X37331120Y-88099500D01*
X37068880Y-88099500D01*
X37068872Y-88099500D01*
X36837772Y-88129926D01*
X36808884Y-88133730D01*
X36555581Y-88201602D01*
X36555571Y-88201605D01*
X36313309Y-88301953D01*
X36313299Y-88301958D01*
X36086196Y-88433075D01*
X35878148Y-88592718D01*
X35692718Y-88778148D01*
X35533075Y-88986196D01*
X35401958Y-89213299D01*
X35401953Y-89213309D01*
X35301605Y-89455571D01*
X35301602Y-89455581D01*
X35233730Y-89708885D01*
X35199500Y-89968872D01*
X35199500Y-93031127D01*
X29200499Y-93031127D01*
X29200500Y-93031120D01*
X29200500Y-89968880D01*
X29166270Y-89708884D01*
X29098398Y-89455581D01*
X29098394Y-89455571D01*
X28998046Y-89213309D01*
X28998041Y-89213299D01*
X28866927Y-88986201D01*
X28851633Y-88966270D01*
X28726123Y-88802703D01*
X28700930Y-88737536D01*
X28700500Y-88727218D01*
X28700500Y-88306317D01*
X28720185Y-88239278D01*
X28772989Y-88193523D01*
X28842147Y-88183579D01*
X28905703Y-88212604D01*
X28922868Y-88230822D01*
X28992718Y-88321851D01*
X28992722Y-88321855D01*
X28992726Y-88321860D01*
X29178140Y-88507274D01*
X29178148Y-88507281D01*
X29386196Y-88666924D01*
X29613299Y-88798041D01*
X29613309Y-88798046D01*
X29855571Y-88898394D01*
X29855581Y-88898398D01*
X30108884Y-88966270D01*
X30368880Y-89000500D01*
X30368887Y-89000500D01*
X33431113Y-89000500D01*
X33431120Y-89000500D01*
X33691116Y-88966270D01*
X33944419Y-88898398D01*
X34186697Y-88798043D01*
X34413803Y-88666924D01*
X34621851Y-88507282D01*
X34621855Y-88507277D01*
X34621860Y-88507274D01*
X34807274Y-88321860D01*
X34807277Y-88321855D01*
X34807282Y-88321851D01*
X34966924Y-88113803D01*
X35098043Y-87886697D01*
X35198398Y-87644419D01*
X35266270Y-87391116D01*
X35300500Y-87131120D01*
X35300500Y-86868880D01*
X35266270Y-86608884D01*
X35198398Y-86355581D01*
X35198394Y-86355571D01*
X35098046Y-86113309D01*
X35098041Y-86113299D01*
X34966924Y-85886196D01*
X34816144Y-85689698D01*
X34807282Y-85678149D01*
X34807281Y-85678148D01*
X34807274Y-85678140D01*
X34621860Y-85492726D01*
X34621851Y-85492718D01*
X34413803Y-85333075D01*
X34186700Y-85201958D01*
X34186690Y-85201953D01*
X33944428Y-85101605D01*
X33944421Y-85101603D01*
X33944419Y-85101602D01*
X33691116Y-85033730D01*
X33633339Y-85026123D01*
X33431127Y-84999500D01*
X33431120Y-84999500D01*
X32021889Y-84999500D01*
X31954850Y-84979815D01*
X31909095Y-84927011D01*
X31899151Y-84857853D01*
X31928176Y-84794297D01*
X31934208Y-84787819D01*
X35685208Y-81036819D01*
X35746531Y-81003334D01*
X35772889Y-81000500D01*
X43118097Y-81000500D01*
X43351368Y-80963553D01*
X43575992Y-80890568D01*
X43786434Y-80783343D01*
X43977510Y-80644517D01*
X47144518Y-77477510D01*
X47283343Y-77286433D01*
X47390568Y-77075992D01*
X47463553Y-76851368D01*
X47481449Y-76738379D01*
X47500500Y-76618097D01*
X47500500Y-75032889D01*
X47520185Y-74965850D01*
X47536819Y-74945208D01*
X47695593Y-74786434D01*
X47857783Y-74624243D01*
X47919104Y-74590760D01*
X47988795Y-74595744D01*
X48044729Y-74637615D01*
X48061642Y-74668587D01*
X48062426Y-74670690D01*
X48062428Y-74670694D01*
X48189280Y-74903005D01*
X48189285Y-74903013D01*
X48333520Y-75095690D01*
X48357937Y-75161155D01*
X48343085Y-75229427D01*
X48333520Y-75244310D01*
X48189285Y-75436986D01*
X48189280Y-75436994D01*
X48062428Y-75669305D01*
X48062426Y-75669309D01*
X47969921Y-75917326D01*
X47913658Y-76175965D01*
X47913657Y-76175972D01*
X47894773Y-76439998D01*
X47894773Y-76440001D01*
X47913657Y-76704027D01*
X47913658Y-76704034D01*
X47969921Y-76962673D01*
X48062426Y-77210690D01*
X48062428Y-77210694D01*
X48189280Y-77443005D01*
X48189285Y-77443013D01*
X48347906Y-77654907D01*
X48347922Y-77654925D01*
X48535074Y-77842077D01*
X48535092Y-77842093D01*
X48746986Y-78000714D01*
X48746994Y-78000719D01*
X48979305Y-78127571D01*
X48979309Y-78127573D01*
X48979311Y-78127574D01*
X49227322Y-78220077D01*
X49227325Y-78220077D01*
X49227326Y-78220078D01*
X49422552Y-78262546D01*
X49485974Y-78276343D01*
X49729660Y-78293772D01*
X49749999Y-78295227D01*
X49750000Y-78295227D01*
X49750001Y-78295227D01*
X49768885Y-78293876D01*
X50014026Y-78276343D01*
X50272678Y-78220077D01*
X50520689Y-78127574D01*
X50753011Y-78000716D01*
X50964915Y-77842087D01*
X51152087Y-77654915D01*
X51310716Y-77443011D01*
X51437574Y-77210689D01*
X51530077Y-76962678D01*
X51586343Y-76704026D01*
X51605227Y-76440000D01*
X51586343Y-76175974D01*
X51530077Y-75917322D01*
X51437574Y-75669311D01*
X51321635Y-75456986D01*
X51310719Y-75436994D01*
X51310714Y-75436986D01*
X51166479Y-75244310D01*
X51142062Y-75178846D01*
X51156914Y-75110573D01*
X51166479Y-75095690D01*
X51263675Y-74965850D01*
X51310716Y-74903011D01*
X51437574Y-74670689D01*
X51530077Y-74422678D01*
X51545590Y-74351368D01*
X51575566Y-74213566D01*
X51586343Y-74164026D01*
X51605227Y-73900000D01*
X51586343Y-73635974D01*
X51533738Y-73394150D01*
X51530078Y-73377326D01*
X51520486Y-73351610D01*
X51437574Y-73129311D01*
X51436302Y-73126982D01*
X51358079Y-72983727D01*
X51343227Y-72915454D01*
X51367644Y-72849990D01*
X51423577Y-72808118D01*
X51493269Y-72803134D01*
X51554589Y-72836616D01*
X51554592Y-72836619D01*
X60785006Y-82067033D01*
X60818491Y-82128356D01*
X60813507Y-82198048D01*
X60771635Y-82253981D01*
X60740658Y-82270896D01*
X60629309Y-82312426D01*
X60629305Y-82312428D01*
X60396994Y-82439280D01*
X60396986Y-82439285D01*
X60204310Y-82583520D01*
X60138845Y-82607937D01*
X60070573Y-82593085D01*
X60055690Y-82583520D01*
X59863013Y-82439285D01*
X59863005Y-82439280D01*
X59630694Y-82312428D01*
X59630690Y-82312426D01*
X59382673Y-82219921D01*
X59124034Y-82163658D01*
X59124027Y-82163657D01*
X58860001Y-82144773D01*
X58859999Y-82144773D01*
X58595972Y-82163657D01*
X58595965Y-82163658D01*
X58337326Y-82219921D01*
X58089309Y-82312426D01*
X58089305Y-82312428D01*
X57856994Y-82439280D01*
X57856986Y-82439285D01*
X57664310Y-82583520D01*
X57598845Y-82607937D01*
X57530573Y-82593085D01*
X57515690Y-82583520D01*
X57323013Y-82439285D01*
X57323005Y-82439280D01*
X57090694Y-82312428D01*
X57090690Y-82312426D01*
X56842673Y-82219921D01*
X56584034Y-82163658D01*
X56584027Y-82163657D01*
X56320001Y-82144773D01*
X56319999Y-82144773D01*
X56055972Y-82163657D01*
X56055965Y-82163658D01*
X55797326Y-82219921D01*
X55549309Y-82312426D01*
X55549305Y-82312428D01*
X55316994Y-82439280D01*
X55316986Y-82439285D01*
X55124310Y-82583520D01*
X55058845Y-82607937D01*
X54990573Y-82593085D01*
X54975690Y-82583520D01*
X54783013Y-82439285D01*
X54783005Y-82439280D01*
X54550694Y-82312428D01*
X54550690Y-82312426D01*
X54302673Y-82219921D01*
X54044034Y-82163658D01*
X54044027Y-82163657D01*
X53780001Y-82144773D01*
X53779999Y-82144773D01*
X53515972Y-82163657D01*
X53515965Y-82163658D01*
X53257326Y-82219921D01*
X53009309Y-82312426D01*
X53009305Y-82312428D01*
X52776994Y-82439280D01*
X52776986Y-82439285D01*
X52584310Y-82583520D01*
X52518845Y-82607937D01*
X52450573Y-82593085D01*
X52435690Y-82583520D01*
X52243013Y-82439285D01*
X52243005Y-82439280D01*
X52010694Y-82312428D01*
X52010690Y-82312426D01*
X51762673Y-82219921D01*
X51504034Y-82163658D01*
X51504027Y-82163657D01*
X51240001Y-82144773D01*
X51239999Y-82144773D01*
X50975972Y-82163657D01*
X50975965Y-82163658D01*
X50717326Y-82219921D01*
X50469309Y-82312426D01*
X50469305Y-82312428D01*
X50236994Y-82439280D01*
X50236986Y-82439285D01*
X50044310Y-82583520D01*
X49978845Y-82607937D01*
X49910573Y-82593085D01*
X49895690Y-82583520D01*
X49703013Y-82439285D01*
X49703005Y-82439280D01*
X49470694Y-82312428D01*
X49470690Y-82312426D01*
X49222673Y-82219921D01*
X48964034Y-82163658D01*
X48964027Y-82163657D01*
X48700001Y-82144773D01*
X48699999Y-82144773D01*
X48435972Y-82163657D01*
X48435965Y-82163658D01*
X48177326Y-82219921D01*
X47929309Y-82312426D01*
X47929305Y-82312428D01*
X47696994Y-82439280D01*
X47696986Y-82439285D01*
X47504310Y-82583520D01*
X47438845Y-82607937D01*
X47370573Y-82593085D01*
X47355690Y-82583520D01*
X47163013Y-82439285D01*
X47163005Y-82439280D01*
X46930694Y-82312428D01*
X46930690Y-82312426D01*
X46682673Y-82219921D01*
X46424034Y-82163658D01*
X46424027Y-82163657D01*
X46160001Y-82144773D01*
X46159999Y-82144773D01*
X45895972Y-82163657D01*
X45895965Y-82163658D01*
X45637326Y-82219921D01*
X45389309Y-82312426D01*
X45389305Y-82312428D01*
X45156994Y-82439280D01*
X45156986Y-82439285D01*
X44945092Y-82597906D01*
X44945074Y-82597922D01*
X44757922Y-82785074D01*
X44757906Y-82785092D01*
X44599285Y-82996986D01*
X44599280Y-82996994D01*
X44472428Y-83229305D01*
X44472426Y-83229309D01*
X44379921Y-83477326D01*
X44323658Y-83735965D01*
X44323657Y-83735972D01*
X44304773Y-83999998D01*
X44304773Y-84000001D01*
X44323657Y-84264027D01*
X44323658Y-84264034D01*
X44379921Y-84522673D01*
X44472426Y-84770690D01*
X44472428Y-84770694D01*
X44599280Y-85003005D01*
X44599285Y-85003013D01*
X44757906Y-85214907D01*
X44757922Y-85214925D01*
X44945074Y-85402077D01*
X44945092Y-85402093D01*
X45156986Y-85560714D01*
X45156994Y-85560719D01*
X45389305Y-85687571D01*
X45389309Y-85687573D01*
X45389311Y-85687574D01*
X45637322Y-85780077D01*
X45637325Y-85780077D01*
X45637326Y-85780078D01*
X45654942Y-85783910D01*
X45895974Y-85836343D01*
X46139660Y-85853772D01*
X46159999Y-85855227D01*
X46160000Y-85855227D01*
X46160001Y-85855227D01*
X46178885Y-85853876D01*
X46424026Y-85836343D01*
X46682678Y-85780077D01*
X46930689Y-85687574D01*
X47163011Y-85560716D01*
X47273155Y-85478263D01*
X47355690Y-85416479D01*
X47421154Y-85392062D01*
X47489427Y-85406914D01*
X47504310Y-85416479D01*
X47696986Y-85560714D01*
X47696994Y-85560719D01*
X47929305Y-85687571D01*
X47929309Y-85687573D01*
X47929311Y-85687574D01*
X48177322Y-85780077D01*
X48177325Y-85780077D01*
X48177326Y-85780078D01*
X48194942Y-85783910D01*
X48435974Y-85836343D01*
X48679660Y-85853772D01*
X48699999Y-85855227D01*
X48700000Y-85855227D01*
X48700001Y-85855227D01*
X48718885Y-85853876D01*
X48964026Y-85836343D01*
X49222678Y-85780077D01*
X49470689Y-85687574D01*
X49703011Y-85560716D01*
X49813155Y-85478263D01*
X49895690Y-85416479D01*
X49961154Y-85392062D01*
X50029427Y-85406914D01*
X50044310Y-85416479D01*
X50236986Y-85560714D01*
X50236994Y-85560719D01*
X50469305Y-85687571D01*
X50469309Y-85687573D01*
X50469311Y-85687574D01*
X50717322Y-85780077D01*
X50717325Y-85780077D01*
X50717326Y-85780078D01*
X50734942Y-85783910D01*
X50975974Y-85836343D01*
X51219660Y-85853772D01*
X51239999Y-85855227D01*
X51240000Y-85855227D01*
X51240001Y-85855227D01*
X51258885Y-85853876D01*
X51504026Y-85836343D01*
X51762678Y-85780077D01*
X52010689Y-85687574D01*
X52243011Y-85560716D01*
X52353155Y-85478263D01*
X52435690Y-85416479D01*
X52501154Y-85392062D01*
X52569427Y-85406914D01*
X52584310Y-85416479D01*
X52776986Y-85560714D01*
X52776994Y-85560719D01*
X53009305Y-85687571D01*
X53009309Y-85687573D01*
X53009311Y-85687574D01*
X53257322Y-85780077D01*
X53257325Y-85780077D01*
X53257326Y-85780078D01*
X53274942Y-85783910D01*
X53515974Y-85836343D01*
X53759660Y-85853772D01*
X53779999Y-85855227D01*
X53780000Y-85855227D01*
X53780001Y-85855227D01*
X53798885Y-85853876D01*
X54044026Y-85836343D01*
X54302678Y-85780077D01*
X54550689Y-85687574D01*
X54783011Y-85560716D01*
X54893155Y-85478263D01*
X54975690Y-85416479D01*
X55041154Y-85392062D01*
X55109427Y-85406914D01*
X55124310Y-85416479D01*
X55316986Y-85560714D01*
X55316994Y-85560719D01*
X55549305Y-85687571D01*
X55549309Y-85687573D01*
X55549311Y-85687574D01*
X55797322Y-85780077D01*
X55797325Y-85780077D01*
X55797326Y-85780078D01*
X55814942Y-85783910D01*
X56055974Y-85836343D01*
X56299660Y-85853772D01*
X56319999Y-85855227D01*
X56320000Y-85855227D01*
X56320001Y-85855227D01*
X56338885Y-85853876D01*
X56584026Y-85836343D01*
X56842678Y-85780077D01*
X57090689Y-85687574D01*
X57323011Y-85560716D01*
X57433155Y-85478263D01*
X57515690Y-85416479D01*
X57581154Y-85392062D01*
X57649427Y-85406914D01*
X57664310Y-85416479D01*
X57856986Y-85560714D01*
X57856994Y-85560719D01*
X58089305Y-85687571D01*
X58089309Y-85687573D01*
X58089311Y-85687574D01*
X58337322Y-85780077D01*
X58337325Y-85780077D01*
X58337326Y-85780078D01*
X58354942Y-85783910D01*
X58595974Y-85836343D01*
X58839660Y-85853772D01*
X58859999Y-85855227D01*
X58860000Y-85855227D01*
X58860001Y-85855227D01*
X58878885Y-85853876D01*
X59124026Y-85836343D01*
X59382678Y-85780077D01*
X59630689Y-85687574D01*
X59863011Y-85560716D01*
X59973155Y-85478263D01*
X60055690Y-85416479D01*
X60121154Y-85392062D01*
X60189427Y-85406914D01*
X60204310Y-85416479D01*
X60396986Y-85560714D01*
X60396994Y-85560719D01*
X60629305Y-85687571D01*
X60629309Y-85687573D01*
X60629311Y-85687574D01*
X60877322Y-85780077D01*
X60877325Y-85780077D01*
X60877326Y-85780078D01*
X60894942Y-85783910D01*
X61135974Y-85836343D01*
X61379660Y-85853772D01*
X61399999Y-85855227D01*
X61400000Y-85855227D01*
X61400001Y-85855227D01*
X61418885Y-85853876D01*
X61664026Y-85836343D01*
X61922678Y-85780077D01*
X62170689Y-85687574D01*
X62403011Y-85560716D01*
X62513155Y-85478263D01*
X62595690Y-85416479D01*
X62661154Y-85392062D01*
X62729427Y-85406914D01*
X62744310Y-85416479D01*
X62936986Y-85560714D01*
X62936994Y-85560719D01*
X63169305Y-85687571D01*
X63169309Y-85687573D01*
X63169311Y-85687574D01*
X63417322Y-85780077D01*
X63417325Y-85780077D01*
X63417326Y-85780078D01*
X63434942Y-85783910D01*
X63675974Y-85836343D01*
X63919660Y-85853772D01*
X63939999Y-85855227D01*
X63940000Y-85855227D01*
X63940001Y-85855227D01*
X63958885Y-85853876D01*
X64204026Y-85836343D01*
X64462678Y-85780077D01*
X64710689Y-85687574D01*
X64943011Y-85560716D01*
X65053155Y-85478263D01*
X65135690Y-85416479D01*
X65201154Y-85392062D01*
X65269427Y-85406914D01*
X65284310Y-85416479D01*
X65476986Y-85560714D01*
X65476994Y-85560719D01*
X65709305Y-85687571D01*
X65709309Y-85687573D01*
X65709311Y-85687574D01*
X65957322Y-85780077D01*
X65957325Y-85780077D01*
X65957326Y-85780078D01*
X65974942Y-85783910D01*
X66215974Y-85836343D01*
X66459660Y-85853772D01*
X66479999Y-85855227D01*
X66480000Y-85855227D01*
X66480001Y-85855227D01*
X66498885Y-85853876D01*
X66744026Y-85836343D01*
X67002678Y-85780077D01*
X67250689Y-85687574D01*
X67483011Y-85560716D01*
X67694915Y-85402087D01*
X67882087Y-85214915D01*
X68040716Y-85003011D01*
X68167574Y-84770689D01*
X68260077Y-84522678D01*
X68316343Y-84264026D01*
X68335227Y-84000000D01*
X68316343Y-83735974D01*
X68260077Y-83477322D01*
X68167574Y-83229311D01*
X68167571Y-83229305D01*
X68142793Y-83183927D01*
X68127941Y-83115654D01*
X68152358Y-83050190D01*
X68208291Y-83008318D01*
X68251625Y-83000500D01*
X69788375Y-83000500D01*
X69855414Y-83020185D01*
X69901169Y-83072989D01*
X69911113Y-83142147D01*
X69897207Y-83183927D01*
X69872428Y-83229305D01*
X69872426Y-83229309D01*
X69779921Y-83477326D01*
X69723658Y-83735965D01*
X69723657Y-83735972D01*
X69704773Y-83999998D01*
X69704773Y-84000001D01*
X69723657Y-84264027D01*
X69723658Y-84264034D01*
X69779921Y-84522673D01*
X69872426Y-84770690D01*
X69872428Y-84770694D01*
X69999280Y-85003005D01*
X69999285Y-85003013D01*
X70157906Y-85214907D01*
X70157922Y-85214925D01*
X70345074Y-85402077D01*
X70345092Y-85402093D01*
X70556986Y-85560714D01*
X70556994Y-85560719D01*
X70789305Y-85687571D01*
X70789309Y-85687573D01*
X70789311Y-85687574D01*
X71037322Y-85780077D01*
X71037325Y-85780077D01*
X71037326Y-85780078D01*
X71054942Y-85783910D01*
X71295974Y-85836343D01*
X71539660Y-85853772D01*
X71559999Y-85855227D01*
X71560000Y-85855227D01*
X71560001Y-85855227D01*
X71578885Y-85853876D01*
X71824026Y-85836343D01*
X72082678Y-85780077D01*
X72330689Y-85687574D01*
X72563011Y-85560716D01*
X72774915Y-85402087D01*
X72962087Y-85214915D01*
X73120716Y-85003011D01*
X73247574Y-84770689D01*
X73340077Y-84522678D01*
X73396343Y-84264026D01*
X73415227Y-84000000D01*
X73396343Y-83735974D01*
X73340077Y-83477322D01*
X73247574Y-83229311D01*
X73247571Y-83229305D01*
X73222793Y-83183927D01*
X73207941Y-83115654D01*
X73232358Y-83050190D01*
X73288291Y-83008318D01*
X73331625Y-83000500D01*
X74665500Y-83000500D01*
X74732539Y-83020185D01*
X74778294Y-83072989D01*
X74789500Y-83124500D01*
X74789500Y-84908028D01*
X74789501Y-84908034D01*
X74800113Y-85027415D01*
X74856089Y-85223045D01*
X74856090Y-85223048D01*
X74856091Y-85223049D01*
X74950302Y-85403407D01*
X74950304Y-85403409D01*
X75078890Y-85561109D01*
X75172803Y-85637684D01*
X75236593Y-85689698D01*
X75416951Y-85783909D01*
X75612582Y-85839886D01*
X75731963Y-85850500D01*
X77548036Y-85850499D01*
X77667418Y-85839886D01*
X77863049Y-85783909D01*
X78043407Y-85689698D01*
X78201109Y-85561109D01*
X78329698Y-85403407D01*
X78423909Y-85223049D01*
X78479886Y-85027418D01*
X78490500Y-84908037D01*
X78490499Y-83124499D01*
X78510184Y-83057461D01*
X78562987Y-83011706D01*
X78614499Y-83000500D01*
X88731274Y-83000500D01*
X88798313Y-83020185D01*
X88818955Y-83036819D01*
X94263181Y-88481045D01*
X94296666Y-88542368D01*
X94299500Y-88568726D01*
X94299500Y-88727218D01*
X94279815Y-88794257D01*
X94273882Y-88802695D01*
X94217697Y-88875916D01*
X94133072Y-88986201D01*
X94001958Y-89213299D01*
X94001953Y-89213309D01*
X93901605Y-89455571D01*
X93901602Y-89455581D01*
X93833730Y-89708885D01*
X93799500Y-89968872D01*
X93799500Y-93031127D01*
X93826123Y-93233339D01*
X93833730Y-93291116D01*
X93901602Y-93544418D01*
X93901605Y-93544428D01*
X94001953Y-93786690D01*
X94001958Y-93786700D01*
X94133075Y-94013803D01*
X94292718Y-94221851D01*
X94292726Y-94221860D01*
X94478140Y-94407274D01*
X94478148Y-94407281D01*
X94686196Y-94566924D01*
X94913299Y-94698041D01*
X94913309Y-94698046D01*
X95155571Y-94798394D01*
X95155581Y-94798398D01*
X95408884Y-94866270D01*
X95668880Y-94900500D01*
X95668887Y-94900500D01*
X95931113Y-94900500D01*
X95931120Y-94900500D01*
X96191116Y-94866270D01*
X96444419Y-94798398D01*
X96686697Y-94698043D01*
X96913803Y-94566924D01*
X97121851Y-94407282D01*
X97121855Y-94407277D01*
X97121860Y-94407274D01*
X97307274Y-94221860D01*
X97307277Y-94221855D01*
X97307282Y-94221851D01*
X97466924Y-94013803D01*
X97598043Y-93786697D01*
X97698398Y-93544419D01*
X97766270Y-93291116D01*
X97800500Y-93031120D01*
X97800500Y-89968880D01*
X97766270Y-89708884D01*
X97698398Y-89455581D01*
X97698394Y-89455571D01*
X97598046Y-89213309D01*
X97598041Y-89213299D01*
X97466927Y-88986201D01*
X97451633Y-88966270D01*
X97326123Y-88802703D01*
X97300930Y-88737536D01*
X97300500Y-88727218D01*
X97300500Y-87777739D01*
X97263553Y-87544472D01*
X97263553Y-87544471D01*
X97263553Y-87544469D01*
X97213725Y-87391116D01*
X97190568Y-87319844D01*
X97083343Y-87109403D01*
X96944517Y-86918327D01*
X91392211Y-81366021D01*
X91358726Y-81304698D01*
X91363710Y-81235006D01*
X91405582Y-81179073D01*
X91406887Y-81178109D01*
X91453124Y-81144517D01*
X91976353Y-80621288D01*
X95649500Y-80621288D01*
X95681161Y-80861785D01*
X95743947Y-81096104D01*
X95813227Y-81263360D01*
X95836776Y-81320212D01*
X95958064Y-81530289D01*
X95958066Y-81530292D01*
X95958067Y-81530293D01*
X96105733Y-81722736D01*
X96105739Y-81722743D01*
X96277256Y-81894260D01*
X96277262Y-81894265D01*
X96469711Y-82041936D01*
X96679788Y-82163224D01*
X96903900Y-82256054D01*
X97138211Y-82318838D01*
X97318586Y-82342584D01*
X97378711Y-82350500D01*
X97378712Y-82350500D01*
X97621289Y-82350500D01*
X97669388Y-82344167D01*
X97861789Y-82318838D01*
X98096100Y-82256054D01*
X98320212Y-82163224D01*
X98530289Y-82041936D01*
X98722738Y-81894265D01*
X98894265Y-81722738D01*
X99041936Y-81530289D01*
X99163224Y-81320212D01*
X99256054Y-81096100D01*
X99318838Y-80861789D01*
X99350500Y-80621288D01*
X99350500Y-80378712D01*
X99318838Y-80138211D01*
X99256054Y-79903900D01*
X99163224Y-79679788D01*
X99041936Y-79469711D01*
X98894265Y-79277262D01*
X98894260Y-79277256D01*
X98722743Y-79105739D01*
X98722736Y-79105733D01*
X98530293Y-78958067D01*
X98530292Y-78958066D01*
X98530289Y-78958064D01*
X98320212Y-78836776D01*
X98320205Y-78836773D01*
X98096104Y-78743947D01*
X97861785Y-78681161D01*
X97621289Y-78649500D01*
X97621288Y-78649500D01*
X97378712Y-78649500D01*
X97378711Y-78649500D01*
X97138214Y-78681161D01*
X96903895Y-78743947D01*
X96679794Y-78836773D01*
X96679785Y-78836777D01*
X96469706Y-78958067D01*
X96277263Y-79105733D01*
X96277256Y-79105739D01*
X96105739Y-79277256D01*
X96105733Y-79277263D01*
X95958067Y-79469706D01*
X95836777Y-79679785D01*
X95836773Y-79679794D01*
X95743947Y-79903895D01*
X95681161Y-80138214D01*
X95649500Y-80378711D01*
X95649500Y-80621288D01*
X91976353Y-80621288D01*
X98844518Y-73753124D01*
X98983343Y-73562047D01*
X99090568Y-73351606D01*
X99163553Y-73126982D01*
X99200500Y-72893711D01*
X99200500Y-67281902D01*
X99163553Y-67048631D01*
X99090566Y-66824003D01*
X99051666Y-66747659D01*
X98983343Y-66613567D01*
X98932825Y-66544034D01*
X98844523Y-66422496D01*
X98844519Y-66422491D01*
X97836819Y-65414791D01*
X97803334Y-65353468D01*
X97800500Y-65327110D01*
X97800500Y-63968886D01*
X97800499Y-63968872D01*
X97798960Y-63957188D01*
X97766270Y-63708884D01*
X97698398Y-63455581D01*
X97698394Y-63455571D01*
X97598046Y-63213309D01*
X97598041Y-63213299D01*
X97466924Y-62986196D01*
X97344424Y-62826554D01*
X97307282Y-62778149D01*
X97307281Y-62778148D01*
X97307274Y-62778140D01*
X97121860Y-62592726D01*
X97121851Y-62592718D01*
X96913803Y-62433075D01*
X96686700Y-62301958D01*
X96686690Y-62301953D01*
X96444428Y-62201605D01*
X96444421Y-62201603D01*
X96444419Y-62201602D01*
X96191116Y-62133730D01*
X96133339Y-62126123D01*
X95931127Y-62099500D01*
X95931120Y-62099500D01*
X95668880Y-62099500D01*
X95668872Y-62099500D01*
X95437772Y-62129926D01*
X95408884Y-62133730D01*
X95155581Y-62201602D01*
X95155571Y-62201605D01*
X94913309Y-62301953D01*
X94913299Y-62301958D01*
X94686196Y-62433075D01*
X94478148Y-62592718D01*
X94292718Y-62778148D01*
X94133075Y-62986196D01*
X94001958Y-63213299D01*
X94001953Y-63213309D01*
X93901605Y-63455571D01*
X93901602Y-63455581D01*
X93850438Y-63646531D01*
X93833730Y-63708885D01*
X93799500Y-63968872D01*
X93799500Y-67031127D01*
X93826123Y-67233339D01*
X93833730Y-67291116D01*
X93901602Y-67544418D01*
X93901605Y-67544428D01*
X94001953Y-67786690D01*
X94001958Y-67786700D01*
X94133075Y-68013803D01*
X94292718Y-68221851D01*
X94292726Y-68221860D01*
X94478140Y-68407274D01*
X94478148Y-68407281D01*
X94686196Y-68566924D01*
X94913299Y-68698041D01*
X94913309Y-68698046D01*
X95155571Y-68798394D01*
X95155581Y-68798398D01*
X95408884Y-68866270D01*
X95668880Y-68900500D01*
X95668887Y-68900500D01*
X95931113Y-68900500D01*
X95931120Y-68900500D01*
X96059315Y-68883622D01*
X96128349Y-68894387D01*
X96180605Y-68940767D01*
X96199500Y-69006561D01*
X96199500Y-72102724D01*
X96179815Y-72169763D01*
X96163181Y-72190405D01*
X89890406Y-78463181D01*
X89829083Y-78496666D01*
X89802725Y-78499500D01*
X78421889Y-78499500D01*
X78354850Y-78479815D01*
X78309095Y-78427011D01*
X78299151Y-78357853D01*
X78328176Y-78294297D01*
X78334208Y-78287819D01*
X79918001Y-76704026D01*
X81644517Y-74977510D01*
X81783343Y-74786434D01*
X81890568Y-74575992D01*
X81963553Y-74351368D01*
X81990056Y-74184034D01*
X82000500Y-74118097D01*
X82000500Y-70131127D01*
X87699500Y-70131127D01*
X87726123Y-70333339D01*
X87733730Y-70391116D01*
X87792195Y-70609311D01*
X87801602Y-70644418D01*
X87801605Y-70644428D01*
X87901953Y-70886690D01*
X87901958Y-70886700D01*
X88033075Y-71113803D01*
X88192718Y-71321851D01*
X88192726Y-71321860D01*
X88378140Y-71507274D01*
X88378148Y-71507281D01*
X88586196Y-71666924D01*
X88813299Y-71798041D01*
X88813309Y-71798046D01*
X89055571Y-71898394D01*
X89055581Y-71898398D01*
X89308884Y-71966270D01*
X89568880Y-72000500D01*
X89568887Y-72000500D01*
X92631113Y-72000500D01*
X92631120Y-72000500D01*
X92891116Y-71966270D01*
X93144419Y-71898398D01*
X93386697Y-71798043D01*
X93613803Y-71666924D01*
X93821851Y-71507282D01*
X93821855Y-71507277D01*
X93821860Y-71507274D01*
X94007274Y-71321860D01*
X94007277Y-71321855D01*
X94007282Y-71321851D01*
X94166924Y-71113803D01*
X94298043Y-70886697D01*
X94398398Y-70644419D01*
X94466270Y-70391116D01*
X94500500Y-70131120D01*
X94500500Y-69868880D01*
X94466270Y-69608884D01*
X94398398Y-69355581D01*
X94398394Y-69355571D01*
X94298046Y-69113309D01*
X94298041Y-69113299D01*
X94166924Y-68886196D01*
X94044424Y-68726554D01*
X94007282Y-68678149D01*
X94007281Y-68678148D01*
X94007274Y-68678140D01*
X93821860Y-68492726D01*
X93821851Y-68492718D01*
X93613803Y-68333075D01*
X93386700Y-68201958D01*
X93386690Y-68201953D01*
X93144428Y-68101605D01*
X93144421Y-68101603D01*
X93144419Y-68101602D01*
X92891116Y-68033730D01*
X92833339Y-68026123D01*
X92631127Y-67999500D01*
X92631120Y-67999500D01*
X89568880Y-67999500D01*
X89568872Y-67999500D01*
X89337772Y-68029926D01*
X89308884Y-68033730D01*
X89055581Y-68101602D01*
X89055571Y-68101605D01*
X88813309Y-68201953D01*
X88813299Y-68201958D01*
X88586196Y-68333075D01*
X88378148Y-68492718D01*
X88192718Y-68678148D01*
X88033075Y-68886196D01*
X87901958Y-69113299D01*
X87901953Y-69113309D01*
X87801605Y-69355571D01*
X87801602Y-69355581D01*
X87738606Y-69590689D01*
X87733730Y-69608885D01*
X87699500Y-69868872D01*
X87699500Y-70131127D01*
X82000500Y-70131127D01*
X82000500Y-67031127D01*
X83799500Y-67031127D01*
X83826123Y-67233339D01*
X83833730Y-67291116D01*
X83901602Y-67544418D01*
X83901605Y-67544428D01*
X84001953Y-67786690D01*
X84001958Y-67786700D01*
X84133075Y-68013803D01*
X84292718Y-68221851D01*
X84292726Y-68221860D01*
X84478140Y-68407274D01*
X84478148Y-68407281D01*
X84686196Y-68566924D01*
X84913299Y-68698041D01*
X84913309Y-68698046D01*
X85155571Y-68798394D01*
X85155581Y-68798398D01*
X85408884Y-68866270D01*
X85668880Y-68900500D01*
X85668887Y-68900500D01*
X85931113Y-68900500D01*
X85931120Y-68900500D01*
X86191116Y-68866270D01*
X86444419Y-68798398D01*
X86686697Y-68698043D01*
X86913803Y-68566924D01*
X87121851Y-68407282D01*
X87121855Y-68407277D01*
X87121860Y-68407274D01*
X87307274Y-68221860D01*
X87307277Y-68221855D01*
X87307282Y-68221851D01*
X87466924Y-68013803D01*
X87598043Y-67786697D01*
X87698398Y-67544419D01*
X87766270Y-67291116D01*
X87800500Y-67031120D01*
X87800500Y-63968880D01*
X87766270Y-63708884D01*
X87698398Y-63455581D01*
X87698394Y-63455571D01*
X87598046Y-63213309D01*
X87598041Y-63213299D01*
X87466924Y-62986196D01*
X87344424Y-62826554D01*
X87307282Y-62778149D01*
X87307281Y-62778148D01*
X87307274Y-62778140D01*
X87121860Y-62592726D01*
X87121851Y-62592718D01*
X86913803Y-62433075D01*
X86686700Y-62301958D01*
X86686690Y-62301953D01*
X86444428Y-62201605D01*
X86444421Y-62201603D01*
X86444419Y-62201602D01*
X86191116Y-62133730D01*
X86133339Y-62126123D01*
X85931127Y-62099500D01*
X85931120Y-62099500D01*
X85668880Y-62099500D01*
X85668872Y-62099500D01*
X85437772Y-62129926D01*
X85408884Y-62133730D01*
X85155581Y-62201602D01*
X85155571Y-62201605D01*
X84913309Y-62301953D01*
X84913299Y-62301958D01*
X84686196Y-62433075D01*
X84478148Y-62592718D01*
X84292718Y-62778148D01*
X84133075Y-62986196D01*
X84001958Y-63213299D01*
X84001953Y-63213309D01*
X83901605Y-63455571D01*
X83901602Y-63455581D01*
X83850438Y-63646531D01*
X83833730Y-63708885D01*
X83799500Y-63968872D01*
X83799500Y-67031127D01*
X82000500Y-67031127D01*
X82000500Y-60672889D01*
X82020185Y-60605850D01*
X82036819Y-60585208D01*
X89564705Y-53057322D01*
X90500739Y-52121288D01*
X95649500Y-52121288D01*
X95678141Y-52338846D01*
X95681162Y-52361789D01*
X95682274Y-52365938D01*
X95743947Y-52596104D01*
X95830895Y-52806014D01*
X95836776Y-52820212D01*
X95958064Y-53030289D01*
X95958066Y-53030292D01*
X95958067Y-53030293D01*
X96105733Y-53222736D01*
X96105739Y-53222743D01*
X96277256Y-53394260D01*
X96277262Y-53394265D01*
X96469711Y-53541936D01*
X96679788Y-53663224D01*
X96903900Y-53756054D01*
X97138211Y-53818838D01*
X97318586Y-53842584D01*
X97378711Y-53850500D01*
X97378712Y-53850500D01*
X97621289Y-53850500D01*
X97670464Y-53844026D01*
X97861789Y-53818838D01*
X98096100Y-53756054D01*
X98320212Y-53663224D01*
X98530289Y-53541936D01*
X98722738Y-53394265D01*
X98894265Y-53222738D01*
X99041936Y-53030289D01*
X99163224Y-52820212D01*
X99256054Y-52596100D01*
X99318838Y-52361789D01*
X99350500Y-52121288D01*
X99350500Y-51878712D01*
X99318838Y-51638211D01*
X99256054Y-51403900D01*
X99163224Y-51179788D01*
X99041936Y-50969711D01*
X98894265Y-50777262D01*
X98894260Y-50777256D01*
X98722743Y-50605739D01*
X98722736Y-50605733D01*
X98530293Y-50458067D01*
X98530292Y-50458066D01*
X98530289Y-50458064D01*
X98320212Y-50336776D01*
X98320205Y-50336773D01*
X98096104Y-50243947D01*
X97861785Y-50181161D01*
X97621289Y-50149500D01*
X97621288Y-50149500D01*
X97378712Y-50149500D01*
X97378711Y-50149500D01*
X97138214Y-50181161D01*
X96903895Y-50243947D01*
X96679794Y-50336773D01*
X96679785Y-50336777D01*
X96469706Y-50458067D01*
X96277263Y-50605733D01*
X96277256Y-50605739D01*
X96105739Y-50777256D01*
X96105733Y-50777263D01*
X95958067Y-50969706D01*
X95836777Y-51179785D01*
X95836773Y-51179794D01*
X95743947Y-51403895D01*
X95681161Y-51638214D01*
X95649500Y-51878711D01*
X95649500Y-52121288D01*
X90500739Y-52121288D01*
X97144517Y-45477510D01*
X97283343Y-45286434D01*
X97390568Y-45075992D01*
X97415027Y-45000716D01*
X97463553Y-44851368D01*
X97479699Y-44749427D01*
X97500500Y-44618097D01*
X97500500Y-41988872D01*
X97517113Y-41926872D01*
X97530889Y-41903011D01*
X97598043Y-41786697D01*
X97698398Y-41544419D01*
X97766270Y-41291116D01*
X97800500Y-41031120D01*
X97800500Y-37968880D01*
X97766270Y-37708884D01*
X97698398Y-37455581D01*
X97649276Y-37336989D01*
X97598046Y-37213309D01*
X97598041Y-37213299D01*
X97466924Y-36986196D01*
X97326355Y-36803005D01*
X97307282Y-36778149D01*
X97307281Y-36778148D01*
X97307274Y-36778140D01*
X97121860Y-36592726D01*
X97121851Y-36592718D01*
X96913803Y-36433075D01*
X96686700Y-36301958D01*
X96686690Y-36301953D01*
X96444428Y-36201605D01*
X96444421Y-36201603D01*
X96444419Y-36201602D01*
X96191116Y-36133730D01*
X96133339Y-36126123D01*
X95931127Y-36099500D01*
X95931120Y-36099500D01*
X95668880Y-36099500D01*
X95668872Y-36099500D01*
X95437772Y-36129926D01*
X95408884Y-36133730D01*
X95198791Y-36190024D01*
X95155581Y-36201602D01*
X95155571Y-36201605D01*
X94913309Y-36301953D01*
X94913299Y-36301958D01*
X94686196Y-36433075D01*
X94478148Y-36592718D01*
X94292718Y-36778148D01*
X94133075Y-36986196D01*
X94001958Y-37213299D01*
X94001953Y-37213309D01*
X93901605Y-37455571D01*
X93901602Y-37455581D01*
X93833730Y-37708885D01*
X93799500Y-37968872D01*
X93799500Y-41031127D01*
X93816998Y-41164026D01*
X93833730Y-41291116D01*
X93868982Y-41422678D01*
X93901602Y-41544418D01*
X93901605Y-41544428D01*
X94001953Y-41786690D01*
X94001958Y-41786700D01*
X94133075Y-42013803D01*
X94292718Y-42221851D01*
X94292726Y-42221860D01*
X94463181Y-42392315D01*
X94496666Y-42453638D01*
X94499500Y-42479996D01*
X94499500Y-42999462D01*
X94479815Y-43066501D01*
X94427011Y-43112256D01*
X94357853Y-43122200D01*
X94294297Y-43093175D01*
X94268113Y-43061462D01*
X94166924Y-42886196D01*
X94044424Y-42726554D01*
X94007282Y-42678149D01*
X94007281Y-42678148D01*
X94007274Y-42678140D01*
X93821860Y-42492726D01*
X93821851Y-42492718D01*
X93613803Y-42333075D01*
X93386700Y-42201958D01*
X93386690Y-42201953D01*
X93144428Y-42101605D01*
X93144421Y-42101603D01*
X93144419Y-42101602D01*
X92891116Y-42033730D01*
X92833339Y-42026123D01*
X92631127Y-41999500D01*
X92631120Y-41999500D01*
X89568880Y-41999500D01*
X89568872Y-41999500D01*
X89337772Y-42029926D01*
X89308884Y-42033730D01*
X89096742Y-42090573D01*
X89055581Y-42101602D01*
X89055571Y-42101605D01*
X88813309Y-42201953D01*
X88813299Y-42201958D01*
X88586196Y-42333075D01*
X88378148Y-42492718D01*
X88192718Y-42678148D01*
X88033075Y-42886196D01*
X87901958Y-43113299D01*
X87901953Y-43113309D01*
X87801605Y-43355571D01*
X87801602Y-43355581D01*
X87733730Y-43608885D01*
X87699500Y-43868872D01*
X87699500Y-44131127D01*
X87709976Y-44210694D01*
X87733730Y-44391116D01*
X87799263Y-44635690D01*
X87801602Y-44644418D01*
X87801605Y-44644428D01*
X87901953Y-44886690D01*
X87901958Y-44886700D01*
X88033075Y-45113803D01*
X88192718Y-45321851D01*
X88192726Y-45321860D01*
X88378140Y-45507274D01*
X88378148Y-45507281D01*
X88586196Y-45666924D01*
X88813299Y-45798041D01*
X88813309Y-45798046D01*
X89055571Y-45898394D01*
X89055581Y-45898398D01*
X89308884Y-45966270D01*
X89568880Y-46000500D01*
X92078111Y-46000500D01*
X92145150Y-46020185D01*
X92190905Y-46072989D01*
X92200849Y-46142147D01*
X92171824Y-46205703D01*
X92165792Y-46212181D01*
X79355485Y-59022487D01*
X79355484Y-59022488D01*
X79216657Y-59213565D01*
X79195040Y-59255992D01*
X79109433Y-59424003D01*
X79036446Y-59648631D01*
X78999500Y-59881902D01*
X78999500Y-73327111D01*
X78979815Y-73394150D01*
X78963181Y-73414792D01*
X75414792Y-76963181D01*
X75353469Y-76996666D01*
X75327111Y-76999500D01*
X74680292Y-76999500D01*
X74613253Y-76979815D01*
X74567498Y-76927011D01*
X74557554Y-76857853D01*
X74559126Y-76849142D01*
X74583222Y-76738374D01*
X74586343Y-76724026D01*
X74605227Y-76460000D01*
X74586343Y-76195974D01*
X74530077Y-75937322D01*
X74437574Y-75689311D01*
X74313032Y-75461231D01*
X74310719Y-75456994D01*
X74310714Y-75456986D01*
X74166479Y-75264310D01*
X74142062Y-75198846D01*
X74156914Y-75130573D01*
X74166479Y-75115690D01*
X74228463Y-75032889D01*
X74310716Y-74923011D01*
X74437574Y-74690689D01*
X74530077Y-74442678D01*
X74586343Y-74184026D01*
X74605227Y-73920000D01*
X74586343Y-73655974D01*
X74530077Y-73397322D01*
X74437574Y-73149311D01*
X74425381Y-73126982D01*
X74310719Y-72916994D01*
X74310714Y-72916986D01*
X74166479Y-72724310D01*
X74142062Y-72658846D01*
X74156914Y-72590573D01*
X74166479Y-72575690D01*
X74302377Y-72394150D01*
X74310716Y-72383011D01*
X74437574Y-72150689D01*
X74530077Y-71902678D01*
X74586343Y-71644026D01*
X74605227Y-71380000D01*
X74586343Y-71115974D01*
X74530077Y-70857322D01*
X74437574Y-70609311D01*
X74310716Y-70376989D01*
X74189812Y-70215480D01*
X74166479Y-70184310D01*
X74142062Y-70118846D01*
X74156914Y-70050573D01*
X74166479Y-70035690D01*
X74291346Y-69868886D01*
X74310716Y-69843011D01*
X74437574Y-69610689D01*
X74530077Y-69362678D01*
X74586343Y-69104026D01*
X74605227Y-68840000D01*
X74586343Y-68575974D01*
X74568232Y-68492718D01*
X74530078Y-68317326D01*
X74522618Y-68297326D01*
X74437574Y-68069311D01*
X74310716Y-67836989D01*
X74166479Y-67644310D01*
X74142062Y-67578846D01*
X74156914Y-67510573D01*
X74166479Y-67495690D01*
X74228263Y-67413155D01*
X74310716Y-67303011D01*
X74437574Y-67070689D01*
X74530077Y-66822678D01*
X74586343Y-66564026D01*
X74605227Y-66300000D01*
X74586343Y-66035974D01*
X74530077Y-65777322D01*
X74437574Y-65529311D01*
X74355209Y-65378472D01*
X74310719Y-65296994D01*
X74310714Y-65296986D01*
X74166479Y-65104310D01*
X74142062Y-65038846D01*
X74156914Y-64970573D01*
X74166479Y-64955690D01*
X74228263Y-64873155D01*
X74310716Y-64763011D01*
X74437574Y-64530689D01*
X74530077Y-64282678D01*
X74586343Y-64024026D01*
X74605227Y-63760000D01*
X74586343Y-63495974D01*
X74530077Y-63237322D01*
X74437574Y-62989311D01*
X74387929Y-62898394D01*
X74310719Y-62756994D01*
X74310714Y-62756986D01*
X74166479Y-62564310D01*
X74142062Y-62498846D01*
X74156914Y-62430573D01*
X74166479Y-62415690D01*
X74265553Y-62283342D01*
X74310716Y-62223011D01*
X74437574Y-61990689D01*
X74530077Y-61742678D01*
X74586343Y-61484026D01*
X74605227Y-61220000D01*
X74586343Y-60955974D01*
X74530077Y-60697322D01*
X74437574Y-60449311D01*
X74386393Y-60355581D01*
X74310719Y-60216994D01*
X74310714Y-60216986D01*
X74166479Y-60024310D01*
X74142062Y-59958846D01*
X74156914Y-59890573D01*
X74166479Y-59875690D01*
X74228263Y-59793155D01*
X74310716Y-59683011D01*
X74437574Y-59450689D01*
X74530077Y-59202678D01*
X74586343Y-58944026D01*
X74605227Y-58680000D01*
X74586343Y-58415974D01*
X74572546Y-58352552D01*
X74530078Y-58157326D01*
X74522618Y-58137326D01*
X74437574Y-57909311D01*
X74350856Y-57750500D01*
X74310719Y-57676994D01*
X74310714Y-57676986D01*
X74166479Y-57484310D01*
X74142062Y-57418846D01*
X74156914Y-57350573D01*
X74166479Y-57335690D01*
X74272560Y-57193981D01*
X74310716Y-57143011D01*
X74437574Y-56910689D01*
X74530077Y-56662678D01*
X74586343Y-56404026D01*
X74605227Y-56140000D01*
X74586343Y-55875974D01*
X74558107Y-55746176D01*
X74530078Y-55617326D01*
X74522618Y-55597326D01*
X74437574Y-55369311D01*
X74366067Y-55238357D01*
X74310719Y-55136994D01*
X74310714Y-55136986D01*
X74166479Y-54944310D01*
X74142062Y-54878846D01*
X74156914Y-54810573D01*
X74166479Y-54795690D01*
X74228263Y-54713155D01*
X74310716Y-54603011D01*
X74437574Y-54370689D01*
X74530077Y-54122678D01*
X74586343Y-53864026D01*
X74605227Y-53600000D01*
X74586343Y-53335974D01*
X74530077Y-53077322D01*
X74437574Y-52829311D01*
X74310716Y-52596989D01*
X74310714Y-52596986D01*
X74166479Y-52404310D01*
X74142062Y-52338846D01*
X74156914Y-52270573D01*
X74166479Y-52255690D01*
X74270874Y-52116234D01*
X74310716Y-52063011D01*
X74437574Y-51830689D01*
X74530077Y-51582678D01*
X74586343Y-51324026D01*
X74605227Y-51060000D01*
X74586343Y-50795974D01*
X74572546Y-50732552D01*
X74530078Y-50537326D01*
X74522618Y-50517326D01*
X74437574Y-50289311D01*
X74437188Y-50288605D01*
X74310719Y-50056994D01*
X74310714Y-50056986D01*
X74166479Y-49864310D01*
X74142062Y-49798846D01*
X74156914Y-49730573D01*
X74166479Y-49715690D01*
X74228263Y-49633155D01*
X74310716Y-49523011D01*
X74437574Y-49290689D01*
X74530077Y-49042678D01*
X74586343Y-48784026D01*
X74605227Y-48520000D01*
X74586343Y-48255974D01*
X74530077Y-47997322D01*
X74437574Y-47749311D01*
X74310716Y-47516989D01*
X74166479Y-47324310D01*
X74142062Y-47258846D01*
X74156914Y-47190573D01*
X74166479Y-47175690D01*
X74228263Y-47093155D01*
X74310716Y-46983011D01*
X74437574Y-46750689D01*
X74530077Y-46502678D01*
X74586343Y-46244026D01*
X74605227Y-45980000D01*
X74586343Y-45715974D01*
X74530077Y-45457322D01*
X74437574Y-45209311D01*
X74385422Y-45113803D01*
X74310719Y-44976994D01*
X74310714Y-44976986D01*
X74166479Y-44784310D01*
X74142062Y-44718846D01*
X74156914Y-44650573D01*
X74166479Y-44635690D01*
X74228263Y-44553155D01*
X74310716Y-44443011D01*
X74437574Y-44210689D01*
X74530077Y-43962678D01*
X74586343Y-43704026D01*
X74605227Y-43440000D01*
X74586343Y-43175974D01*
X74530077Y-42917322D01*
X74437574Y-42669311D01*
X74341146Y-42492718D01*
X74310719Y-42436994D01*
X74310714Y-42436986D01*
X74166479Y-42244310D01*
X74142062Y-42178846D01*
X74156914Y-42110573D01*
X74166479Y-42095690D01*
X74292854Y-41926872D01*
X74310716Y-41903011D01*
X74437574Y-41670689D01*
X74530077Y-41422678D01*
X74586343Y-41164026D01*
X74595848Y-41031127D01*
X83799500Y-41031127D01*
X83816998Y-41164026D01*
X83833730Y-41291116D01*
X83868982Y-41422678D01*
X83901602Y-41544418D01*
X83901605Y-41544428D01*
X84001953Y-41786690D01*
X84001958Y-41786700D01*
X84133075Y-42013803D01*
X84292718Y-42221851D01*
X84292726Y-42221860D01*
X84478140Y-42407274D01*
X84478148Y-42407281D01*
X84478149Y-42407282D01*
X84490806Y-42416994D01*
X84686196Y-42566924D01*
X84913299Y-42698041D01*
X84913309Y-42698046D01*
X85155571Y-42798394D01*
X85155581Y-42798398D01*
X85408884Y-42866270D01*
X85668880Y-42900500D01*
X85668887Y-42900500D01*
X85931113Y-42900500D01*
X85931120Y-42900500D01*
X86191116Y-42866270D01*
X86444419Y-42798398D01*
X86686697Y-42698043D01*
X86913803Y-42566924D01*
X87121851Y-42407282D01*
X87121855Y-42407277D01*
X87121860Y-42407274D01*
X87307274Y-42221860D01*
X87307277Y-42221855D01*
X87307282Y-42221851D01*
X87466924Y-42013803D01*
X87598043Y-41786697D01*
X87698398Y-41544419D01*
X87766270Y-41291116D01*
X87800500Y-41031120D01*
X87800500Y-37968880D01*
X87766270Y-37708884D01*
X87698398Y-37455581D01*
X87649276Y-37336989D01*
X87598046Y-37213309D01*
X87598041Y-37213299D01*
X87466924Y-36986196D01*
X87326355Y-36803005D01*
X87307282Y-36778149D01*
X87307281Y-36778148D01*
X87307274Y-36778140D01*
X87121860Y-36592726D01*
X87121851Y-36592718D01*
X86913803Y-36433075D01*
X86686700Y-36301958D01*
X86686690Y-36301953D01*
X86444428Y-36201605D01*
X86444421Y-36201603D01*
X86444419Y-36201602D01*
X86191116Y-36133730D01*
X86133339Y-36126123D01*
X85931127Y-36099500D01*
X85931120Y-36099500D01*
X85668880Y-36099500D01*
X85668872Y-36099500D01*
X85437772Y-36129926D01*
X85408884Y-36133730D01*
X85198791Y-36190024D01*
X85155581Y-36201602D01*
X85155571Y-36201605D01*
X84913309Y-36301953D01*
X84913299Y-36301958D01*
X84686196Y-36433075D01*
X84478148Y-36592718D01*
X84292718Y-36778148D01*
X84133075Y-36986196D01*
X84001958Y-37213299D01*
X84001953Y-37213309D01*
X83901605Y-37455571D01*
X83901602Y-37455581D01*
X83833730Y-37708885D01*
X83799500Y-37968872D01*
X83799500Y-41031127D01*
X74595848Y-41031127D01*
X74605227Y-40900000D01*
X74586343Y-40635974D01*
X74530077Y-40377322D01*
X74437574Y-40129311D01*
X74310716Y-39896989D01*
X74295742Y-39876986D01*
X74166479Y-39704310D01*
X74142062Y-39638846D01*
X74156914Y-39570573D01*
X74166479Y-39555690D01*
X74228263Y-39473155D01*
X74310716Y-39363011D01*
X74437574Y-39130689D01*
X74530077Y-38882678D01*
X74586343Y-38624026D01*
X74605227Y-38360000D01*
X74586343Y-38095974D01*
X74530077Y-37837322D01*
X74437574Y-37589311D01*
X74310716Y-37356989D01*
X74203159Y-37213309D01*
X74166479Y-37164310D01*
X74142062Y-37098846D01*
X74156914Y-37030573D01*
X74166479Y-37015690D01*
X74235108Y-36924012D01*
X74310716Y-36823011D01*
X74437574Y-36590689D01*
X74530077Y-36342678D01*
X74586343Y-36084026D01*
X74605227Y-35820000D01*
X74586343Y-35555974D01*
X74530077Y-35297322D01*
X74437574Y-35049311D01*
X74339046Y-34868872D01*
X74310719Y-34816994D01*
X74310714Y-34816986D01*
X74166479Y-34624310D01*
X74142062Y-34558846D01*
X74156914Y-34490573D01*
X74166479Y-34475690D01*
X74256398Y-34355571D01*
X74310716Y-34283011D01*
X74437574Y-34050689D01*
X74530077Y-33802678D01*
X74586343Y-33544026D01*
X74605227Y-33280000D01*
X74586343Y-33015974D01*
X74530077Y-32757322D01*
X74437574Y-32509311D01*
X74310716Y-32276989D01*
X74166479Y-32084310D01*
X74142062Y-32018846D01*
X74156914Y-31950573D01*
X74166479Y-31935690D01*
X74228263Y-31853155D01*
X74310716Y-31743011D01*
X74437574Y-31510689D01*
X74530077Y-31262678D01*
X74586343Y-31004026D01*
X74605227Y-30740000D01*
X74586343Y-30475974D01*
X74530077Y-30217322D01*
X74437574Y-29969311D01*
X74435899Y-29966244D01*
X74358717Y-29824896D01*
X74343865Y-29756624D01*
X74368282Y-29691159D01*
X74371426Y-29687134D01*
X74439698Y-29603407D01*
X74533909Y-29423049D01*
X74589886Y-29227418D01*
X74600500Y-29108037D01*
X74600499Y-27291964D01*
X74589886Y-27172582D01*
X74585888Y-27158609D01*
X74586371Y-27088743D01*
X74624551Y-27030228D01*
X74688306Y-27001643D01*
X74705104Y-27000500D01*
X97993578Y-27000500D01*
X97999835Y-27000657D01*
X98384454Y-27020093D01*
X98395175Y-27021103D01*
X98774646Y-27073558D01*
X98785241Y-27075494D01*
X99158766Y-27160685D01*
X99169116Y-27163524D01*
X99533820Y-27280797D01*
X99543913Y-27284533D01*
X99768766Y-27379066D01*
X99897068Y-27433007D01*
X99906805Y-27437608D01*
X100245745Y-27616164D01*
X100255038Y-27621588D01*
X100559556Y-27817523D01*
X100577204Y-27828878D01*
X100585995Y-27835091D01*
X100888954Y-28069546D01*
X100897170Y-28076494D01*
X101178653Y-28336362D01*
X101186241Y-28344004D01*
X101444107Y-28627305D01*
X101451003Y-28635576D01*
X101683316Y-28940183D01*
X101689469Y-28949022D01*
X101894474Y-29272634D01*
X101899837Y-29281973D01*
X102075995Y-29622160D01*
X102080527Y-29631929D01*
X102226503Y-29986116D01*
X102230170Y-29996241D01*
X102344863Y-30361754D01*
X102347638Y-30372160D01*
X102430183Y-30746242D01*
X102432045Y-30756849D01*
X102481824Y-31136695D01*
X102482758Y-31147423D01*
X102499507Y-31532837D01*
X102499624Y-31538221D01*
X102499624Y-31609041D01*
X102499663Y-31609647D01*
X102535032Y-98461726D01*
X102534914Y-98467201D01*
X102518013Y-98854315D01*
X102517070Y-98865091D01*
X102466844Y-99246594D01*
X102464966Y-99257247D01*
X102381678Y-99632936D01*
X102378878Y-99643385D01*
X102263167Y-100010375D01*
X102259467Y-100020541D01*
X102112208Y-100376057D01*
X102107636Y-100385861D01*
X101929958Y-100727177D01*
X101924550Y-100736545D01*
X101717790Y-101061094D01*
X101711585Y-101069955D01*
X101477332Y-101375239D01*
X101470379Y-101383526D01*
X101210413Y-101667230D01*
X101202763Y-101674879D01*
X100919059Y-101934846D01*
X100910772Y-101941800D01*
X100605488Y-102176053D01*
X100596627Y-102182258D01*
X100272078Y-102389018D01*
X100262710Y-102394426D01*
X99921394Y-102572104D01*
X99911590Y-102576676D01*
X99556074Y-102723936D01*
X99545908Y-102727636D01*
X99178921Y-102843346D01*
X99168473Y-102846146D01*
X98792780Y-102929436D01*
X98782126Y-102931314D01*
X98400624Y-102981540D01*
X98389848Y-102982483D01*
X98002795Y-102999382D01*
X97997386Y-102999500D01*
X83065892Y-102999500D01*
X83000000Y-102999500D01*
X82842750Y-102999500D01*
X82529974Y-103032374D01*
X82529970Y-103032374D01*
X82529968Y-103032375D01*
X82222352Y-103097760D01*
X82222350Y-103097761D01*
X81923248Y-103194944D01*
X81635931Y-103322866D01*
X81635924Y-103322869D01*
X81360756Y-103481738D01*
X81360337Y-103481013D01*
X81296813Y-103499999D01*
X81296217Y-103500000D01*
X77281252Y-103500000D01*
X77214213Y-103480315D01*
X77168458Y-103427511D01*
X77158313Y-103359815D01*
X77163178Y-103322866D01*
X77180500Y-103191288D01*
X77180500Y-102948712D01*
X77178116Y-102930607D01*
X77166843Y-102844976D01*
X77148838Y-102708211D01*
X77086054Y-102473900D01*
X76993224Y-102249788D01*
X76871936Y-102039711D01*
X76729986Y-101854718D01*
X76724266Y-101847263D01*
X76724260Y-101847256D01*
X76552743Y-101675739D01*
X76552736Y-101675733D01*
X76360293Y-101528067D01*
X76360292Y-101528066D01*
X76360289Y-101528064D01*
X76163126Y-101414232D01*
X76150214Y-101406777D01*
X76150205Y-101406773D01*
X75926104Y-101313947D01*
X75691785Y-101251161D01*
X75451289Y-101219500D01*
X75451288Y-101219500D01*
X75208712Y-101219500D01*
X75208711Y-101219500D01*
X74968214Y-101251161D01*
X74733895Y-101313947D01*
X74509794Y-101406773D01*
X74509785Y-101406777D01*
X74299706Y-101528067D01*
X74107263Y-101675733D01*
X74107256Y-101675739D01*
X73935739Y-101847256D01*
X73935733Y-101847263D01*
X73788067Y-102039706D01*
X73666777Y-102249785D01*
X73666773Y-102249794D01*
X73573947Y-102473895D01*
X73511161Y-102708214D01*
X73481813Y-102931142D01*
X73479500Y-102948712D01*
X73479500Y-103191288D01*
X73496822Y-103322866D01*
X73501687Y-103359815D01*
X73490921Y-103428850D01*
X73444541Y-103481106D01*
X73378748Y-103500000D01*
X49280282Y-103500000D01*
X49213243Y-103480315D01*
X49167488Y-103427511D01*
X49157343Y-103359815D01*
X49178548Y-103198743D01*
X49178548Y-102956166D01*
X49164223Y-102847354D01*
X49146886Y-102715666D01*
X49084102Y-102481355D01*
X48991272Y-102257243D01*
X48869984Y-102047166D01*
X48809066Y-101967776D01*
X48722314Y-101854718D01*
X48722308Y-101854711D01*
X48550791Y-101683194D01*
X48550784Y-101683188D01*
X48358341Y-101535522D01*
X48358340Y-101535521D01*
X48358337Y-101535519D01*
X48148260Y-101414231D01*
X48148253Y-101414228D01*
X47924152Y-101321402D01*
X47689833Y-101258616D01*
X47449337Y-101226955D01*
X47449336Y-101226955D01*
X47206760Y-101226955D01*
X47206759Y-101226955D01*
X46966262Y-101258616D01*
X46731943Y-101321402D01*
X46507842Y-101414228D01*
X46507833Y-101414232D01*
X46325899Y-101519272D01*
X46310672Y-101528064D01*
X46297754Y-101535522D01*
X46105311Y-101683188D01*
X46105304Y-101683194D01*
X45933787Y-101854711D01*
X45933781Y-101854718D01*
X45786115Y-102047161D01*
X45664825Y-102257240D01*
X45664821Y-102257249D01*
X45571995Y-102481350D01*
X45509209Y-102715669D01*
X45477548Y-102956166D01*
X45477548Y-103198743D01*
X45498753Y-103359815D01*
X45487987Y-103428850D01*
X45441607Y-103481106D01*
X45375814Y-103500000D01*
X41203783Y-103500000D01*
X41139584Y-103481148D01*
X41139244Y-103481738D01*
X41136815Y-103480336D01*
X41136744Y-103480315D01*
X41136441Y-103480120D01*
X40864075Y-103322869D01*
X40864068Y-103322866D01*
X40576759Y-103194947D01*
X40576754Y-103194945D01*
X40576751Y-103194944D01*
X40277649Y-103097761D01*
X40277647Y-103097760D01*
X40012415Y-103041384D01*
X39970026Y-103032374D01*
X39657250Y-102999500D01*
X39657245Y-102999500D01*
X24502706Y-102999500D01*
X24497297Y-102999382D01*
X24113249Y-102982614D01*
X24102473Y-102981671D01*
X23724042Y-102931849D01*
X23713389Y-102929971D01*
X23340727Y-102847354D01*
X23330278Y-102844554D01*
X22966244Y-102729775D01*
X22956078Y-102726075D01*
X22603427Y-102580002D01*
X22593623Y-102575430D01*
X22255057Y-102399183D01*
X22245689Y-102393775D01*
X21923755Y-102188681D01*
X21914894Y-102182476D01*
X21612069Y-101950110D01*
X21603782Y-101943156D01*
X21322364Y-101685284D01*
X21314715Y-101677635D01*
X21056843Y-101396217D01*
X21049889Y-101387930D01*
X20817523Y-101085105D01*
X20811318Y-101076244D01*
X20807311Y-101069955D01*
X20606223Y-100754309D01*
X20600816Y-100744942D01*
X20424569Y-100406376D01*
X20419997Y-100396572D01*
X20273920Y-100043911D01*
X20270224Y-100033755D01*
X20264481Y-100015540D01*
X20155442Y-99669710D01*
X20152648Y-99659284D01*
X20070025Y-99286597D01*
X20068152Y-99275971D01*
X20018326Y-98897506D01*
X20017386Y-98886771D01*
X20000618Y-98502702D01*
X20000500Y-98497293D01*
X20000500Y-96131127D01*
X87699500Y-96131127D01*
X87726123Y-96333339D01*
X87733730Y-96391116D01*
X87801602Y-96644418D01*
X87801605Y-96644428D01*
X87901953Y-96886690D01*
X87901958Y-96886700D01*
X88033075Y-97113803D01*
X88192718Y-97321851D01*
X88192726Y-97321860D01*
X88378140Y-97507274D01*
X88378148Y-97507281D01*
X88586196Y-97666924D01*
X88813299Y-97798041D01*
X88813309Y-97798046D01*
X89055571Y-97898394D01*
X89055581Y-97898398D01*
X89308884Y-97966270D01*
X89568880Y-98000500D01*
X89568887Y-98000500D01*
X92631113Y-98000500D01*
X92631120Y-98000500D01*
X92891116Y-97966270D01*
X93144419Y-97898398D01*
X93386697Y-97798043D01*
X93613803Y-97666924D01*
X93821851Y-97507282D01*
X93821855Y-97507277D01*
X93821860Y-97507274D01*
X94007274Y-97321860D01*
X94007277Y-97321855D01*
X94007282Y-97321851D01*
X94166924Y-97113803D01*
X94298043Y-96886697D01*
X94398398Y-96644419D01*
X94466270Y-96391116D01*
X94500500Y-96131120D01*
X94500500Y-95868880D01*
X94466270Y-95608884D01*
X94398398Y-95355581D01*
X94398394Y-95355571D01*
X94298046Y-95113309D01*
X94298041Y-95113299D01*
X94166924Y-94886196D01*
X94044424Y-94726554D01*
X94007282Y-94678149D01*
X94007281Y-94678148D01*
X94007274Y-94678140D01*
X93821860Y-94492726D01*
X93821851Y-94492718D01*
X93613803Y-94333075D01*
X93386700Y-94201958D01*
X93386690Y-94201953D01*
X93144428Y-94101605D01*
X93144421Y-94101603D01*
X93144419Y-94101602D01*
X92891116Y-94033730D01*
X92833339Y-94026123D01*
X92631127Y-93999500D01*
X92631120Y-93999500D01*
X89568880Y-93999500D01*
X89568872Y-93999500D01*
X89337772Y-94029926D01*
X89308884Y-94033730D01*
X89055581Y-94101602D01*
X89055571Y-94101605D01*
X88813309Y-94201953D01*
X88813299Y-94201958D01*
X88586196Y-94333075D01*
X88378148Y-94492718D01*
X88192718Y-94678148D01*
X88033075Y-94886196D01*
X87901958Y-95113299D01*
X87901953Y-95113309D01*
X87801605Y-95355571D01*
X87801602Y-95355581D01*
X87733730Y-95608885D01*
X87699500Y-95868872D01*
X87699500Y-96131127D01*
X20000500Y-96131127D01*
X20000500Y-80621288D01*
X23149500Y-80621288D01*
X23181161Y-80861785D01*
X23243947Y-81096104D01*
X23313227Y-81263360D01*
X23336776Y-81320212D01*
X23458064Y-81530289D01*
X23458066Y-81530292D01*
X23458067Y-81530293D01*
X23605733Y-81722736D01*
X23605739Y-81722743D01*
X23777256Y-81894260D01*
X23777262Y-81894265D01*
X23969711Y-82041936D01*
X24179788Y-82163224D01*
X24403900Y-82256054D01*
X24638211Y-82318838D01*
X24818586Y-82342584D01*
X24878711Y-82350500D01*
X24878712Y-82350500D01*
X25121289Y-82350500D01*
X25169388Y-82344167D01*
X25361789Y-82318838D01*
X25596100Y-82256054D01*
X25820212Y-82163224D01*
X26030289Y-82041936D01*
X26222738Y-81894265D01*
X26394265Y-81722738D01*
X26541936Y-81530289D01*
X26663224Y-81320212D01*
X26756054Y-81096100D01*
X26818838Y-80861789D01*
X26850500Y-80621288D01*
X26850500Y-80378712D01*
X26818838Y-80138211D01*
X26756054Y-79903900D01*
X26663224Y-79679788D01*
X26541936Y-79469711D01*
X26394265Y-79277262D01*
X26394260Y-79277256D01*
X26222743Y-79105739D01*
X26222736Y-79105733D01*
X26030293Y-78958067D01*
X26030292Y-78958066D01*
X26030289Y-78958064D01*
X25820212Y-78836776D01*
X25820205Y-78836773D01*
X25596104Y-78743947D01*
X25361785Y-78681161D01*
X25121289Y-78649500D01*
X25121288Y-78649500D01*
X24878712Y-78649500D01*
X24878711Y-78649500D01*
X24638214Y-78681161D01*
X24403895Y-78743947D01*
X24179794Y-78836773D01*
X24179785Y-78836777D01*
X23969706Y-78958067D01*
X23777263Y-79105733D01*
X23777256Y-79105739D01*
X23605739Y-79277256D01*
X23605733Y-79277263D01*
X23458067Y-79469706D01*
X23336777Y-79679785D01*
X23336773Y-79679794D01*
X23243947Y-79903895D01*
X23181161Y-80138214D01*
X23149500Y-80378711D01*
X23149500Y-80621288D01*
X20000500Y-80621288D01*
X20000500Y-67031127D01*
X25199500Y-67031127D01*
X25226123Y-67233339D01*
X25233730Y-67291116D01*
X25301602Y-67544418D01*
X25301605Y-67544428D01*
X25401953Y-67786690D01*
X25401958Y-67786700D01*
X25533075Y-68013803D01*
X25692718Y-68221851D01*
X25692726Y-68221860D01*
X25878140Y-68407274D01*
X25878148Y-68407281D01*
X26086196Y-68566924D01*
X26313299Y-68698041D01*
X26313309Y-68698046D01*
X26555571Y-68798394D01*
X26555581Y-68798398D01*
X26808884Y-68866270D01*
X27068880Y-68900500D01*
X27068887Y-68900500D01*
X27331113Y-68900500D01*
X27331120Y-68900500D01*
X27591116Y-68866270D01*
X27844419Y-68798398D01*
X28086697Y-68698043D01*
X28313803Y-68566924D01*
X28521851Y-68407282D01*
X28521855Y-68407277D01*
X28521860Y-68407274D01*
X28707274Y-68221860D01*
X28707277Y-68221855D01*
X28707282Y-68221851D01*
X28866924Y-68013803D01*
X28998043Y-67786697D01*
X29098398Y-67544419D01*
X29166270Y-67291116D01*
X29200499Y-67031127D01*
X35199500Y-67031127D01*
X35226123Y-67233339D01*
X35233730Y-67291116D01*
X35301602Y-67544418D01*
X35301605Y-67544428D01*
X35401953Y-67786690D01*
X35401958Y-67786700D01*
X35533075Y-68013803D01*
X35692718Y-68221851D01*
X35692726Y-68221860D01*
X35878140Y-68407274D01*
X35878148Y-68407281D01*
X36086196Y-68566924D01*
X36313299Y-68698041D01*
X36313309Y-68698046D01*
X36555571Y-68798394D01*
X36555581Y-68798398D01*
X36808884Y-68866270D01*
X37068880Y-68900500D01*
X37068887Y-68900500D01*
X37331113Y-68900500D01*
X37331120Y-68900500D01*
X37591116Y-68866270D01*
X37844419Y-68798398D01*
X38086697Y-68698043D01*
X38313803Y-68566924D01*
X38521851Y-68407282D01*
X38521855Y-68407277D01*
X38521860Y-68407274D01*
X38707274Y-68221860D01*
X38707277Y-68221855D01*
X38707282Y-68221851D01*
X38866924Y-68013803D01*
X38998043Y-67786697D01*
X39098398Y-67544419D01*
X39166270Y-67291116D01*
X39200500Y-67031120D01*
X39200500Y-63968880D01*
X39166270Y-63708884D01*
X39098398Y-63455581D01*
X39098394Y-63455571D01*
X38998046Y-63213309D01*
X38998041Y-63213299D01*
X38866924Y-62986196D01*
X38744424Y-62826554D01*
X38707282Y-62778149D01*
X38707281Y-62778148D01*
X38707274Y-62778140D01*
X38521860Y-62592726D01*
X38521851Y-62592718D01*
X38313803Y-62433075D01*
X38086700Y-62301958D01*
X38086690Y-62301953D01*
X37844428Y-62201605D01*
X37844421Y-62201603D01*
X37844419Y-62201602D01*
X37591116Y-62133730D01*
X37533339Y-62126123D01*
X37331127Y-62099500D01*
X37331120Y-62099500D01*
X37068880Y-62099500D01*
X37068872Y-62099500D01*
X36837772Y-62129926D01*
X36808884Y-62133730D01*
X36555581Y-62201602D01*
X36555571Y-62201605D01*
X36313309Y-62301953D01*
X36313299Y-62301958D01*
X36086196Y-62433075D01*
X35878148Y-62592718D01*
X35692718Y-62778148D01*
X35533075Y-62986196D01*
X35401958Y-63213299D01*
X35401953Y-63213309D01*
X35301605Y-63455571D01*
X35301602Y-63455581D01*
X35250438Y-63646531D01*
X35233730Y-63708885D01*
X35199500Y-63968872D01*
X35199500Y-67031127D01*
X29200499Y-67031127D01*
X29200500Y-67031120D01*
X29200500Y-63968880D01*
X29166270Y-63708884D01*
X29098398Y-63455581D01*
X29098394Y-63455571D01*
X28998046Y-63213309D01*
X28998041Y-63213299D01*
X28866924Y-62986196D01*
X28744424Y-62826554D01*
X28707282Y-62778149D01*
X28707281Y-62778148D01*
X28707274Y-62778140D01*
X28521860Y-62592726D01*
X28521851Y-62592718D01*
X28313803Y-62433075D01*
X28086700Y-62301958D01*
X28086690Y-62301953D01*
X27844428Y-62201605D01*
X27844421Y-62201603D01*
X27844419Y-62201602D01*
X27591116Y-62133730D01*
X27533339Y-62126123D01*
X27331127Y-62099500D01*
X27331120Y-62099500D01*
X27068880Y-62099500D01*
X27068872Y-62099500D01*
X26837772Y-62129926D01*
X26808884Y-62133730D01*
X26555581Y-62201602D01*
X26555571Y-62201605D01*
X26313309Y-62301953D01*
X26313299Y-62301958D01*
X26086196Y-62433075D01*
X25878148Y-62592718D01*
X25692718Y-62778148D01*
X25533075Y-62986196D01*
X25401958Y-63213299D01*
X25401953Y-63213309D01*
X25301605Y-63455571D01*
X25301602Y-63455581D01*
X25250438Y-63646531D01*
X25233730Y-63708885D01*
X25199500Y-63968872D01*
X25199500Y-67031127D01*
X20000500Y-67031127D01*
X20000500Y-52121288D01*
X23149500Y-52121288D01*
X23178141Y-52338846D01*
X23181162Y-52361789D01*
X23182274Y-52365938D01*
X23243947Y-52596104D01*
X23330895Y-52806014D01*
X23336776Y-52820212D01*
X23458064Y-53030289D01*
X23458066Y-53030292D01*
X23458067Y-53030293D01*
X23605733Y-53222736D01*
X23605739Y-53222743D01*
X23777256Y-53394260D01*
X23777262Y-53394265D01*
X23969711Y-53541936D01*
X24179788Y-53663224D01*
X24403900Y-53756054D01*
X24638211Y-53818838D01*
X24818586Y-53842584D01*
X24878711Y-53850500D01*
X24878712Y-53850500D01*
X25121289Y-53850500D01*
X25170464Y-53844026D01*
X25361789Y-53818838D01*
X25596100Y-53756054D01*
X25820212Y-53663224D01*
X26030289Y-53541936D01*
X26222738Y-53394265D01*
X26394265Y-53222738D01*
X26541936Y-53030289D01*
X26663224Y-52820212D01*
X26756054Y-52596100D01*
X26818838Y-52361789D01*
X26850500Y-52121288D01*
X26850500Y-51878712D01*
X26818838Y-51638211D01*
X26756054Y-51403900D01*
X26663224Y-51179788D01*
X26541936Y-50969711D01*
X26394265Y-50777262D01*
X26394260Y-50777256D01*
X26222743Y-50605739D01*
X26222736Y-50605733D01*
X26030293Y-50458067D01*
X26030292Y-50458066D01*
X26030289Y-50458064D01*
X25820212Y-50336776D01*
X25820205Y-50336773D01*
X25596104Y-50243947D01*
X25361785Y-50181161D01*
X25121289Y-50149500D01*
X25121288Y-50149500D01*
X24878712Y-50149500D01*
X24878711Y-50149500D01*
X24638214Y-50181161D01*
X24403895Y-50243947D01*
X24179794Y-50336773D01*
X24179785Y-50336777D01*
X23969706Y-50458067D01*
X23777263Y-50605733D01*
X23777256Y-50605739D01*
X23605739Y-50777256D01*
X23605733Y-50777263D01*
X23458067Y-50969706D01*
X23336777Y-51179785D01*
X23336773Y-51179794D01*
X23243947Y-51403895D01*
X23181161Y-51638214D01*
X23149500Y-51878711D01*
X23149500Y-52121288D01*
X20000500Y-52121288D01*
X20000500Y-41031127D01*
X25199500Y-41031127D01*
X25216998Y-41164026D01*
X25233730Y-41291116D01*
X25268982Y-41422678D01*
X25301602Y-41544418D01*
X25301605Y-41544428D01*
X25401953Y-41786690D01*
X25401958Y-41786700D01*
X25533075Y-42013803D01*
X25692718Y-42221851D01*
X25692726Y-42221860D01*
X25878140Y-42407274D01*
X25878148Y-42407281D01*
X25878149Y-42407282D01*
X25890806Y-42416994D01*
X26086196Y-42566924D01*
X26313299Y-42698041D01*
X26313309Y-42698046D01*
X26555571Y-42798394D01*
X26555581Y-42798398D01*
X26808884Y-42866270D01*
X27068880Y-42900500D01*
X27068887Y-42900500D01*
X27331113Y-42900500D01*
X27331120Y-42900500D01*
X27591116Y-42866270D01*
X27844419Y-42798398D01*
X28086697Y-42698043D01*
X28313803Y-42566924D01*
X28521851Y-42407282D01*
X28521855Y-42407277D01*
X28521860Y-42407274D01*
X28707274Y-42221860D01*
X28707277Y-42221855D01*
X28707282Y-42221851D01*
X28866924Y-42013803D01*
X28998043Y-41786697D01*
X29098398Y-41544419D01*
X29166270Y-41291116D01*
X29200499Y-41031127D01*
X35199500Y-41031127D01*
X35216998Y-41164026D01*
X35233730Y-41291116D01*
X35268982Y-41422678D01*
X35301602Y-41544418D01*
X35301605Y-41544428D01*
X35401953Y-41786690D01*
X35401958Y-41786700D01*
X35533075Y-42013803D01*
X35692718Y-42221851D01*
X35692726Y-42221860D01*
X35878140Y-42407274D01*
X35878148Y-42407281D01*
X35878149Y-42407282D01*
X35890806Y-42416994D01*
X36086196Y-42566924D01*
X36313299Y-42698041D01*
X36313309Y-42698046D01*
X36555571Y-42798394D01*
X36555581Y-42798398D01*
X36808884Y-42866270D01*
X37068880Y-42900500D01*
X37068887Y-42900500D01*
X37331113Y-42900500D01*
X37331120Y-42900500D01*
X37591116Y-42866270D01*
X37844419Y-42798398D01*
X38086697Y-42698043D01*
X38313803Y-42566924D01*
X38521851Y-42407282D01*
X38521855Y-42407277D01*
X38521860Y-42407274D01*
X38707274Y-42221860D01*
X38707277Y-42221855D01*
X38707282Y-42221851D01*
X38866924Y-42013803D01*
X38998043Y-41786697D01*
X39098398Y-41544419D01*
X39166270Y-41291116D01*
X39200500Y-41031120D01*
X39200500Y-37968880D01*
X39166270Y-37708884D01*
X39098398Y-37455581D01*
X39049276Y-37336989D01*
X38998046Y-37213309D01*
X38998041Y-37213299D01*
X38866924Y-36986196D01*
X38726355Y-36803005D01*
X38707282Y-36778149D01*
X38707281Y-36778148D01*
X38707274Y-36778140D01*
X38521860Y-36592726D01*
X38521851Y-36592718D01*
X38313803Y-36433075D01*
X38086700Y-36301958D01*
X38086690Y-36301953D01*
X37844428Y-36201605D01*
X37844421Y-36201603D01*
X37844419Y-36201602D01*
X37591116Y-36133730D01*
X37533339Y-36126123D01*
X37331127Y-36099500D01*
X37331120Y-36099500D01*
X37068880Y-36099500D01*
X37068872Y-36099500D01*
X36837772Y-36129926D01*
X36808884Y-36133730D01*
X36598791Y-36190024D01*
X36555581Y-36201602D01*
X36555571Y-36201605D01*
X36313309Y-36301953D01*
X36313299Y-36301958D01*
X36086196Y-36433075D01*
X35878148Y-36592718D01*
X35692718Y-36778148D01*
X35533075Y-36986196D01*
X35401958Y-37213299D01*
X35401953Y-37213309D01*
X35301605Y-37455571D01*
X35301602Y-37455581D01*
X35233730Y-37708885D01*
X35199500Y-37968872D01*
X35199500Y-41031127D01*
X29200499Y-41031127D01*
X29200500Y-41031120D01*
X29200500Y-37968880D01*
X29166270Y-37708884D01*
X29098398Y-37455581D01*
X29049276Y-37336989D01*
X28998046Y-37213309D01*
X28998041Y-37213299D01*
X28866924Y-36986196D01*
X28726355Y-36803005D01*
X28707282Y-36778149D01*
X28707281Y-36778148D01*
X28707274Y-36778140D01*
X28521860Y-36592726D01*
X28521851Y-36592718D01*
X28313803Y-36433075D01*
X28086700Y-36301958D01*
X28086690Y-36301953D01*
X27844428Y-36201605D01*
X27844421Y-36201603D01*
X27844419Y-36201602D01*
X27591116Y-36133730D01*
X27533339Y-36126123D01*
X27331127Y-36099500D01*
X27331120Y-36099500D01*
X27068880Y-36099500D01*
X27068872Y-36099500D01*
X26837772Y-36129926D01*
X26808884Y-36133730D01*
X26598791Y-36190024D01*
X26555581Y-36201602D01*
X26555571Y-36201605D01*
X26313309Y-36301953D01*
X26313299Y-36301958D01*
X26086196Y-36433075D01*
X25878148Y-36592718D01*
X25692718Y-36778148D01*
X25533075Y-36986196D01*
X25401958Y-37213299D01*
X25401953Y-37213309D01*
X25301605Y-37455571D01*
X25301602Y-37455581D01*
X25233730Y-37708885D01*
X25199500Y-37968872D01*
X25199500Y-41031127D01*
X20000500Y-41031127D01*
X20000500Y-31502706D01*
X20000618Y-31497297D01*
X20000906Y-31490690D01*
X20017386Y-31113226D01*
X20018326Y-31102495D01*
X20068152Y-30724025D01*
X20070025Y-30713405D01*
X20152649Y-30340709D01*
X20155440Y-30330295D01*
X20270230Y-29966227D01*
X20273917Y-29956095D01*
X20420006Y-29603407D01*
X20424561Y-29593638D01*
X20600822Y-29255045D01*
X20606217Y-29245700D01*
X20811325Y-28923744D01*
X20817515Y-28914905D01*
X21049896Y-28612060D01*
X21056834Y-28603791D01*
X21314726Y-28322352D01*
X21322352Y-28314726D01*
X21603791Y-28056834D01*
X21612060Y-28049896D01*
X21914905Y-27817515D01*
X21923744Y-27811325D01*
X22245700Y-27606217D01*
X22255045Y-27600822D01*
X22593638Y-27424561D01*
X22603412Y-27420003D01*
X22956095Y-27273917D01*
X22966227Y-27270230D01*
X23330295Y-27155440D01*
X23340709Y-27152649D01*
X23713405Y-27070025D01*
X23724025Y-27068152D01*
X24102495Y-27018326D01*
X24113226Y-27017386D01*
X24497297Y-27000617D01*
X24502706Y-27000500D01*
X24565892Y-27000500D01*
X70794896Y-27000500D01*
X70861935Y-27020185D01*
G37*
%TD.AperFunction*%
%TD*%
M02*
