%TF.GenerationSoftware,KiCad,Pcbnew,8.0.0*%
%TF.CreationDate,2024-04-08T20:49:20-04:00*%
%TF.ProjectId,Final Project,46696e61-6c20-4507-926f-6a6563742e6b,rev?*%
%TF.SameCoordinates,Original*%
%TF.FileFunction,Soldermask,Bot*%
%TF.FilePolarity,Negative*%
%FSLAX46Y46*%
G04 Gerber Fmt 4.6, Leading zero omitted, Abs format (unit mm)*
G04 Created by KiCad (PCBNEW 8.0.0) date 2024-04-08 20:49:20*
%MOMM*%
%LPD*%
G01*
G04 APERTURE LIST*
%ADD10O,2.000000X4.800000*%
%ADD11O,4.800000X2.000000*%
%ADD12R,1.700000X1.700000*%
%ADD13O,1.700000X1.700000*%
%ADD14C,3.200000*%
G04 APERTURE END LIST*
D10*
%TO.C,U5*%
X27200000Y-65500000D03*
X31500000Y-65500000D03*
X37200000Y-65500000D03*
D11*
X31900000Y-70000000D03*
X31900000Y-61000000D03*
%TD*%
D12*
%TO.C,LPC1*%
X49750000Y-28180000D03*
D13*
X49750000Y-30720000D03*
X49750000Y-33260000D03*
X49750000Y-35800000D03*
X49750000Y-38340000D03*
X49750000Y-40880000D03*
X49750000Y-43420000D03*
X49750000Y-45960000D03*
X49750000Y-48500000D03*
X49750000Y-51040000D03*
X49750000Y-53580000D03*
X49750000Y-56120000D03*
X49750000Y-58660000D03*
X49750000Y-61200000D03*
X49750000Y-63740000D03*
X49750000Y-66280000D03*
X49750000Y-68820000D03*
X49750000Y-71360000D03*
X49750000Y-73900000D03*
X49750000Y-76440000D03*
X72750000Y-76460000D03*
X72750000Y-73920000D03*
X72750000Y-71380000D03*
X72750000Y-68840000D03*
X72750000Y-66300000D03*
X72750000Y-63760000D03*
X72750000Y-61220000D03*
X72750000Y-58680000D03*
X72750000Y-56140000D03*
X72750000Y-53600000D03*
X72750000Y-51060000D03*
X72750000Y-48520000D03*
X72750000Y-45980000D03*
X72750000Y-43440000D03*
X72750000Y-40900000D03*
X72750000Y-38360000D03*
X72750000Y-35820000D03*
X72750000Y-33280000D03*
X72750000Y-30740000D03*
D12*
X72750000Y-28200000D03*
%TD*%
D10*
%TO.C,U3*%
X95800000Y-91500000D03*
X91500000Y-91500000D03*
X85800000Y-91500000D03*
D11*
X91100000Y-87000000D03*
X91100000Y-96000000D03*
%TD*%
D14*
%TO.C,REF\u002A\u002A*%
X25000000Y-52000000D03*
%TD*%
%TO.C,REF\u002A\u002A*%
X25000000Y-80500000D03*
%TD*%
D12*
%TO.C,U7*%
X76640000Y-84000000D03*
D13*
X74100000Y-84000000D03*
X71560000Y-84000000D03*
X69020000Y-84000000D03*
X66480000Y-84000000D03*
X63940000Y-84000000D03*
X61400000Y-84000000D03*
X58860000Y-84000000D03*
X56320000Y-84000000D03*
X53780000Y-84000000D03*
X51240000Y-84000000D03*
X48700000Y-84000000D03*
X46160000Y-84000000D03*
%TD*%
D14*
%TO.C,REF\u002A\u002A*%
X97500000Y-80500000D03*
%TD*%
D10*
%TO.C,U4*%
X27200000Y-91500000D03*
X31500000Y-91500000D03*
X37200000Y-91500000D03*
D11*
X31900000Y-96000000D03*
X31900000Y-87000000D03*
%TD*%
D14*
%TO.C,REF\u002A\u002A*%
X47328048Y-103077455D03*
%TD*%
D10*
%TO.C,U1*%
X95800000Y-39500000D03*
X91500000Y-39500000D03*
X85800000Y-39500000D03*
D11*
X91100000Y-35000000D03*
X91100000Y-44000000D03*
%TD*%
D10*
%TO.C,U6*%
X27200000Y-39500000D03*
X31500000Y-39500000D03*
X37200000Y-39500000D03*
D11*
X31900000Y-44000000D03*
X31900000Y-35000000D03*
%TD*%
D10*
%TO.C,U2*%
X95800000Y-65500000D03*
X91500000Y-65500000D03*
X85800000Y-65500000D03*
D11*
X91100000Y-61000000D03*
X91100000Y-70000000D03*
%TD*%
D14*
%TO.C,REF\u002A\u002A*%
X97500000Y-52000000D03*
%TD*%
%TO.C,REF\u002A\u002A*%
X75330000Y-103070000D03*
%TD*%
M02*
