%TF.GenerationSoftware,KiCad,Pcbnew,8.0.0*%
%TF.CreationDate,2024-04-08T20:49:20-04:00*%
%TF.ProjectId,Final Project,46696e61-6c20-4507-926f-6a6563742e6b,rev?*%
%TF.SameCoordinates,Original*%
%TF.FileFunction,Legend,Top*%
%TF.FilePolarity,Positive*%
%FSLAX46Y46*%
G04 Gerber Fmt 4.6, Leading zero omitted, Abs format (unit mm)*
G04 Created by KiCad (PCBNEW 8.0.0) date 2024-04-08 20:49:20*
%MOMM*%
%LPD*%
G01*
G04 APERTURE LIST*
%ADD10C,0.100000*%
%ADD11C,0.300000*%
%ADD12C,0.200000*%
%ADD13C,0.400000*%
%ADD14C,0.350000*%
%ADD15C,1.000000*%
%ADD16C,0.150000*%
%ADD17C,0.120000*%
G04 APERTURE END LIST*
D10*
X44830000Y-82670000D02*
X77830000Y-82670000D01*
X77830000Y-105570000D01*
X44830000Y-105570000D01*
X44830000Y-82670000D01*
X53580000Y-105570000D02*
X69080000Y-105570000D01*
X69080000Y-109770000D01*
X53580000Y-109770000D01*
X53580000Y-105570000D01*
D11*
X28964034Y-53992478D02*
X29164034Y-54059144D01*
X29164034Y-54059144D02*
X29497368Y-54059144D01*
X29497368Y-54059144D02*
X29630701Y-53992478D01*
X29630701Y-53992478D02*
X29697368Y-53925811D01*
X29697368Y-53925811D02*
X29764034Y-53792478D01*
X29764034Y-53792478D02*
X29764034Y-53659144D01*
X29764034Y-53659144D02*
X29697368Y-53525811D01*
X29697368Y-53525811D02*
X29630701Y-53459144D01*
X29630701Y-53459144D02*
X29497368Y-53392478D01*
X29497368Y-53392478D02*
X29230701Y-53325811D01*
X29230701Y-53325811D02*
X29097368Y-53259144D01*
X29097368Y-53259144D02*
X29030701Y-53192478D01*
X29030701Y-53192478D02*
X28964034Y-53059144D01*
X28964034Y-53059144D02*
X28964034Y-52925811D01*
X28964034Y-52925811D02*
X29030701Y-52792478D01*
X29030701Y-52792478D02*
X29097368Y-52725811D01*
X29097368Y-52725811D02*
X29230701Y-52659144D01*
X29230701Y-52659144D02*
X29564034Y-52659144D01*
X29564034Y-52659144D02*
X29764034Y-52725811D01*
X30230701Y-52659144D02*
X30564034Y-54059144D01*
X30564034Y-54059144D02*
X30830701Y-53059144D01*
X30830701Y-53059144D02*
X31097367Y-54059144D01*
X31097367Y-54059144D02*
X31430701Y-52659144D01*
X31964034Y-54059144D02*
X31964034Y-52659144D01*
X32430701Y-52659144D02*
X33230701Y-52659144D01*
X32830701Y-54059144D02*
X32830701Y-52659144D01*
X34497368Y-53925811D02*
X34430701Y-53992478D01*
X34430701Y-53992478D02*
X34230701Y-54059144D01*
X34230701Y-54059144D02*
X34097368Y-54059144D01*
X34097368Y-54059144D02*
X33897368Y-53992478D01*
X33897368Y-53992478D02*
X33764035Y-53859144D01*
X33764035Y-53859144D02*
X33697368Y-53725811D01*
X33697368Y-53725811D02*
X33630701Y-53459144D01*
X33630701Y-53459144D02*
X33630701Y-53259144D01*
X33630701Y-53259144D02*
X33697368Y-52992478D01*
X33697368Y-52992478D02*
X33764035Y-52859144D01*
X33764035Y-52859144D02*
X33897368Y-52725811D01*
X33897368Y-52725811D02*
X34097368Y-52659144D01*
X34097368Y-52659144D02*
X34230701Y-52659144D01*
X34230701Y-52659144D02*
X34430701Y-52725811D01*
X34430701Y-52725811D02*
X34497368Y-52792478D01*
X35097368Y-54059144D02*
X35097368Y-52659144D01*
X35097368Y-53325811D02*
X35897368Y-53325811D01*
X35897368Y-54059144D02*
X35897368Y-52659144D01*
X36564035Y-53925811D02*
X36630702Y-53992478D01*
X36630702Y-53992478D02*
X36564035Y-54059144D01*
X36564035Y-54059144D02*
X36497368Y-53992478D01*
X36497368Y-53992478D02*
X36564035Y-53925811D01*
X36564035Y-53925811D02*
X36564035Y-54059144D01*
X36564035Y-53192478D02*
X36630702Y-53259144D01*
X36630702Y-53259144D02*
X36564035Y-53325811D01*
X36564035Y-53325811D02*
X36497368Y-53259144D01*
X36497368Y-53259144D02*
X36564035Y-53192478D01*
X36564035Y-53192478D02*
X36564035Y-53325811D01*
X38297369Y-53125811D02*
X38297369Y-54525811D01*
X38297369Y-53192478D02*
X38430702Y-53125811D01*
X38430702Y-53125811D02*
X38697369Y-53125811D01*
X38697369Y-53125811D02*
X38830702Y-53192478D01*
X38830702Y-53192478D02*
X38897369Y-53259144D01*
X38897369Y-53259144D02*
X38964036Y-53392478D01*
X38964036Y-53392478D02*
X38964036Y-53792478D01*
X38964036Y-53792478D02*
X38897369Y-53925811D01*
X38897369Y-53925811D02*
X38830702Y-53992478D01*
X38830702Y-53992478D02*
X38697369Y-54059144D01*
X38697369Y-54059144D02*
X38430702Y-54059144D01*
X38430702Y-54059144D02*
X38297369Y-53992478D01*
X40297369Y-54059144D02*
X39497369Y-54059144D01*
X39897369Y-54059144D02*
X39897369Y-52659144D01*
X39897369Y-52659144D02*
X39764036Y-52859144D01*
X39764036Y-52859144D02*
X39630703Y-52992478D01*
X39630703Y-52992478D02*
X39497369Y-53059144D01*
X40964036Y-54059144D02*
X41230702Y-54059144D01*
X41230702Y-54059144D02*
X41364036Y-53992478D01*
X41364036Y-53992478D02*
X41430702Y-53925811D01*
X41430702Y-53925811D02*
X41564036Y-53725811D01*
X41564036Y-53725811D02*
X41630702Y-53459144D01*
X41630702Y-53459144D02*
X41630702Y-52925811D01*
X41630702Y-52925811D02*
X41564036Y-52792478D01*
X41564036Y-52792478D02*
X41497369Y-52725811D01*
X41497369Y-52725811D02*
X41364036Y-52659144D01*
X41364036Y-52659144D02*
X41097369Y-52659144D01*
X41097369Y-52659144D02*
X40964036Y-52725811D01*
X40964036Y-52725811D02*
X40897369Y-52792478D01*
X40897369Y-52792478D02*
X40830702Y-52925811D01*
X40830702Y-52925811D02*
X40830702Y-53259144D01*
X40830702Y-53259144D02*
X40897369Y-53392478D01*
X40897369Y-53392478D02*
X40964036Y-53459144D01*
X40964036Y-53459144D02*
X41097369Y-53525811D01*
X41097369Y-53525811D02*
X41364036Y-53525811D01*
X41364036Y-53525811D02*
X41497369Y-53459144D01*
X41497369Y-53459144D02*
X41564036Y-53392478D01*
X41564036Y-53392478D02*
X41630702Y-53259144D01*
X29697368Y-56313066D02*
X29030701Y-56313066D01*
X29030701Y-56313066D02*
X29030701Y-54913066D01*
X30164034Y-55579733D02*
X30630701Y-55579733D01*
X30830701Y-56313066D02*
X30164034Y-56313066D01*
X30164034Y-56313066D02*
X30164034Y-54913066D01*
X30164034Y-54913066D02*
X30830701Y-54913066D01*
X31430701Y-56313066D02*
X31430701Y-54913066D01*
X31430701Y-54913066D02*
X31764034Y-54913066D01*
X31764034Y-54913066D02*
X31964034Y-54979733D01*
X31964034Y-54979733D02*
X32097368Y-55113066D01*
X32097368Y-55113066D02*
X32164034Y-55246400D01*
X32164034Y-55246400D02*
X32230701Y-55513066D01*
X32230701Y-55513066D02*
X32230701Y-55713066D01*
X32230701Y-55713066D02*
X32164034Y-55979733D01*
X32164034Y-55979733D02*
X32097368Y-56113066D01*
X32097368Y-56113066D02*
X31964034Y-56246400D01*
X31964034Y-56246400D02*
X31764034Y-56313066D01*
X31764034Y-56313066D02*
X31430701Y-56313066D01*
X32830701Y-56179733D02*
X32897368Y-56246400D01*
X32897368Y-56246400D02*
X32830701Y-56313066D01*
X32830701Y-56313066D02*
X32764034Y-56246400D01*
X32764034Y-56246400D02*
X32830701Y-56179733D01*
X32830701Y-56179733D02*
X32830701Y-56313066D01*
X32830701Y-55446400D02*
X32897368Y-55513066D01*
X32897368Y-55513066D02*
X32830701Y-55579733D01*
X32830701Y-55579733D02*
X32764034Y-55513066D01*
X32764034Y-55513066D02*
X32830701Y-55446400D01*
X32830701Y-55446400D02*
X32830701Y-55579733D01*
X34564035Y-55379733D02*
X34564035Y-56779733D01*
X34564035Y-55446400D02*
X34697368Y-55379733D01*
X34697368Y-55379733D02*
X34964035Y-55379733D01*
X34964035Y-55379733D02*
X35097368Y-55446400D01*
X35097368Y-55446400D02*
X35164035Y-55513066D01*
X35164035Y-55513066D02*
X35230702Y-55646400D01*
X35230702Y-55646400D02*
X35230702Y-56046400D01*
X35230702Y-56046400D02*
X35164035Y-56179733D01*
X35164035Y-56179733D02*
X35097368Y-56246400D01*
X35097368Y-56246400D02*
X34964035Y-56313066D01*
X34964035Y-56313066D02*
X34697368Y-56313066D01*
X34697368Y-56313066D02*
X34564035Y-56246400D01*
X35764035Y-55046400D02*
X35830702Y-54979733D01*
X35830702Y-54979733D02*
X35964035Y-54913066D01*
X35964035Y-54913066D02*
X36297369Y-54913066D01*
X36297369Y-54913066D02*
X36430702Y-54979733D01*
X36430702Y-54979733D02*
X36497369Y-55046400D01*
X36497369Y-55046400D02*
X36564035Y-55179733D01*
X36564035Y-55179733D02*
X36564035Y-55313066D01*
X36564035Y-55313066D02*
X36497369Y-55513066D01*
X36497369Y-55513066D02*
X35697369Y-56313066D01*
X35697369Y-56313066D02*
X36564035Y-56313066D01*
X37097368Y-55046400D02*
X37164035Y-54979733D01*
X37164035Y-54979733D02*
X37297368Y-54913066D01*
X37297368Y-54913066D02*
X37630702Y-54913066D01*
X37630702Y-54913066D02*
X37764035Y-54979733D01*
X37764035Y-54979733D02*
X37830702Y-55046400D01*
X37830702Y-55046400D02*
X37897368Y-55179733D01*
X37897368Y-55179733D02*
X37897368Y-55313066D01*
X37897368Y-55313066D02*
X37830702Y-55513066D01*
X37830702Y-55513066D02*
X37030702Y-56313066D01*
X37030702Y-56313066D02*
X37897368Y-56313066D01*
X85197368Y-82813066D02*
X84530701Y-82813066D01*
X84530701Y-82813066D02*
X84530701Y-81413066D01*
X85664034Y-82079733D02*
X86130701Y-82079733D01*
X86330701Y-82813066D02*
X85664034Y-82813066D01*
X85664034Y-82813066D02*
X85664034Y-81413066D01*
X85664034Y-81413066D02*
X86330701Y-81413066D01*
X86930701Y-82813066D02*
X86930701Y-81413066D01*
X86930701Y-81413066D02*
X87264034Y-81413066D01*
X87264034Y-81413066D02*
X87464034Y-81479733D01*
X87464034Y-81479733D02*
X87597368Y-81613066D01*
X87597368Y-81613066D02*
X87664034Y-81746400D01*
X87664034Y-81746400D02*
X87730701Y-82013066D01*
X87730701Y-82013066D02*
X87730701Y-82213066D01*
X87730701Y-82213066D02*
X87664034Y-82479733D01*
X87664034Y-82479733D02*
X87597368Y-82613066D01*
X87597368Y-82613066D02*
X87464034Y-82746400D01*
X87464034Y-82746400D02*
X87264034Y-82813066D01*
X87264034Y-82813066D02*
X86930701Y-82813066D01*
X88330701Y-82679733D02*
X88397368Y-82746400D01*
X88397368Y-82746400D02*
X88330701Y-82813066D01*
X88330701Y-82813066D02*
X88264034Y-82746400D01*
X88264034Y-82746400D02*
X88330701Y-82679733D01*
X88330701Y-82679733D02*
X88330701Y-82813066D01*
X88330701Y-81946400D02*
X88397368Y-82013066D01*
X88397368Y-82013066D02*
X88330701Y-82079733D01*
X88330701Y-82079733D02*
X88264034Y-82013066D01*
X88264034Y-82013066D02*
X88330701Y-81946400D01*
X88330701Y-81946400D02*
X88330701Y-82079733D01*
X90064035Y-81879733D02*
X90064035Y-83279733D01*
X90064035Y-81946400D02*
X90197368Y-81879733D01*
X90197368Y-81879733D02*
X90464035Y-81879733D01*
X90464035Y-81879733D02*
X90597368Y-81946400D01*
X90597368Y-81946400D02*
X90664035Y-82013066D01*
X90664035Y-82013066D02*
X90730702Y-82146400D01*
X90730702Y-82146400D02*
X90730702Y-82546400D01*
X90730702Y-82546400D02*
X90664035Y-82679733D01*
X90664035Y-82679733D02*
X90597368Y-82746400D01*
X90597368Y-82746400D02*
X90464035Y-82813066D01*
X90464035Y-82813066D02*
X90197368Y-82813066D01*
X90197368Y-82813066D02*
X90064035Y-82746400D01*
X91264035Y-81546400D02*
X91330702Y-81479733D01*
X91330702Y-81479733D02*
X91464035Y-81413066D01*
X91464035Y-81413066D02*
X91797369Y-81413066D01*
X91797369Y-81413066D02*
X91930702Y-81479733D01*
X91930702Y-81479733D02*
X91997369Y-81546400D01*
X91997369Y-81546400D02*
X92064035Y-81679733D01*
X92064035Y-81679733D02*
X92064035Y-81813066D01*
X92064035Y-81813066D02*
X91997369Y-82013066D01*
X91997369Y-82013066D02*
X91197369Y-82813066D01*
X91197369Y-82813066D02*
X92064035Y-82813066D01*
X93264035Y-81879733D02*
X93264035Y-82813066D01*
X92930702Y-81346400D02*
X92597368Y-82346400D01*
X92597368Y-82346400D02*
X93464035Y-82346400D01*
X62764034Y-79979733D02*
X62630701Y-79913066D01*
X62630701Y-79913066D02*
X62430701Y-79913066D01*
X62430701Y-79913066D02*
X62230701Y-79979733D01*
X62230701Y-79979733D02*
X62097368Y-80113066D01*
X62097368Y-80113066D02*
X62030701Y-80246400D01*
X62030701Y-80246400D02*
X61964034Y-80513066D01*
X61964034Y-80513066D02*
X61964034Y-80713066D01*
X61964034Y-80713066D02*
X62030701Y-80979733D01*
X62030701Y-80979733D02*
X62097368Y-81113066D01*
X62097368Y-81113066D02*
X62230701Y-81246400D01*
X62230701Y-81246400D02*
X62430701Y-81313066D01*
X62430701Y-81313066D02*
X62564034Y-81313066D01*
X62564034Y-81313066D02*
X62764034Y-81246400D01*
X62764034Y-81246400D02*
X62830701Y-81179733D01*
X62830701Y-81179733D02*
X62830701Y-80713066D01*
X62830701Y-80713066D02*
X62564034Y-80713066D01*
X63430701Y-81179733D02*
X63497368Y-81246400D01*
X63497368Y-81246400D02*
X63430701Y-81313066D01*
X63430701Y-81313066D02*
X63364034Y-81246400D01*
X63364034Y-81246400D02*
X63430701Y-81179733D01*
X63430701Y-81179733D02*
X63430701Y-81313066D01*
X63430701Y-80446400D02*
X63497368Y-80513066D01*
X63497368Y-80513066D02*
X63430701Y-80579733D01*
X63430701Y-80579733D02*
X63364034Y-80513066D01*
X63364034Y-80513066D02*
X63430701Y-80446400D01*
X63430701Y-80446400D02*
X63430701Y-80579733D01*
X65164035Y-80379733D02*
X65164035Y-81779733D01*
X65164035Y-80446400D02*
X65297368Y-80379733D01*
X65297368Y-80379733D02*
X65564035Y-80379733D01*
X65564035Y-80379733D02*
X65697368Y-80446400D01*
X65697368Y-80446400D02*
X65764035Y-80513066D01*
X65764035Y-80513066D02*
X65830702Y-80646400D01*
X65830702Y-80646400D02*
X65830702Y-81046400D01*
X65830702Y-81046400D02*
X65764035Y-81179733D01*
X65764035Y-81179733D02*
X65697368Y-81246400D01*
X65697368Y-81246400D02*
X65564035Y-81313066D01*
X65564035Y-81313066D02*
X65297368Y-81313066D01*
X65297368Y-81313066D02*
X65164035Y-81246400D01*
X66364035Y-80046400D02*
X66430702Y-79979733D01*
X66430702Y-79979733D02*
X66564035Y-79913066D01*
X66564035Y-79913066D02*
X66897369Y-79913066D01*
X66897369Y-79913066D02*
X67030702Y-79979733D01*
X67030702Y-79979733D02*
X67097369Y-80046400D01*
X67097369Y-80046400D02*
X67164035Y-80179733D01*
X67164035Y-80179733D02*
X67164035Y-80313066D01*
X67164035Y-80313066D02*
X67097369Y-80513066D01*
X67097369Y-80513066D02*
X66297369Y-81313066D01*
X66297369Y-81313066D02*
X67164035Y-81313066D01*
X67630702Y-79913066D02*
X68564035Y-79913066D01*
X68564035Y-79913066D02*
X67964035Y-81313066D01*
X70430702Y-80646400D02*
X70430702Y-81313066D01*
X69964035Y-79913066D02*
X70430702Y-80646400D01*
X70430702Y-80646400D02*
X70897368Y-79913066D01*
X71364035Y-81179733D02*
X71430702Y-81246400D01*
X71430702Y-81246400D02*
X71364035Y-81313066D01*
X71364035Y-81313066D02*
X71297368Y-81246400D01*
X71297368Y-81246400D02*
X71364035Y-81179733D01*
X71364035Y-81179733D02*
X71364035Y-81313066D01*
X71364035Y-80446400D02*
X71430702Y-80513066D01*
X71430702Y-80513066D02*
X71364035Y-80579733D01*
X71364035Y-80579733D02*
X71297368Y-80513066D01*
X71297368Y-80513066D02*
X71364035Y-80446400D01*
X71364035Y-80446400D02*
X71364035Y-80579733D01*
X73097369Y-80379733D02*
X73097369Y-81779733D01*
X73097369Y-80446400D02*
X73230702Y-80379733D01*
X73230702Y-80379733D02*
X73497369Y-80379733D01*
X73497369Y-80379733D02*
X73630702Y-80446400D01*
X73630702Y-80446400D02*
X73697369Y-80513066D01*
X73697369Y-80513066D02*
X73764036Y-80646400D01*
X73764036Y-80646400D02*
X73764036Y-81046400D01*
X73764036Y-81046400D02*
X73697369Y-81179733D01*
X73697369Y-81179733D02*
X73630702Y-81246400D01*
X73630702Y-81246400D02*
X73497369Y-81313066D01*
X73497369Y-81313066D02*
X73230702Y-81313066D01*
X73230702Y-81313066D02*
X73097369Y-81246400D01*
X74297369Y-80046400D02*
X74364036Y-79979733D01*
X74364036Y-79979733D02*
X74497369Y-79913066D01*
X74497369Y-79913066D02*
X74830703Y-79913066D01*
X74830703Y-79913066D02*
X74964036Y-79979733D01*
X74964036Y-79979733D02*
X75030703Y-80046400D01*
X75030703Y-80046400D02*
X75097369Y-80179733D01*
X75097369Y-80179733D02*
X75097369Y-80313066D01*
X75097369Y-80313066D02*
X75030703Y-80513066D01*
X75030703Y-80513066D02*
X74230703Y-81313066D01*
X74230703Y-81313066D02*
X75097369Y-81313066D01*
X75897369Y-80513066D02*
X75764036Y-80446400D01*
X75764036Y-80446400D02*
X75697369Y-80379733D01*
X75697369Y-80379733D02*
X75630702Y-80246400D01*
X75630702Y-80246400D02*
X75630702Y-80179733D01*
X75630702Y-80179733D02*
X75697369Y-80046400D01*
X75697369Y-80046400D02*
X75764036Y-79979733D01*
X75764036Y-79979733D02*
X75897369Y-79913066D01*
X75897369Y-79913066D02*
X76164036Y-79913066D01*
X76164036Y-79913066D02*
X76297369Y-79979733D01*
X76297369Y-79979733D02*
X76364036Y-80046400D01*
X76364036Y-80046400D02*
X76430702Y-80179733D01*
X76430702Y-80179733D02*
X76430702Y-80246400D01*
X76430702Y-80246400D02*
X76364036Y-80379733D01*
X76364036Y-80379733D02*
X76297369Y-80446400D01*
X76297369Y-80446400D02*
X76164036Y-80513066D01*
X76164036Y-80513066D02*
X75897369Y-80513066D01*
X75897369Y-80513066D02*
X75764036Y-80579733D01*
X75764036Y-80579733D02*
X75697369Y-80646400D01*
X75697369Y-80646400D02*
X75630702Y-80779733D01*
X75630702Y-80779733D02*
X75630702Y-81046400D01*
X75630702Y-81046400D02*
X75697369Y-81179733D01*
X75697369Y-81179733D02*
X75764036Y-81246400D01*
X75764036Y-81246400D02*
X75897369Y-81313066D01*
X75897369Y-81313066D02*
X76164036Y-81313066D01*
X76164036Y-81313066D02*
X76297369Y-81246400D01*
X76297369Y-81246400D02*
X76364036Y-81179733D01*
X76364036Y-81179733D02*
X76430702Y-81046400D01*
X76430702Y-81046400D02*
X76430702Y-80779733D01*
X76430702Y-80779733D02*
X76364036Y-80646400D01*
X76364036Y-80646400D02*
X76297369Y-80579733D01*
X76297369Y-80579733D02*
X76164036Y-80513066D01*
X80964034Y-80246400D02*
X81164034Y-80313066D01*
X81164034Y-80313066D02*
X81497368Y-80313066D01*
X81497368Y-80313066D02*
X81630701Y-80246400D01*
X81630701Y-80246400D02*
X81697368Y-80179733D01*
X81697368Y-80179733D02*
X81764034Y-80046400D01*
X81764034Y-80046400D02*
X81764034Y-79913066D01*
X81764034Y-79913066D02*
X81697368Y-79779733D01*
X81697368Y-79779733D02*
X81630701Y-79713066D01*
X81630701Y-79713066D02*
X81497368Y-79646400D01*
X81497368Y-79646400D02*
X81230701Y-79579733D01*
X81230701Y-79579733D02*
X81097368Y-79513066D01*
X81097368Y-79513066D02*
X81030701Y-79446400D01*
X81030701Y-79446400D02*
X80964034Y-79313066D01*
X80964034Y-79313066D02*
X80964034Y-79179733D01*
X80964034Y-79179733D02*
X81030701Y-79046400D01*
X81030701Y-79046400D02*
X81097368Y-78979733D01*
X81097368Y-78979733D02*
X81230701Y-78913066D01*
X81230701Y-78913066D02*
X81564034Y-78913066D01*
X81564034Y-78913066D02*
X81764034Y-78979733D01*
X82230701Y-78913066D02*
X82564034Y-80313066D01*
X82564034Y-80313066D02*
X82830701Y-79313066D01*
X82830701Y-79313066D02*
X83097367Y-80313066D01*
X83097367Y-80313066D02*
X83430701Y-78913066D01*
X83964034Y-80313066D02*
X83964034Y-78913066D01*
X84430701Y-78913066D02*
X85230701Y-78913066D01*
X84830701Y-80313066D02*
X84830701Y-78913066D01*
X86497368Y-80179733D02*
X86430701Y-80246400D01*
X86430701Y-80246400D02*
X86230701Y-80313066D01*
X86230701Y-80313066D02*
X86097368Y-80313066D01*
X86097368Y-80313066D02*
X85897368Y-80246400D01*
X85897368Y-80246400D02*
X85764035Y-80113066D01*
X85764035Y-80113066D02*
X85697368Y-79979733D01*
X85697368Y-79979733D02*
X85630701Y-79713066D01*
X85630701Y-79713066D02*
X85630701Y-79513066D01*
X85630701Y-79513066D02*
X85697368Y-79246400D01*
X85697368Y-79246400D02*
X85764035Y-79113066D01*
X85764035Y-79113066D02*
X85897368Y-78979733D01*
X85897368Y-78979733D02*
X86097368Y-78913066D01*
X86097368Y-78913066D02*
X86230701Y-78913066D01*
X86230701Y-78913066D02*
X86430701Y-78979733D01*
X86430701Y-78979733D02*
X86497368Y-79046400D01*
X87097368Y-80313066D02*
X87097368Y-78913066D01*
X87097368Y-79579733D02*
X87897368Y-79579733D01*
X87897368Y-80313066D02*
X87897368Y-78913066D01*
X88564035Y-80179733D02*
X88630702Y-80246400D01*
X88630702Y-80246400D02*
X88564035Y-80313066D01*
X88564035Y-80313066D02*
X88497368Y-80246400D01*
X88497368Y-80246400D02*
X88564035Y-80179733D01*
X88564035Y-80179733D02*
X88564035Y-80313066D01*
X88564035Y-79446400D02*
X88630702Y-79513066D01*
X88630702Y-79513066D02*
X88564035Y-79579733D01*
X88564035Y-79579733D02*
X88497368Y-79513066D01*
X88497368Y-79513066D02*
X88564035Y-79446400D01*
X88564035Y-79446400D02*
X88564035Y-79579733D01*
X90297369Y-79379733D02*
X90297369Y-80779733D01*
X90297369Y-79446400D02*
X90430702Y-79379733D01*
X90430702Y-79379733D02*
X90697369Y-79379733D01*
X90697369Y-79379733D02*
X90830702Y-79446400D01*
X90830702Y-79446400D02*
X90897369Y-79513066D01*
X90897369Y-79513066D02*
X90964036Y-79646400D01*
X90964036Y-79646400D02*
X90964036Y-80046400D01*
X90964036Y-80046400D02*
X90897369Y-80179733D01*
X90897369Y-80179733D02*
X90830702Y-80246400D01*
X90830702Y-80246400D02*
X90697369Y-80313066D01*
X90697369Y-80313066D02*
X90430702Y-80313066D01*
X90430702Y-80313066D02*
X90297369Y-80246400D01*
X92297369Y-80313066D02*
X91497369Y-80313066D01*
X91897369Y-80313066D02*
X91897369Y-78913066D01*
X91897369Y-78913066D02*
X91764036Y-79113066D01*
X91764036Y-79113066D02*
X91630703Y-79246400D01*
X91630703Y-79246400D02*
X91497369Y-79313066D01*
X92764036Y-78913066D02*
X93697369Y-78913066D01*
X93697369Y-78913066D02*
X93097369Y-80313066D01*
X77464034Y-53992478D02*
X77664034Y-54059144D01*
X77664034Y-54059144D02*
X77997368Y-54059144D01*
X77997368Y-54059144D02*
X78130701Y-53992478D01*
X78130701Y-53992478D02*
X78197368Y-53925811D01*
X78197368Y-53925811D02*
X78264034Y-53792478D01*
X78264034Y-53792478D02*
X78264034Y-53659144D01*
X78264034Y-53659144D02*
X78197368Y-53525811D01*
X78197368Y-53525811D02*
X78130701Y-53459144D01*
X78130701Y-53459144D02*
X77997368Y-53392478D01*
X77997368Y-53392478D02*
X77730701Y-53325811D01*
X77730701Y-53325811D02*
X77597368Y-53259144D01*
X77597368Y-53259144D02*
X77530701Y-53192478D01*
X77530701Y-53192478D02*
X77464034Y-53059144D01*
X77464034Y-53059144D02*
X77464034Y-52925811D01*
X77464034Y-52925811D02*
X77530701Y-52792478D01*
X77530701Y-52792478D02*
X77597368Y-52725811D01*
X77597368Y-52725811D02*
X77730701Y-52659144D01*
X77730701Y-52659144D02*
X78064034Y-52659144D01*
X78064034Y-52659144D02*
X78264034Y-52725811D01*
X78730701Y-52659144D02*
X79064034Y-54059144D01*
X79064034Y-54059144D02*
X79330701Y-53059144D01*
X79330701Y-53059144D02*
X79597367Y-54059144D01*
X79597367Y-54059144D02*
X79930701Y-52659144D01*
X80464034Y-54059144D02*
X80464034Y-52659144D01*
X80930701Y-52659144D02*
X81730701Y-52659144D01*
X81330701Y-54059144D02*
X81330701Y-52659144D01*
X82997368Y-53925811D02*
X82930701Y-53992478D01*
X82930701Y-53992478D02*
X82730701Y-54059144D01*
X82730701Y-54059144D02*
X82597368Y-54059144D01*
X82597368Y-54059144D02*
X82397368Y-53992478D01*
X82397368Y-53992478D02*
X82264035Y-53859144D01*
X82264035Y-53859144D02*
X82197368Y-53725811D01*
X82197368Y-53725811D02*
X82130701Y-53459144D01*
X82130701Y-53459144D02*
X82130701Y-53259144D01*
X82130701Y-53259144D02*
X82197368Y-52992478D01*
X82197368Y-52992478D02*
X82264035Y-52859144D01*
X82264035Y-52859144D02*
X82397368Y-52725811D01*
X82397368Y-52725811D02*
X82597368Y-52659144D01*
X82597368Y-52659144D02*
X82730701Y-52659144D01*
X82730701Y-52659144D02*
X82930701Y-52725811D01*
X82930701Y-52725811D02*
X82997368Y-52792478D01*
X83597368Y-54059144D02*
X83597368Y-52659144D01*
X83597368Y-53325811D02*
X84397368Y-53325811D01*
X84397368Y-54059144D02*
X84397368Y-52659144D01*
X85064035Y-53925811D02*
X85130702Y-53992478D01*
X85130702Y-53992478D02*
X85064035Y-54059144D01*
X85064035Y-54059144D02*
X84997368Y-53992478D01*
X84997368Y-53992478D02*
X85064035Y-53925811D01*
X85064035Y-53925811D02*
X85064035Y-54059144D01*
X85064035Y-53192478D02*
X85130702Y-53259144D01*
X85130702Y-53259144D02*
X85064035Y-53325811D01*
X85064035Y-53325811D02*
X84997368Y-53259144D01*
X84997368Y-53259144D02*
X85064035Y-53192478D01*
X85064035Y-53192478D02*
X85064035Y-53325811D01*
X86797369Y-53125811D02*
X86797369Y-54525811D01*
X86797369Y-53192478D02*
X86930702Y-53125811D01*
X86930702Y-53125811D02*
X87197369Y-53125811D01*
X87197369Y-53125811D02*
X87330702Y-53192478D01*
X87330702Y-53192478D02*
X87397369Y-53259144D01*
X87397369Y-53259144D02*
X87464036Y-53392478D01*
X87464036Y-53392478D02*
X87464036Y-53792478D01*
X87464036Y-53792478D02*
X87397369Y-53925811D01*
X87397369Y-53925811D02*
X87330702Y-53992478D01*
X87330702Y-53992478D02*
X87197369Y-54059144D01*
X87197369Y-54059144D02*
X86930702Y-54059144D01*
X86930702Y-54059144D02*
X86797369Y-53992478D01*
X88797369Y-54059144D02*
X87997369Y-54059144D01*
X88397369Y-54059144D02*
X88397369Y-52659144D01*
X88397369Y-52659144D02*
X88264036Y-52859144D01*
X88264036Y-52859144D02*
X88130703Y-52992478D01*
X88130703Y-52992478D02*
X87997369Y-53059144D01*
X89997369Y-52659144D02*
X89730702Y-52659144D01*
X89730702Y-52659144D02*
X89597369Y-52725811D01*
X89597369Y-52725811D02*
X89530702Y-52792478D01*
X89530702Y-52792478D02*
X89397369Y-52992478D01*
X89397369Y-52992478D02*
X89330702Y-53259144D01*
X89330702Y-53259144D02*
X89330702Y-53792478D01*
X89330702Y-53792478D02*
X89397369Y-53925811D01*
X89397369Y-53925811D02*
X89464036Y-53992478D01*
X89464036Y-53992478D02*
X89597369Y-54059144D01*
X89597369Y-54059144D02*
X89864036Y-54059144D01*
X89864036Y-54059144D02*
X89997369Y-53992478D01*
X89997369Y-53992478D02*
X90064036Y-53925811D01*
X90064036Y-53925811D02*
X90130702Y-53792478D01*
X90130702Y-53792478D02*
X90130702Y-53459144D01*
X90130702Y-53459144D02*
X90064036Y-53325811D01*
X90064036Y-53325811D02*
X89997369Y-53259144D01*
X89997369Y-53259144D02*
X89864036Y-53192478D01*
X89864036Y-53192478D02*
X89597369Y-53192478D01*
X89597369Y-53192478D02*
X89464036Y-53259144D01*
X89464036Y-53259144D02*
X89397369Y-53325811D01*
X89397369Y-53325811D02*
X89330702Y-53459144D01*
X78197368Y-56313066D02*
X77530701Y-56313066D01*
X77530701Y-56313066D02*
X77530701Y-54913066D01*
X78664034Y-55579733D02*
X79130701Y-55579733D01*
X79330701Y-56313066D02*
X78664034Y-56313066D01*
X78664034Y-56313066D02*
X78664034Y-54913066D01*
X78664034Y-54913066D02*
X79330701Y-54913066D01*
X79930701Y-56313066D02*
X79930701Y-54913066D01*
X79930701Y-54913066D02*
X80264034Y-54913066D01*
X80264034Y-54913066D02*
X80464034Y-54979733D01*
X80464034Y-54979733D02*
X80597368Y-55113066D01*
X80597368Y-55113066D02*
X80664034Y-55246400D01*
X80664034Y-55246400D02*
X80730701Y-55513066D01*
X80730701Y-55513066D02*
X80730701Y-55713066D01*
X80730701Y-55713066D02*
X80664034Y-55979733D01*
X80664034Y-55979733D02*
X80597368Y-56113066D01*
X80597368Y-56113066D02*
X80464034Y-56246400D01*
X80464034Y-56246400D02*
X80264034Y-56313066D01*
X80264034Y-56313066D02*
X79930701Y-56313066D01*
X81330701Y-56179733D02*
X81397368Y-56246400D01*
X81397368Y-56246400D02*
X81330701Y-56313066D01*
X81330701Y-56313066D02*
X81264034Y-56246400D01*
X81264034Y-56246400D02*
X81330701Y-56179733D01*
X81330701Y-56179733D02*
X81330701Y-56313066D01*
X81330701Y-55446400D02*
X81397368Y-55513066D01*
X81397368Y-55513066D02*
X81330701Y-55579733D01*
X81330701Y-55579733D02*
X81264034Y-55513066D01*
X81264034Y-55513066D02*
X81330701Y-55446400D01*
X81330701Y-55446400D02*
X81330701Y-55579733D01*
X83064035Y-55379733D02*
X83064035Y-56779733D01*
X83064035Y-55446400D02*
X83197368Y-55379733D01*
X83197368Y-55379733D02*
X83464035Y-55379733D01*
X83464035Y-55379733D02*
X83597368Y-55446400D01*
X83597368Y-55446400D02*
X83664035Y-55513066D01*
X83664035Y-55513066D02*
X83730702Y-55646400D01*
X83730702Y-55646400D02*
X83730702Y-56046400D01*
X83730702Y-56046400D02*
X83664035Y-56179733D01*
X83664035Y-56179733D02*
X83597368Y-56246400D01*
X83597368Y-56246400D02*
X83464035Y-56313066D01*
X83464035Y-56313066D02*
X83197368Y-56313066D01*
X83197368Y-56313066D02*
X83064035Y-56246400D01*
X84264035Y-55046400D02*
X84330702Y-54979733D01*
X84330702Y-54979733D02*
X84464035Y-54913066D01*
X84464035Y-54913066D02*
X84797369Y-54913066D01*
X84797369Y-54913066D02*
X84930702Y-54979733D01*
X84930702Y-54979733D02*
X84997369Y-55046400D01*
X84997369Y-55046400D02*
X85064035Y-55179733D01*
X85064035Y-55179733D02*
X85064035Y-55313066D01*
X85064035Y-55313066D02*
X84997369Y-55513066D01*
X84997369Y-55513066D02*
X84197369Y-56313066D01*
X84197369Y-56313066D02*
X85064035Y-56313066D01*
X86330702Y-54913066D02*
X85664035Y-54913066D01*
X85664035Y-54913066D02*
X85597368Y-55579733D01*
X85597368Y-55579733D02*
X85664035Y-55513066D01*
X85664035Y-55513066D02*
X85797368Y-55446400D01*
X85797368Y-55446400D02*
X86130702Y-55446400D01*
X86130702Y-55446400D02*
X86264035Y-55513066D01*
X86264035Y-55513066D02*
X86330702Y-55579733D01*
X86330702Y-55579733D02*
X86397368Y-55713066D01*
X86397368Y-55713066D02*
X86397368Y-56046400D01*
X86397368Y-56046400D02*
X86330702Y-56179733D01*
X86330702Y-56179733D02*
X86264035Y-56246400D01*
X86264035Y-56246400D02*
X86130702Y-56313066D01*
X86130702Y-56313066D02*
X85797368Y-56313066D01*
X85797368Y-56313066D02*
X85664035Y-56246400D01*
X85664035Y-56246400D02*
X85597368Y-56179733D01*
X24197368Y-30313066D02*
X23530701Y-30313066D01*
X23530701Y-30313066D02*
X23530701Y-28913066D01*
X24664034Y-29579733D02*
X25130701Y-29579733D01*
X25330701Y-30313066D02*
X24664034Y-30313066D01*
X24664034Y-30313066D02*
X24664034Y-28913066D01*
X24664034Y-28913066D02*
X25330701Y-28913066D01*
X25930701Y-30313066D02*
X25930701Y-28913066D01*
X25930701Y-28913066D02*
X26264034Y-28913066D01*
X26264034Y-28913066D02*
X26464034Y-28979733D01*
X26464034Y-28979733D02*
X26597368Y-29113066D01*
X26597368Y-29113066D02*
X26664034Y-29246400D01*
X26664034Y-29246400D02*
X26730701Y-29513066D01*
X26730701Y-29513066D02*
X26730701Y-29713066D01*
X26730701Y-29713066D02*
X26664034Y-29979733D01*
X26664034Y-29979733D02*
X26597368Y-30113066D01*
X26597368Y-30113066D02*
X26464034Y-30246400D01*
X26464034Y-30246400D02*
X26264034Y-30313066D01*
X26264034Y-30313066D02*
X25930701Y-30313066D01*
X27330701Y-30179733D02*
X27397368Y-30246400D01*
X27397368Y-30246400D02*
X27330701Y-30313066D01*
X27330701Y-30313066D02*
X27264034Y-30246400D01*
X27264034Y-30246400D02*
X27330701Y-30179733D01*
X27330701Y-30179733D02*
X27330701Y-30313066D01*
X27330701Y-29446400D02*
X27397368Y-29513066D01*
X27397368Y-29513066D02*
X27330701Y-29579733D01*
X27330701Y-29579733D02*
X27264034Y-29513066D01*
X27264034Y-29513066D02*
X27330701Y-29446400D01*
X27330701Y-29446400D02*
X27330701Y-29579733D01*
X29064035Y-29379733D02*
X29064035Y-30779733D01*
X29064035Y-29446400D02*
X29197368Y-29379733D01*
X29197368Y-29379733D02*
X29464035Y-29379733D01*
X29464035Y-29379733D02*
X29597368Y-29446400D01*
X29597368Y-29446400D02*
X29664035Y-29513066D01*
X29664035Y-29513066D02*
X29730702Y-29646400D01*
X29730702Y-29646400D02*
X29730702Y-30046400D01*
X29730702Y-30046400D02*
X29664035Y-30179733D01*
X29664035Y-30179733D02*
X29597368Y-30246400D01*
X29597368Y-30246400D02*
X29464035Y-30313066D01*
X29464035Y-30313066D02*
X29197368Y-30313066D01*
X29197368Y-30313066D02*
X29064035Y-30246400D01*
X30264035Y-29046400D02*
X30330702Y-28979733D01*
X30330702Y-28979733D02*
X30464035Y-28913066D01*
X30464035Y-28913066D02*
X30797369Y-28913066D01*
X30797369Y-28913066D02*
X30930702Y-28979733D01*
X30930702Y-28979733D02*
X30997369Y-29046400D01*
X30997369Y-29046400D02*
X31064035Y-29179733D01*
X31064035Y-29179733D02*
X31064035Y-29313066D01*
X31064035Y-29313066D02*
X30997369Y-29513066D01*
X30997369Y-29513066D02*
X30197369Y-30313066D01*
X30197369Y-30313066D02*
X31064035Y-30313066D01*
X32397368Y-30313066D02*
X31597368Y-30313066D01*
X31997368Y-30313066D02*
X31997368Y-28913066D01*
X31997368Y-28913066D02*
X31864035Y-29113066D01*
X31864035Y-29113066D02*
X31730702Y-29246400D01*
X31730702Y-29246400D02*
X31597368Y-29313066D01*
X33997368Y-30246400D02*
X34197368Y-30313066D01*
X34197368Y-30313066D02*
X34530702Y-30313066D01*
X34530702Y-30313066D02*
X34664035Y-30246400D01*
X34664035Y-30246400D02*
X34730702Y-30179733D01*
X34730702Y-30179733D02*
X34797368Y-30046400D01*
X34797368Y-30046400D02*
X34797368Y-29913066D01*
X34797368Y-29913066D02*
X34730702Y-29779733D01*
X34730702Y-29779733D02*
X34664035Y-29713066D01*
X34664035Y-29713066D02*
X34530702Y-29646400D01*
X34530702Y-29646400D02*
X34264035Y-29579733D01*
X34264035Y-29579733D02*
X34130702Y-29513066D01*
X34130702Y-29513066D02*
X34064035Y-29446400D01*
X34064035Y-29446400D02*
X33997368Y-29313066D01*
X33997368Y-29313066D02*
X33997368Y-29179733D01*
X33997368Y-29179733D02*
X34064035Y-29046400D01*
X34064035Y-29046400D02*
X34130702Y-28979733D01*
X34130702Y-28979733D02*
X34264035Y-28913066D01*
X34264035Y-28913066D02*
X34597368Y-28913066D01*
X34597368Y-28913066D02*
X34797368Y-28979733D01*
X35264035Y-28913066D02*
X35597368Y-30313066D01*
X35597368Y-30313066D02*
X35864035Y-29313066D01*
X35864035Y-29313066D02*
X36130701Y-30313066D01*
X36130701Y-30313066D02*
X36464035Y-28913066D01*
X36997368Y-30313066D02*
X36997368Y-28913066D01*
X37464035Y-28913066D02*
X38264035Y-28913066D01*
X37864035Y-30313066D02*
X37864035Y-28913066D01*
X39530702Y-30179733D02*
X39464035Y-30246400D01*
X39464035Y-30246400D02*
X39264035Y-30313066D01*
X39264035Y-30313066D02*
X39130702Y-30313066D01*
X39130702Y-30313066D02*
X38930702Y-30246400D01*
X38930702Y-30246400D02*
X38797369Y-30113066D01*
X38797369Y-30113066D02*
X38730702Y-29979733D01*
X38730702Y-29979733D02*
X38664035Y-29713066D01*
X38664035Y-29713066D02*
X38664035Y-29513066D01*
X38664035Y-29513066D02*
X38730702Y-29246400D01*
X38730702Y-29246400D02*
X38797369Y-29113066D01*
X38797369Y-29113066D02*
X38930702Y-28979733D01*
X38930702Y-28979733D02*
X39130702Y-28913066D01*
X39130702Y-28913066D02*
X39264035Y-28913066D01*
X39264035Y-28913066D02*
X39464035Y-28979733D01*
X39464035Y-28979733D02*
X39530702Y-29046400D01*
X40130702Y-30313066D02*
X40130702Y-28913066D01*
X40130702Y-29579733D02*
X40930702Y-29579733D01*
X40930702Y-30313066D02*
X40930702Y-28913066D01*
X41597369Y-30179733D02*
X41664036Y-30246400D01*
X41664036Y-30246400D02*
X41597369Y-30313066D01*
X41597369Y-30313066D02*
X41530702Y-30246400D01*
X41530702Y-30246400D02*
X41597369Y-30179733D01*
X41597369Y-30179733D02*
X41597369Y-30313066D01*
X41597369Y-29446400D02*
X41664036Y-29513066D01*
X41664036Y-29513066D02*
X41597369Y-29579733D01*
X41597369Y-29579733D02*
X41530702Y-29513066D01*
X41530702Y-29513066D02*
X41597369Y-29446400D01*
X41597369Y-29446400D02*
X41597369Y-29579733D01*
X43330703Y-29379733D02*
X43330703Y-30779733D01*
X43330703Y-29446400D02*
X43464036Y-29379733D01*
X43464036Y-29379733D02*
X43730703Y-29379733D01*
X43730703Y-29379733D02*
X43864036Y-29446400D01*
X43864036Y-29446400D02*
X43930703Y-29513066D01*
X43930703Y-29513066D02*
X43997370Y-29646400D01*
X43997370Y-29646400D02*
X43997370Y-30046400D01*
X43997370Y-30046400D02*
X43930703Y-30179733D01*
X43930703Y-30179733D02*
X43864036Y-30246400D01*
X43864036Y-30246400D02*
X43730703Y-30313066D01*
X43730703Y-30313066D02*
X43464036Y-30313066D01*
X43464036Y-30313066D02*
X43330703Y-30246400D01*
X44530703Y-29046400D02*
X44597370Y-28979733D01*
X44597370Y-28979733D02*
X44730703Y-28913066D01*
X44730703Y-28913066D02*
X45064037Y-28913066D01*
X45064037Y-28913066D02*
X45197370Y-28979733D01*
X45197370Y-28979733D02*
X45264037Y-29046400D01*
X45264037Y-29046400D02*
X45330703Y-29179733D01*
X45330703Y-29179733D02*
X45330703Y-29313066D01*
X45330703Y-29313066D02*
X45264037Y-29513066D01*
X45264037Y-29513066D02*
X44464037Y-30313066D01*
X44464037Y-30313066D02*
X45330703Y-30313066D01*
X46197370Y-28913066D02*
X46330703Y-28913066D01*
X46330703Y-28913066D02*
X46464036Y-28979733D01*
X46464036Y-28979733D02*
X46530703Y-29046400D01*
X46530703Y-29046400D02*
X46597370Y-29179733D01*
X46597370Y-29179733D02*
X46664036Y-29446400D01*
X46664036Y-29446400D02*
X46664036Y-29779733D01*
X46664036Y-29779733D02*
X46597370Y-30046400D01*
X46597370Y-30046400D02*
X46530703Y-30179733D01*
X46530703Y-30179733D02*
X46464036Y-30246400D01*
X46464036Y-30246400D02*
X46330703Y-30313066D01*
X46330703Y-30313066D02*
X46197370Y-30313066D01*
X46197370Y-30313066D02*
X46064036Y-30246400D01*
X46064036Y-30246400D02*
X45997370Y-30179733D01*
X45997370Y-30179733D02*
X45930703Y-30046400D01*
X45930703Y-30046400D02*
X45864036Y-29779733D01*
X45864036Y-29779733D02*
X45864036Y-29446400D01*
X45864036Y-29446400D02*
X45930703Y-29179733D01*
X45930703Y-29179733D02*
X45997370Y-29046400D01*
X45997370Y-29046400D02*
X46064036Y-28979733D01*
X46064036Y-28979733D02*
X46197370Y-28913066D01*
D12*
X85398244Y-74664344D02*
X86064911Y-74664344D01*
X85264911Y-75064344D02*
X85731578Y-73664344D01*
X85731578Y-73664344D02*
X86198244Y-75064344D01*
X86864911Y-75064344D02*
X86731578Y-74997678D01*
X86731578Y-74997678D02*
X86664911Y-74864344D01*
X86664911Y-74864344D02*
X86664911Y-73664344D01*
X87598244Y-75064344D02*
X87464911Y-74997678D01*
X87464911Y-74997678D02*
X87398244Y-74864344D01*
X87398244Y-74864344D02*
X87398244Y-73664344D01*
X89998244Y-75064344D02*
X89531577Y-74397678D01*
X89198244Y-75064344D02*
X89198244Y-73664344D01*
X89198244Y-73664344D02*
X89731577Y-73664344D01*
X89731577Y-73664344D02*
X89864911Y-73731011D01*
X89864911Y-73731011D02*
X89931577Y-73797678D01*
X89931577Y-73797678D02*
X89998244Y-73931011D01*
X89998244Y-73931011D02*
X89998244Y-74131011D01*
X89998244Y-74131011D02*
X89931577Y-74264344D01*
X89931577Y-74264344D02*
X89864911Y-74331011D01*
X89864911Y-74331011D02*
X89731577Y-74397678D01*
X89731577Y-74397678D02*
X89198244Y-74397678D01*
X91131577Y-74997678D02*
X90998244Y-75064344D01*
X90998244Y-75064344D02*
X90731577Y-75064344D01*
X90731577Y-75064344D02*
X90598244Y-74997678D01*
X90598244Y-74997678D02*
X90531577Y-74864344D01*
X90531577Y-74864344D02*
X90531577Y-74331011D01*
X90531577Y-74331011D02*
X90598244Y-74197678D01*
X90598244Y-74197678D02*
X90731577Y-74131011D01*
X90731577Y-74131011D02*
X90998244Y-74131011D01*
X90998244Y-74131011D02*
X91131577Y-74197678D01*
X91131577Y-74197678D02*
X91198244Y-74331011D01*
X91198244Y-74331011D02*
X91198244Y-74464344D01*
X91198244Y-74464344D02*
X90531577Y-74597678D01*
X91731577Y-74997678D02*
X91864911Y-75064344D01*
X91864911Y-75064344D02*
X92131577Y-75064344D01*
X92131577Y-75064344D02*
X92264911Y-74997678D01*
X92264911Y-74997678D02*
X92331577Y-74864344D01*
X92331577Y-74864344D02*
X92331577Y-74797678D01*
X92331577Y-74797678D02*
X92264911Y-74664344D01*
X92264911Y-74664344D02*
X92131577Y-74597678D01*
X92131577Y-74597678D02*
X91931577Y-74597678D01*
X91931577Y-74597678D02*
X91798244Y-74531011D01*
X91798244Y-74531011D02*
X91731577Y-74397678D01*
X91731577Y-74397678D02*
X91731577Y-74331011D01*
X91731577Y-74331011D02*
X91798244Y-74197678D01*
X91798244Y-74197678D02*
X91931577Y-74131011D01*
X91931577Y-74131011D02*
X92131577Y-74131011D01*
X92131577Y-74131011D02*
X92264911Y-74197678D01*
X92931577Y-75064344D02*
X92931577Y-74131011D01*
X92931577Y-73664344D02*
X92864910Y-73731011D01*
X92864910Y-73731011D02*
X92931577Y-73797678D01*
X92931577Y-73797678D02*
X92998244Y-73731011D01*
X92998244Y-73731011D02*
X92931577Y-73664344D01*
X92931577Y-73664344D02*
X92931577Y-73797678D01*
X93531577Y-74997678D02*
X93664911Y-75064344D01*
X93664911Y-75064344D02*
X93931577Y-75064344D01*
X93931577Y-75064344D02*
X94064911Y-74997678D01*
X94064911Y-74997678D02*
X94131577Y-74864344D01*
X94131577Y-74864344D02*
X94131577Y-74797678D01*
X94131577Y-74797678D02*
X94064911Y-74664344D01*
X94064911Y-74664344D02*
X93931577Y-74597678D01*
X93931577Y-74597678D02*
X93731577Y-74597678D01*
X93731577Y-74597678D02*
X93598244Y-74531011D01*
X93598244Y-74531011D02*
X93531577Y-74397678D01*
X93531577Y-74397678D02*
X93531577Y-74331011D01*
X93531577Y-74331011D02*
X93598244Y-74197678D01*
X93598244Y-74197678D02*
X93731577Y-74131011D01*
X93731577Y-74131011D02*
X93931577Y-74131011D01*
X93931577Y-74131011D02*
X94064911Y-74197678D01*
X94531577Y-74131011D02*
X95064910Y-74131011D01*
X94731577Y-73664344D02*
X94731577Y-74864344D01*
X94731577Y-74864344D02*
X94798244Y-74997678D01*
X94798244Y-74997678D02*
X94931577Y-75064344D01*
X94931577Y-75064344D02*
X95064910Y-75064344D01*
X95731577Y-75064344D02*
X95598244Y-74997678D01*
X95598244Y-74997678D02*
X95531577Y-74931011D01*
X95531577Y-74931011D02*
X95464910Y-74797678D01*
X95464910Y-74797678D02*
X95464910Y-74397678D01*
X95464910Y-74397678D02*
X95531577Y-74264344D01*
X95531577Y-74264344D02*
X95598244Y-74197678D01*
X95598244Y-74197678D02*
X95731577Y-74131011D01*
X95731577Y-74131011D02*
X95931577Y-74131011D01*
X95931577Y-74131011D02*
X96064910Y-74197678D01*
X96064910Y-74197678D02*
X96131577Y-74264344D01*
X96131577Y-74264344D02*
X96198244Y-74397678D01*
X96198244Y-74397678D02*
X96198244Y-74797678D01*
X96198244Y-74797678D02*
X96131577Y-74931011D01*
X96131577Y-74931011D02*
X96064910Y-74997678D01*
X96064910Y-74997678D02*
X95931577Y-75064344D01*
X95931577Y-75064344D02*
X95731577Y-75064344D01*
X96798244Y-75064344D02*
X96798244Y-74131011D01*
X96798244Y-74397678D02*
X96864911Y-74264344D01*
X96864911Y-74264344D02*
X96931577Y-74197678D01*
X96931577Y-74197678D02*
X97064911Y-74131011D01*
X97064911Y-74131011D02*
X97198244Y-74131011D01*
X97598244Y-74997678D02*
X97731578Y-75064344D01*
X97731578Y-75064344D02*
X97998244Y-75064344D01*
X97998244Y-75064344D02*
X98131578Y-74997678D01*
X98131578Y-74997678D02*
X98198244Y-74864344D01*
X98198244Y-74864344D02*
X98198244Y-74797678D01*
X98198244Y-74797678D02*
X98131578Y-74664344D01*
X98131578Y-74664344D02*
X97998244Y-74597678D01*
X97998244Y-74597678D02*
X97798244Y-74597678D01*
X97798244Y-74597678D02*
X97664911Y-74531011D01*
X97664911Y-74531011D02*
X97598244Y-74397678D01*
X97598244Y-74397678D02*
X97598244Y-74331011D01*
X97598244Y-74331011D02*
X97664911Y-74197678D01*
X97664911Y-74197678D02*
X97798244Y-74131011D01*
X97798244Y-74131011D02*
X97998244Y-74131011D01*
X97998244Y-74131011D02*
X98131578Y-74197678D01*
X85264911Y-76784933D02*
X85331578Y-76718266D01*
X85331578Y-76718266D02*
X85464911Y-76651600D01*
X85464911Y-76651600D02*
X85731578Y-76784933D01*
X85731578Y-76784933D02*
X85864911Y-76718266D01*
X85864911Y-76718266D02*
X85931578Y-76651600D01*
X86331578Y-75918266D02*
X87198244Y-75918266D01*
X87198244Y-75918266D02*
X86731578Y-76451600D01*
X86731578Y-76451600D02*
X86931578Y-76451600D01*
X86931578Y-76451600D02*
X87064911Y-76518266D01*
X87064911Y-76518266D02*
X87131578Y-76584933D01*
X87131578Y-76584933D02*
X87198244Y-76718266D01*
X87198244Y-76718266D02*
X87198244Y-77051600D01*
X87198244Y-77051600D02*
X87131578Y-77184933D01*
X87131578Y-77184933D02*
X87064911Y-77251600D01*
X87064911Y-77251600D02*
X86931578Y-77318266D01*
X86931578Y-77318266D02*
X86531578Y-77318266D01*
X86531578Y-77318266D02*
X86398244Y-77251600D01*
X86398244Y-77251600D02*
X86331578Y-77184933D01*
X87664911Y-75918266D02*
X88531577Y-75918266D01*
X88531577Y-75918266D02*
X88064911Y-76451600D01*
X88064911Y-76451600D02*
X88264911Y-76451600D01*
X88264911Y-76451600D02*
X88398244Y-76518266D01*
X88398244Y-76518266D02*
X88464911Y-76584933D01*
X88464911Y-76584933D02*
X88531577Y-76718266D01*
X88531577Y-76718266D02*
X88531577Y-77051600D01*
X88531577Y-77051600D02*
X88464911Y-77184933D01*
X88464911Y-77184933D02*
X88398244Y-77251600D01*
X88398244Y-77251600D02*
X88264911Y-77318266D01*
X88264911Y-77318266D02*
X87864911Y-77318266D01*
X87864911Y-77318266D02*
X87731577Y-77251600D01*
X87731577Y-77251600D02*
X87664911Y-77184933D01*
X89398244Y-75918266D02*
X89531577Y-75918266D01*
X89531577Y-75918266D02*
X89664910Y-75984933D01*
X89664910Y-75984933D02*
X89731577Y-76051600D01*
X89731577Y-76051600D02*
X89798244Y-76184933D01*
X89798244Y-76184933D02*
X89864910Y-76451600D01*
X89864910Y-76451600D02*
X89864910Y-76784933D01*
X89864910Y-76784933D02*
X89798244Y-77051600D01*
X89798244Y-77051600D02*
X89731577Y-77184933D01*
X89731577Y-77184933D02*
X89664910Y-77251600D01*
X89664910Y-77251600D02*
X89531577Y-77318266D01*
X89531577Y-77318266D02*
X89398244Y-77318266D01*
X89398244Y-77318266D02*
X89264910Y-77251600D01*
X89264910Y-77251600D02*
X89198244Y-77184933D01*
X89198244Y-77184933D02*
X89131577Y-77051600D01*
X89131577Y-77051600D02*
X89064910Y-76784933D01*
X89064910Y-76784933D02*
X89064910Y-76451600D01*
X89064910Y-76451600D02*
X89131577Y-76184933D01*
X89131577Y-76184933D02*
X89198244Y-76051600D01*
X89198244Y-76051600D02*
X89264910Y-75984933D01*
X89264910Y-75984933D02*
X89398244Y-75918266D01*
X90398243Y-77318266D02*
X90731577Y-77318266D01*
X90731577Y-77318266D02*
X90731577Y-77051600D01*
X90731577Y-77051600D02*
X90598243Y-76984933D01*
X90598243Y-76984933D02*
X90464910Y-76851600D01*
X90464910Y-76851600D02*
X90398243Y-76651600D01*
X90398243Y-76651600D02*
X90398243Y-76318266D01*
X90398243Y-76318266D02*
X90464910Y-76118266D01*
X90464910Y-76118266D02*
X90598243Y-75984933D01*
X90598243Y-75984933D02*
X90798243Y-75918266D01*
X90798243Y-75918266D02*
X91064910Y-75918266D01*
X91064910Y-75918266D02*
X91264910Y-75984933D01*
X91264910Y-75984933D02*
X91398243Y-76118266D01*
X91398243Y-76118266D02*
X91464910Y-76318266D01*
X91464910Y-76318266D02*
X91464910Y-76651600D01*
X91464910Y-76651600D02*
X91398243Y-76851600D01*
X91398243Y-76851600D02*
X91264910Y-76984933D01*
X91264910Y-76984933D02*
X91131577Y-77051600D01*
X91131577Y-77051600D02*
X91131577Y-77318266D01*
X91131577Y-77318266D02*
X91464910Y-77318266D01*
D13*
X46234438Y-70260652D02*
X44234438Y-70260652D01*
X44234438Y-70260652D02*
X45663009Y-69593985D01*
X45663009Y-69593985D02*
X44234438Y-68927319D01*
X44234438Y-68927319D02*
X46234438Y-68927319D01*
X45186819Y-67308271D02*
X45282057Y-67022557D01*
X45282057Y-67022557D02*
X45377295Y-66927319D01*
X45377295Y-66927319D02*
X45567771Y-66832081D01*
X45567771Y-66832081D02*
X45853485Y-66832081D01*
X45853485Y-66832081D02*
X46043961Y-66927319D01*
X46043961Y-66927319D02*
X46139200Y-67022557D01*
X46139200Y-67022557D02*
X46234438Y-67213033D01*
X46234438Y-67213033D02*
X46234438Y-67974938D01*
X46234438Y-67974938D02*
X44234438Y-67974938D01*
X44234438Y-67974938D02*
X44234438Y-67308271D01*
X44234438Y-67308271D02*
X44329676Y-67117795D01*
X44329676Y-67117795D02*
X44424914Y-67022557D01*
X44424914Y-67022557D02*
X44615390Y-66927319D01*
X44615390Y-66927319D02*
X44805866Y-66927319D01*
X44805866Y-66927319D02*
X44996342Y-67022557D01*
X44996342Y-67022557D02*
X45091580Y-67117795D01*
X45091580Y-67117795D02*
X45186819Y-67308271D01*
X45186819Y-67308271D02*
X45186819Y-67974938D01*
X46139200Y-65213033D02*
X46234438Y-65403509D01*
X46234438Y-65403509D02*
X46234438Y-65784462D01*
X46234438Y-65784462D02*
X46139200Y-65974938D01*
X46139200Y-65974938D02*
X45948723Y-66070176D01*
X45948723Y-66070176D02*
X45186819Y-66070176D01*
X45186819Y-66070176D02*
X44996342Y-65974938D01*
X44996342Y-65974938D02*
X44901104Y-65784462D01*
X44901104Y-65784462D02*
X44901104Y-65403509D01*
X44901104Y-65403509D02*
X44996342Y-65213033D01*
X44996342Y-65213033D02*
X45186819Y-65117795D01*
X45186819Y-65117795D02*
X45377295Y-65117795D01*
X45377295Y-65117795D02*
X45567771Y-66070176D01*
X46234438Y-63403509D02*
X44234438Y-63403509D01*
X46139200Y-63403509D02*
X46234438Y-63593985D01*
X46234438Y-63593985D02*
X46234438Y-63974938D01*
X46234438Y-63974938D02*
X46139200Y-64165414D01*
X46139200Y-64165414D02*
X46043961Y-64260652D01*
X46043961Y-64260652D02*
X45853485Y-64355890D01*
X45853485Y-64355890D02*
X45282057Y-64355890D01*
X45282057Y-64355890D02*
X45091580Y-64260652D01*
X45091580Y-64260652D02*
X44996342Y-64165414D01*
X44996342Y-64165414D02*
X44901104Y-63974938D01*
X44901104Y-63974938D02*
X44901104Y-63593985D01*
X44901104Y-63593985D02*
X44996342Y-63403509D01*
X45663009Y-61022556D02*
X45663009Y-60070175D01*
X46234438Y-61213032D02*
X44234438Y-60546366D01*
X44234438Y-60546366D02*
X46234438Y-59879699D01*
X46234438Y-59213032D02*
X44901104Y-59213032D01*
X45282057Y-59213032D02*
X45091580Y-59117794D01*
X45091580Y-59117794D02*
X44996342Y-59022556D01*
X44996342Y-59022556D02*
X44901104Y-58832080D01*
X44901104Y-58832080D02*
X44901104Y-58641603D01*
X44901104Y-58260651D02*
X44901104Y-57498747D01*
X44234438Y-57974937D02*
X45948723Y-57974937D01*
X45948723Y-57974937D02*
X46139200Y-57879699D01*
X46139200Y-57879699D02*
X46234438Y-57689223D01*
X46234438Y-57689223D02*
X46234438Y-57498747D01*
X46234438Y-56832080D02*
X44234438Y-56832080D01*
X44234438Y-56832080D02*
X46234438Y-55689223D01*
X46234438Y-55689223D02*
X44234438Y-55689223D01*
X46139200Y-53974937D02*
X46234438Y-54165413D01*
X46234438Y-54165413D02*
X46234438Y-54546366D01*
X46234438Y-54546366D02*
X46139200Y-54736842D01*
X46139200Y-54736842D02*
X45948723Y-54832080D01*
X45948723Y-54832080D02*
X45186819Y-54832080D01*
X45186819Y-54832080D02*
X44996342Y-54736842D01*
X44996342Y-54736842D02*
X44901104Y-54546366D01*
X44901104Y-54546366D02*
X44901104Y-54165413D01*
X44901104Y-54165413D02*
X44996342Y-53974937D01*
X44996342Y-53974937D02*
X45186819Y-53879699D01*
X45186819Y-53879699D02*
X45377295Y-53879699D01*
X45377295Y-53879699D02*
X45567771Y-54832080D01*
X44901104Y-53308270D02*
X44901104Y-52546366D01*
X44234438Y-53022556D02*
X45948723Y-53022556D01*
X45948723Y-53022556D02*
X46139200Y-52927318D01*
X46139200Y-52927318D02*
X46234438Y-52736842D01*
X46234438Y-52736842D02*
X46234438Y-52546366D01*
X46043961Y-49213032D02*
X46139200Y-49308270D01*
X46139200Y-49308270D02*
X46234438Y-49593984D01*
X46234438Y-49593984D02*
X46234438Y-49784460D01*
X46234438Y-49784460D02*
X46139200Y-50070175D01*
X46139200Y-50070175D02*
X45948723Y-50260651D01*
X45948723Y-50260651D02*
X45758247Y-50355889D01*
X45758247Y-50355889D02*
X45377295Y-50451127D01*
X45377295Y-50451127D02*
X45091580Y-50451127D01*
X45091580Y-50451127D02*
X44710628Y-50355889D01*
X44710628Y-50355889D02*
X44520152Y-50260651D01*
X44520152Y-50260651D02*
X44329676Y-50070175D01*
X44329676Y-50070175D02*
X44234438Y-49784460D01*
X44234438Y-49784460D02*
X44234438Y-49593984D01*
X44234438Y-49593984D02*
X44329676Y-49308270D01*
X44329676Y-49308270D02*
X44424914Y-49213032D01*
X46234438Y-48070175D02*
X46139200Y-48260651D01*
X46139200Y-48260651D02*
X46043961Y-48355889D01*
X46043961Y-48355889D02*
X45853485Y-48451127D01*
X45853485Y-48451127D02*
X45282057Y-48451127D01*
X45282057Y-48451127D02*
X45091580Y-48355889D01*
X45091580Y-48355889D02*
X44996342Y-48260651D01*
X44996342Y-48260651D02*
X44901104Y-48070175D01*
X44901104Y-48070175D02*
X44901104Y-47784460D01*
X44901104Y-47784460D02*
X44996342Y-47593984D01*
X44996342Y-47593984D02*
X45091580Y-47498746D01*
X45091580Y-47498746D02*
X45282057Y-47403508D01*
X45282057Y-47403508D02*
X45853485Y-47403508D01*
X45853485Y-47403508D02*
X46043961Y-47498746D01*
X46043961Y-47498746D02*
X46139200Y-47593984D01*
X46139200Y-47593984D02*
X46234438Y-47784460D01*
X46234438Y-47784460D02*
X46234438Y-48070175D01*
X44901104Y-46546365D02*
X46234438Y-46546365D01*
X45091580Y-46546365D02*
X44996342Y-46451127D01*
X44996342Y-46451127D02*
X44901104Y-46260651D01*
X44901104Y-46260651D02*
X44901104Y-45974936D01*
X44901104Y-45974936D02*
X44996342Y-45784460D01*
X44996342Y-45784460D02*
X45186819Y-45689222D01*
X45186819Y-45689222D02*
X46234438Y-45689222D01*
X44901104Y-45022555D02*
X44901104Y-44260651D01*
X44234438Y-44736841D02*
X45948723Y-44736841D01*
X45948723Y-44736841D02*
X46139200Y-44641603D01*
X46139200Y-44641603D02*
X46234438Y-44451127D01*
X46234438Y-44451127D02*
X46234438Y-44260651D01*
X46234438Y-43593984D02*
X44901104Y-43593984D01*
X45282057Y-43593984D02*
X45091580Y-43498746D01*
X45091580Y-43498746D02*
X44996342Y-43403508D01*
X44996342Y-43403508D02*
X44901104Y-43213032D01*
X44901104Y-43213032D02*
X44901104Y-43022555D01*
X46234438Y-42070175D02*
X46139200Y-42260651D01*
X46139200Y-42260651D02*
X46043961Y-42355889D01*
X46043961Y-42355889D02*
X45853485Y-42451127D01*
X45853485Y-42451127D02*
X45282057Y-42451127D01*
X45282057Y-42451127D02*
X45091580Y-42355889D01*
X45091580Y-42355889D02*
X44996342Y-42260651D01*
X44996342Y-42260651D02*
X44901104Y-42070175D01*
X44901104Y-42070175D02*
X44901104Y-41784460D01*
X44901104Y-41784460D02*
X44996342Y-41593984D01*
X44996342Y-41593984D02*
X45091580Y-41498746D01*
X45091580Y-41498746D02*
X45282057Y-41403508D01*
X45282057Y-41403508D02*
X45853485Y-41403508D01*
X45853485Y-41403508D02*
X46043961Y-41498746D01*
X46043961Y-41498746D02*
X46139200Y-41593984D01*
X46139200Y-41593984D02*
X46234438Y-41784460D01*
X46234438Y-41784460D02*
X46234438Y-42070175D01*
X46234438Y-40260651D02*
X46139200Y-40451127D01*
X46139200Y-40451127D02*
X45948723Y-40546365D01*
X45948723Y-40546365D02*
X44234438Y-40546365D01*
X46234438Y-39213032D02*
X46139200Y-39403508D01*
X46139200Y-39403508D02*
X45948723Y-39498746D01*
X45948723Y-39498746D02*
X44234438Y-39498746D01*
X46139200Y-37689222D02*
X46234438Y-37879698D01*
X46234438Y-37879698D02*
X46234438Y-38260651D01*
X46234438Y-38260651D02*
X46139200Y-38451127D01*
X46139200Y-38451127D02*
X45948723Y-38546365D01*
X45948723Y-38546365D02*
X45186819Y-38546365D01*
X45186819Y-38546365D02*
X44996342Y-38451127D01*
X44996342Y-38451127D02*
X44901104Y-38260651D01*
X44901104Y-38260651D02*
X44901104Y-37879698D01*
X44901104Y-37879698D02*
X44996342Y-37689222D01*
X44996342Y-37689222D02*
X45186819Y-37593984D01*
X45186819Y-37593984D02*
X45377295Y-37593984D01*
X45377295Y-37593984D02*
X45567771Y-38546365D01*
X46234438Y-36736841D02*
X44901104Y-36736841D01*
X45282057Y-36736841D02*
X45091580Y-36641603D01*
X45091580Y-36641603D02*
X44996342Y-36546365D01*
X44996342Y-36546365D02*
X44901104Y-36355889D01*
X44901104Y-36355889D02*
X44901104Y-36165412D01*
D11*
X77197368Y-30313066D02*
X76530701Y-30313066D01*
X76530701Y-30313066D02*
X76530701Y-28913066D01*
X77664034Y-29579733D02*
X78130701Y-29579733D01*
X78330701Y-30313066D02*
X77664034Y-30313066D01*
X77664034Y-30313066D02*
X77664034Y-28913066D01*
X77664034Y-28913066D02*
X78330701Y-28913066D01*
X78930701Y-30313066D02*
X78930701Y-28913066D01*
X78930701Y-28913066D02*
X79264034Y-28913066D01*
X79264034Y-28913066D02*
X79464034Y-28979733D01*
X79464034Y-28979733D02*
X79597368Y-29113066D01*
X79597368Y-29113066D02*
X79664034Y-29246400D01*
X79664034Y-29246400D02*
X79730701Y-29513066D01*
X79730701Y-29513066D02*
X79730701Y-29713066D01*
X79730701Y-29713066D02*
X79664034Y-29979733D01*
X79664034Y-29979733D02*
X79597368Y-30113066D01*
X79597368Y-30113066D02*
X79464034Y-30246400D01*
X79464034Y-30246400D02*
X79264034Y-30313066D01*
X79264034Y-30313066D02*
X78930701Y-30313066D01*
X80330701Y-30179733D02*
X80397368Y-30246400D01*
X80397368Y-30246400D02*
X80330701Y-30313066D01*
X80330701Y-30313066D02*
X80264034Y-30246400D01*
X80264034Y-30246400D02*
X80330701Y-30179733D01*
X80330701Y-30179733D02*
X80330701Y-30313066D01*
X80330701Y-29446400D02*
X80397368Y-29513066D01*
X80397368Y-29513066D02*
X80330701Y-29579733D01*
X80330701Y-29579733D02*
X80264034Y-29513066D01*
X80264034Y-29513066D02*
X80330701Y-29446400D01*
X80330701Y-29446400D02*
X80330701Y-29579733D01*
X82064035Y-29379733D02*
X82064035Y-30779733D01*
X82064035Y-29446400D02*
X82197368Y-29379733D01*
X82197368Y-29379733D02*
X82464035Y-29379733D01*
X82464035Y-29379733D02*
X82597368Y-29446400D01*
X82597368Y-29446400D02*
X82664035Y-29513066D01*
X82664035Y-29513066D02*
X82730702Y-29646400D01*
X82730702Y-29646400D02*
X82730702Y-30046400D01*
X82730702Y-30046400D02*
X82664035Y-30179733D01*
X82664035Y-30179733D02*
X82597368Y-30246400D01*
X82597368Y-30246400D02*
X82464035Y-30313066D01*
X82464035Y-30313066D02*
X82197368Y-30313066D01*
X82197368Y-30313066D02*
X82064035Y-30246400D01*
X83264035Y-29046400D02*
X83330702Y-28979733D01*
X83330702Y-28979733D02*
X83464035Y-28913066D01*
X83464035Y-28913066D02*
X83797369Y-28913066D01*
X83797369Y-28913066D02*
X83930702Y-28979733D01*
X83930702Y-28979733D02*
X83997369Y-29046400D01*
X83997369Y-29046400D02*
X84064035Y-29179733D01*
X84064035Y-29179733D02*
X84064035Y-29313066D01*
X84064035Y-29313066D02*
X83997369Y-29513066D01*
X83997369Y-29513066D02*
X83197369Y-30313066D01*
X83197369Y-30313066D02*
X84064035Y-30313066D01*
X85264035Y-28913066D02*
X84997368Y-28913066D01*
X84997368Y-28913066D02*
X84864035Y-28979733D01*
X84864035Y-28979733D02*
X84797368Y-29046400D01*
X84797368Y-29046400D02*
X84664035Y-29246400D01*
X84664035Y-29246400D02*
X84597368Y-29513066D01*
X84597368Y-29513066D02*
X84597368Y-30046400D01*
X84597368Y-30046400D02*
X84664035Y-30179733D01*
X84664035Y-30179733D02*
X84730702Y-30246400D01*
X84730702Y-30246400D02*
X84864035Y-30313066D01*
X84864035Y-30313066D02*
X85130702Y-30313066D01*
X85130702Y-30313066D02*
X85264035Y-30246400D01*
X85264035Y-30246400D02*
X85330702Y-30179733D01*
X85330702Y-30179733D02*
X85397368Y-30046400D01*
X85397368Y-30046400D02*
X85397368Y-29713066D01*
X85397368Y-29713066D02*
X85330702Y-29579733D01*
X85330702Y-29579733D02*
X85264035Y-29513066D01*
X85264035Y-29513066D02*
X85130702Y-29446400D01*
X85130702Y-29446400D02*
X84864035Y-29446400D01*
X84864035Y-29446400D02*
X84730702Y-29513066D01*
X84730702Y-29513066D02*
X84664035Y-29579733D01*
X84664035Y-29579733D02*
X84597368Y-29713066D01*
X86997368Y-30246400D02*
X87197368Y-30313066D01*
X87197368Y-30313066D02*
X87530702Y-30313066D01*
X87530702Y-30313066D02*
X87664035Y-30246400D01*
X87664035Y-30246400D02*
X87730702Y-30179733D01*
X87730702Y-30179733D02*
X87797368Y-30046400D01*
X87797368Y-30046400D02*
X87797368Y-29913066D01*
X87797368Y-29913066D02*
X87730702Y-29779733D01*
X87730702Y-29779733D02*
X87664035Y-29713066D01*
X87664035Y-29713066D02*
X87530702Y-29646400D01*
X87530702Y-29646400D02*
X87264035Y-29579733D01*
X87264035Y-29579733D02*
X87130702Y-29513066D01*
X87130702Y-29513066D02*
X87064035Y-29446400D01*
X87064035Y-29446400D02*
X86997368Y-29313066D01*
X86997368Y-29313066D02*
X86997368Y-29179733D01*
X86997368Y-29179733D02*
X87064035Y-29046400D01*
X87064035Y-29046400D02*
X87130702Y-28979733D01*
X87130702Y-28979733D02*
X87264035Y-28913066D01*
X87264035Y-28913066D02*
X87597368Y-28913066D01*
X87597368Y-28913066D02*
X87797368Y-28979733D01*
X88264035Y-28913066D02*
X88597368Y-30313066D01*
X88597368Y-30313066D02*
X88864035Y-29313066D01*
X88864035Y-29313066D02*
X89130701Y-30313066D01*
X89130701Y-30313066D02*
X89464035Y-28913066D01*
X89997368Y-30313066D02*
X89997368Y-28913066D01*
X90464035Y-28913066D02*
X91264035Y-28913066D01*
X90864035Y-30313066D02*
X90864035Y-28913066D01*
X92530702Y-30179733D02*
X92464035Y-30246400D01*
X92464035Y-30246400D02*
X92264035Y-30313066D01*
X92264035Y-30313066D02*
X92130702Y-30313066D01*
X92130702Y-30313066D02*
X91930702Y-30246400D01*
X91930702Y-30246400D02*
X91797369Y-30113066D01*
X91797369Y-30113066D02*
X91730702Y-29979733D01*
X91730702Y-29979733D02*
X91664035Y-29713066D01*
X91664035Y-29713066D02*
X91664035Y-29513066D01*
X91664035Y-29513066D02*
X91730702Y-29246400D01*
X91730702Y-29246400D02*
X91797369Y-29113066D01*
X91797369Y-29113066D02*
X91930702Y-28979733D01*
X91930702Y-28979733D02*
X92130702Y-28913066D01*
X92130702Y-28913066D02*
X92264035Y-28913066D01*
X92264035Y-28913066D02*
X92464035Y-28979733D01*
X92464035Y-28979733D02*
X92530702Y-29046400D01*
X93130702Y-30313066D02*
X93130702Y-28913066D01*
X93130702Y-29579733D02*
X93930702Y-29579733D01*
X93930702Y-30313066D02*
X93930702Y-28913066D01*
X94597369Y-30179733D02*
X94664036Y-30246400D01*
X94664036Y-30246400D02*
X94597369Y-30313066D01*
X94597369Y-30313066D02*
X94530702Y-30246400D01*
X94530702Y-30246400D02*
X94597369Y-30179733D01*
X94597369Y-30179733D02*
X94597369Y-30313066D01*
X94597369Y-29446400D02*
X94664036Y-29513066D01*
X94664036Y-29513066D02*
X94597369Y-29579733D01*
X94597369Y-29579733D02*
X94530702Y-29513066D01*
X94530702Y-29513066D02*
X94597369Y-29446400D01*
X94597369Y-29446400D02*
X94597369Y-29579733D01*
X96330703Y-29379733D02*
X96330703Y-30779733D01*
X96330703Y-29446400D02*
X96464036Y-29379733D01*
X96464036Y-29379733D02*
X96730703Y-29379733D01*
X96730703Y-29379733D02*
X96864036Y-29446400D01*
X96864036Y-29446400D02*
X96930703Y-29513066D01*
X96930703Y-29513066D02*
X96997370Y-29646400D01*
X96997370Y-29646400D02*
X96997370Y-30046400D01*
X96997370Y-30046400D02*
X96930703Y-30179733D01*
X96930703Y-30179733D02*
X96864036Y-30246400D01*
X96864036Y-30246400D02*
X96730703Y-30313066D01*
X96730703Y-30313066D02*
X96464036Y-30313066D01*
X96464036Y-30313066D02*
X96330703Y-30246400D01*
X98330703Y-30313066D02*
X97530703Y-30313066D01*
X97930703Y-30313066D02*
X97930703Y-28913066D01*
X97930703Y-28913066D02*
X97797370Y-29113066D01*
X97797370Y-29113066D02*
X97664037Y-29246400D01*
X97664037Y-29246400D02*
X97530703Y-29313066D01*
X99597370Y-28913066D02*
X98930703Y-28913066D01*
X98930703Y-28913066D02*
X98864036Y-29579733D01*
X98864036Y-29579733D02*
X98930703Y-29513066D01*
X98930703Y-29513066D02*
X99064036Y-29446400D01*
X99064036Y-29446400D02*
X99397370Y-29446400D01*
X99397370Y-29446400D02*
X99530703Y-29513066D01*
X99530703Y-29513066D02*
X99597370Y-29579733D01*
X99597370Y-29579733D02*
X99664036Y-29713066D01*
X99664036Y-29713066D02*
X99664036Y-30046400D01*
X99664036Y-30046400D02*
X99597370Y-30179733D01*
X99597370Y-30179733D02*
X99530703Y-30246400D01*
X99530703Y-30246400D02*
X99397370Y-30313066D01*
X99397370Y-30313066D02*
X99064036Y-30313066D01*
X99064036Y-30313066D02*
X98930703Y-30246400D01*
X98930703Y-30246400D02*
X98864036Y-30179733D01*
D14*
X56158834Y-92920758D02*
X56758834Y-92920758D01*
X57015977Y-93863615D02*
X56158834Y-93863615D01*
X56158834Y-93863615D02*
X56158834Y-92063615D01*
X56158834Y-92063615D02*
X57015977Y-92063615D01*
X57530262Y-92663615D02*
X58215976Y-92663615D01*
X57787405Y-92063615D02*
X57787405Y-93606472D01*
X57787405Y-93606472D02*
X57873119Y-93777901D01*
X57873119Y-93777901D02*
X58044548Y-93863615D01*
X58044548Y-93863615D02*
X58215976Y-93863615D01*
X58815976Y-93863615D02*
X58815976Y-92063615D01*
X59587405Y-93863615D02*
X59587405Y-92920758D01*
X59587405Y-92920758D02*
X59501690Y-92749329D01*
X59501690Y-92749329D02*
X59330262Y-92663615D01*
X59330262Y-92663615D02*
X59073119Y-92663615D01*
X59073119Y-92663615D02*
X58901690Y-92749329D01*
X58901690Y-92749329D02*
X58815976Y-92835043D01*
X61130261Y-93777901D02*
X60958833Y-93863615D01*
X60958833Y-93863615D02*
X60615976Y-93863615D01*
X60615976Y-93863615D02*
X60444547Y-93777901D01*
X60444547Y-93777901D02*
X60358833Y-93606472D01*
X60358833Y-93606472D02*
X60358833Y-92920758D01*
X60358833Y-92920758D02*
X60444547Y-92749329D01*
X60444547Y-92749329D02*
X60615976Y-92663615D01*
X60615976Y-92663615D02*
X60958833Y-92663615D01*
X60958833Y-92663615D02*
X61130261Y-92749329D01*
X61130261Y-92749329D02*
X61215976Y-92920758D01*
X61215976Y-92920758D02*
X61215976Y-93092186D01*
X61215976Y-93092186D02*
X60358833Y-93263615D01*
X61987404Y-93863615D02*
X61987404Y-92663615D01*
X61987404Y-93006472D02*
X62073118Y-92835043D01*
X62073118Y-92835043D02*
X62158833Y-92749329D01*
X62158833Y-92749329D02*
X62330261Y-92663615D01*
X62330261Y-92663615D02*
X62501690Y-92663615D01*
X63101690Y-92663615D02*
X63101690Y-93863615D01*
X63101690Y-92835043D02*
X63187404Y-92749329D01*
X63187404Y-92749329D02*
X63358833Y-92663615D01*
X63358833Y-92663615D02*
X63615976Y-92663615D01*
X63615976Y-92663615D02*
X63787404Y-92749329D01*
X63787404Y-92749329D02*
X63873119Y-92920758D01*
X63873119Y-92920758D02*
X63873119Y-93863615D01*
X65415975Y-93777901D02*
X65244547Y-93863615D01*
X65244547Y-93863615D02*
X64901690Y-93863615D01*
X64901690Y-93863615D02*
X64730261Y-93777901D01*
X64730261Y-93777901D02*
X64644547Y-93606472D01*
X64644547Y-93606472D02*
X64644547Y-92920758D01*
X64644547Y-92920758D02*
X64730261Y-92749329D01*
X64730261Y-92749329D02*
X64901690Y-92663615D01*
X64901690Y-92663615D02*
X65244547Y-92663615D01*
X65244547Y-92663615D02*
X65415975Y-92749329D01*
X65415975Y-92749329D02*
X65501690Y-92920758D01*
X65501690Y-92920758D02*
X65501690Y-93092186D01*
X65501690Y-93092186D02*
X64644547Y-93263615D01*
X66015975Y-92663615D02*
X66701689Y-92663615D01*
X66273118Y-92063615D02*
X66273118Y-93606472D01*
X66273118Y-93606472D02*
X66358832Y-93777901D01*
X66358832Y-93777901D02*
X66530261Y-93863615D01*
X66530261Y-93863615D02*
X66701689Y-93863615D01*
X56758834Y-95818657D02*
X57015977Y-95904371D01*
X57015977Y-95904371D02*
X57101691Y-95990085D01*
X57101691Y-95990085D02*
X57187405Y-96161514D01*
X57187405Y-96161514D02*
X57187405Y-96418657D01*
X57187405Y-96418657D02*
X57101691Y-96590085D01*
X57101691Y-96590085D02*
X57015977Y-96675800D01*
X57015977Y-96675800D02*
X56844548Y-96761514D01*
X56844548Y-96761514D02*
X56158834Y-96761514D01*
X56158834Y-96761514D02*
X56158834Y-94961514D01*
X56158834Y-94961514D02*
X56758834Y-94961514D01*
X56758834Y-94961514D02*
X56930263Y-95047228D01*
X56930263Y-95047228D02*
X57015977Y-95132942D01*
X57015977Y-95132942D02*
X57101691Y-95304371D01*
X57101691Y-95304371D02*
X57101691Y-95475800D01*
X57101691Y-95475800D02*
X57015977Y-95647228D01*
X57015977Y-95647228D02*
X56930263Y-95732942D01*
X56930263Y-95732942D02*
X56758834Y-95818657D01*
X56758834Y-95818657D02*
X56158834Y-95818657D01*
X57958834Y-96761514D02*
X57958834Y-95561514D01*
X57958834Y-95904371D02*
X58044548Y-95732942D01*
X58044548Y-95732942D02*
X58130263Y-95647228D01*
X58130263Y-95647228D02*
X58301691Y-95561514D01*
X58301691Y-95561514D02*
X58473120Y-95561514D01*
X59758834Y-96675800D02*
X59587406Y-96761514D01*
X59587406Y-96761514D02*
X59244549Y-96761514D01*
X59244549Y-96761514D02*
X59073120Y-96675800D01*
X59073120Y-96675800D02*
X58987406Y-96504371D01*
X58987406Y-96504371D02*
X58987406Y-95818657D01*
X58987406Y-95818657D02*
X59073120Y-95647228D01*
X59073120Y-95647228D02*
X59244549Y-95561514D01*
X59244549Y-95561514D02*
X59587406Y-95561514D01*
X59587406Y-95561514D02*
X59758834Y-95647228D01*
X59758834Y-95647228D02*
X59844549Y-95818657D01*
X59844549Y-95818657D02*
X59844549Y-95990085D01*
X59844549Y-95990085D02*
X58987406Y-96161514D01*
X61387406Y-96761514D02*
X61387406Y-95818657D01*
X61387406Y-95818657D02*
X61301691Y-95647228D01*
X61301691Y-95647228D02*
X61130263Y-95561514D01*
X61130263Y-95561514D02*
X60787406Y-95561514D01*
X60787406Y-95561514D02*
X60615977Y-95647228D01*
X61387406Y-96675800D02*
X61215977Y-96761514D01*
X61215977Y-96761514D02*
X60787406Y-96761514D01*
X60787406Y-96761514D02*
X60615977Y-96675800D01*
X60615977Y-96675800D02*
X60530263Y-96504371D01*
X60530263Y-96504371D02*
X60530263Y-96332942D01*
X60530263Y-96332942D02*
X60615977Y-96161514D01*
X60615977Y-96161514D02*
X60787406Y-96075800D01*
X60787406Y-96075800D02*
X61215977Y-96075800D01*
X61215977Y-96075800D02*
X61387406Y-95990085D01*
X62244548Y-96761514D02*
X62244548Y-94961514D01*
X62415977Y-96075800D02*
X62930262Y-96761514D01*
X62930262Y-95561514D02*
X62244548Y-96247228D01*
X63958834Y-96761514D02*
X63787405Y-96675800D01*
X63787405Y-96675800D02*
X63701691Y-96590085D01*
X63701691Y-96590085D02*
X63615977Y-96418657D01*
X63615977Y-96418657D02*
X63615977Y-95904371D01*
X63615977Y-95904371D02*
X63701691Y-95732942D01*
X63701691Y-95732942D02*
X63787405Y-95647228D01*
X63787405Y-95647228D02*
X63958834Y-95561514D01*
X63958834Y-95561514D02*
X64215977Y-95561514D01*
X64215977Y-95561514D02*
X64387405Y-95647228D01*
X64387405Y-95647228D02*
X64473120Y-95732942D01*
X64473120Y-95732942D02*
X64558834Y-95904371D01*
X64558834Y-95904371D02*
X64558834Y-96418657D01*
X64558834Y-96418657D02*
X64473120Y-96590085D01*
X64473120Y-96590085D02*
X64387405Y-96675800D01*
X64387405Y-96675800D02*
X64215977Y-96761514D01*
X64215977Y-96761514D02*
X63958834Y-96761514D01*
X66101691Y-95561514D02*
X66101691Y-96761514D01*
X65330262Y-95561514D02*
X65330262Y-96504371D01*
X65330262Y-96504371D02*
X65415976Y-96675800D01*
X65415976Y-96675800D02*
X65587405Y-96761514D01*
X65587405Y-96761514D02*
X65844548Y-96761514D01*
X65844548Y-96761514D02*
X66015976Y-96675800D01*
X66015976Y-96675800D02*
X66101691Y-96590085D01*
X66701690Y-95561514D02*
X67387404Y-95561514D01*
X66958833Y-94961514D02*
X66958833Y-96504371D01*
X66958833Y-96504371D02*
X67044547Y-96675800D01*
X67044547Y-96675800D02*
X67215976Y-96761514D01*
X67215976Y-96761514D02*
X67387404Y-96761514D01*
D11*
X29964034Y-80492478D02*
X30164034Y-80559144D01*
X30164034Y-80559144D02*
X30497368Y-80559144D01*
X30497368Y-80559144D02*
X30630701Y-80492478D01*
X30630701Y-80492478D02*
X30697368Y-80425811D01*
X30697368Y-80425811D02*
X30764034Y-80292478D01*
X30764034Y-80292478D02*
X30764034Y-80159144D01*
X30764034Y-80159144D02*
X30697368Y-80025811D01*
X30697368Y-80025811D02*
X30630701Y-79959144D01*
X30630701Y-79959144D02*
X30497368Y-79892478D01*
X30497368Y-79892478D02*
X30230701Y-79825811D01*
X30230701Y-79825811D02*
X30097368Y-79759144D01*
X30097368Y-79759144D02*
X30030701Y-79692478D01*
X30030701Y-79692478D02*
X29964034Y-79559144D01*
X29964034Y-79559144D02*
X29964034Y-79425811D01*
X29964034Y-79425811D02*
X30030701Y-79292478D01*
X30030701Y-79292478D02*
X30097368Y-79225811D01*
X30097368Y-79225811D02*
X30230701Y-79159144D01*
X30230701Y-79159144D02*
X30564034Y-79159144D01*
X30564034Y-79159144D02*
X30764034Y-79225811D01*
X31230701Y-79159144D02*
X31564034Y-80559144D01*
X31564034Y-80559144D02*
X31830701Y-79559144D01*
X31830701Y-79559144D02*
X32097367Y-80559144D01*
X32097367Y-80559144D02*
X32430701Y-79159144D01*
X32964034Y-80559144D02*
X32964034Y-79159144D01*
X33430701Y-79159144D02*
X34230701Y-79159144D01*
X33830701Y-80559144D02*
X33830701Y-79159144D01*
X35497368Y-80425811D02*
X35430701Y-80492478D01*
X35430701Y-80492478D02*
X35230701Y-80559144D01*
X35230701Y-80559144D02*
X35097368Y-80559144D01*
X35097368Y-80559144D02*
X34897368Y-80492478D01*
X34897368Y-80492478D02*
X34764035Y-80359144D01*
X34764035Y-80359144D02*
X34697368Y-80225811D01*
X34697368Y-80225811D02*
X34630701Y-79959144D01*
X34630701Y-79959144D02*
X34630701Y-79759144D01*
X34630701Y-79759144D02*
X34697368Y-79492478D01*
X34697368Y-79492478D02*
X34764035Y-79359144D01*
X34764035Y-79359144D02*
X34897368Y-79225811D01*
X34897368Y-79225811D02*
X35097368Y-79159144D01*
X35097368Y-79159144D02*
X35230701Y-79159144D01*
X35230701Y-79159144D02*
X35430701Y-79225811D01*
X35430701Y-79225811D02*
X35497368Y-79292478D01*
X36097368Y-80559144D02*
X36097368Y-79159144D01*
X36097368Y-79825811D02*
X36897368Y-79825811D01*
X36897368Y-80559144D02*
X36897368Y-79159144D01*
X37564035Y-80425811D02*
X37630702Y-80492478D01*
X37630702Y-80492478D02*
X37564035Y-80559144D01*
X37564035Y-80559144D02*
X37497368Y-80492478D01*
X37497368Y-80492478D02*
X37564035Y-80425811D01*
X37564035Y-80425811D02*
X37564035Y-80559144D01*
X37564035Y-79692478D02*
X37630702Y-79759144D01*
X37630702Y-79759144D02*
X37564035Y-79825811D01*
X37564035Y-79825811D02*
X37497368Y-79759144D01*
X37497368Y-79759144D02*
X37564035Y-79692478D01*
X37564035Y-79692478D02*
X37564035Y-79825811D01*
X39297369Y-79625811D02*
X39297369Y-81025811D01*
X39297369Y-79692478D02*
X39430702Y-79625811D01*
X39430702Y-79625811D02*
X39697369Y-79625811D01*
X39697369Y-79625811D02*
X39830702Y-79692478D01*
X39830702Y-79692478D02*
X39897369Y-79759144D01*
X39897369Y-79759144D02*
X39964036Y-79892478D01*
X39964036Y-79892478D02*
X39964036Y-80292478D01*
X39964036Y-80292478D02*
X39897369Y-80425811D01*
X39897369Y-80425811D02*
X39830702Y-80492478D01*
X39830702Y-80492478D02*
X39697369Y-80559144D01*
X39697369Y-80559144D02*
X39430702Y-80559144D01*
X39430702Y-80559144D02*
X39297369Y-80492478D01*
X41297369Y-80559144D02*
X40497369Y-80559144D01*
X40897369Y-80559144D02*
X40897369Y-79159144D01*
X40897369Y-79159144D02*
X40764036Y-79359144D01*
X40764036Y-79359144D02*
X40630703Y-79492478D01*
X40630703Y-79492478D02*
X40497369Y-79559144D01*
X42097369Y-79759144D02*
X41964036Y-79692478D01*
X41964036Y-79692478D02*
X41897369Y-79625811D01*
X41897369Y-79625811D02*
X41830702Y-79492478D01*
X41830702Y-79492478D02*
X41830702Y-79425811D01*
X41830702Y-79425811D02*
X41897369Y-79292478D01*
X41897369Y-79292478D02*
X41964036Y-79225811D01*
X41964036Y-79225811D02*
X42097369Y-79159144D01*
X42097369Y-79159144D02*
X42364036Y-79159144D01*
X42364036Y-79159144D02*
X42497369Y-79225811D01*
X42497369Y-79225811D02*
X42564036Y-79292478D01*
X42564036Y-79292478D02*
X42630702Y-79425811D01*
X42630702Y-79425811D02*
X42630702Y-79492478D01*
X42630702Y-79492478D02*
X42564036Y-79625811D01*
X42564036Y-79625811D02*
X42497369Y-79692478D01*
X42497369Y-79692478D02*
X42364036Y-79759144D01*
X42364036Y-79759144D02*
X42097369Y-79759144D01*
X42097369Y-79759144D02*
X41964036Y-79825811D01*
X41964036Y-79825811D02*
X41897369Y-79892478D01*
X41897369Y-79892478D02*
X41830702Y-80025811D01*
X41830702Y-80025811D02*
X41830702Y-80292478D01*
X41830702Y-80292478D02*
X41897369Y-80425811D01*
X41897369Y-80425811D02*
X41964036Y-80492478D01*
X41964036Y-80492478D02*
X42097369Y-80559144D01*
X42097369Y-80559144D02*
X42364036Y-80559144D01*
X42364036Y-80559144D02*
X42497369Y-80492478D01*
X42497369Y-80492478D02*
X42564036Y-80425811D01*
X42564036Y-80425811D02*
X42630702Y-80292478D01*
X42630702Y-80292478D02*
X42630702Y-80025811D01*
X42630702Y-80025811D02*
X42564036Y-79892478D01*
X42564036Y-79892478D02*
X42497369Y-79825811D01*
X42497369Y-79825811D02*
X42364036Y-79759144D01*
X30697368Y-82813066D02*
X30030701Y-82813066D01*
X30030701Y-82813066D02*
X30030701Y-81413066D01*
X31164034Y-82079733D02*
X31630701Y-82079733D01*
X31830701Y-82813066D02*
X31164034Y-82813066D01*
X31164034Y-82813066D02*
X31164034Y-81413066D01*
X31164034Y-81413066D02*
X31830701Y-81413066D01*
X32430701Y-82813066D02*
X32430701Y-81413066D01*
X32430701Y-81413066D02*
X32764034Y-81413066D01*
X32764034Y-81413066D02*
X32964034Y-81479733D01*
X32964034Y-81479733D02*
X33097368Y-81613066D01*
X33097368Y-81613066D02*
X33164034Y-81746400D01*
X33164034Y-81746400D02*
X33230701Y-82013066D01*
X33230701Y-82013066D02*
X33230701Y-82213066D01*
X33230701Y-82213066D02*
X33164034Y-82479733D01*
X33164034Y-82479733D02*
X33097368Y-82613066D01*
X33097368Y-82613066D02*
X32964034Y-82746400D01*
X32964034Y-82746400D02*
X32764034Y-82813066D01*
X32764034Y-82813066D02*
X32430701Y-82813066D01*
X33830701Y-82679733D02*
X33897368Y-82746400D01*
X33897368Y-82746400D02*
X33830701Y-82813066D01*
X33830701Y-82813066D02*
X33764034Y-82746400D01*
X33764034Y-82746400D02*
X33830701Y-82679733D01*
X33830701Y-82679733D02*
X33830701Y-82813066D01*
X33830701Y-81946400D02*
X33897368Y-82013066D01*
X33897368Y-82013066D02*
X33830701Y-82079733D01*
X33830701Y-82079733D02*
X33764034Y-82013066D01*
X33764034Y-82013066D02*
X33830701Y-81946400D01*
X33830701Y-81946400D02*
X33830701Y-82079733D01*
X35564035Y-81879733D02*
X35564035Y-83279733D01*
X35564035Y-81946400D02*
X35697368Y-81879733D01*
X35697368Y-81879733D02*
X35964035Y-81879733D01*
X35964035Y-81879733D02*
X36097368Y-81946400D01*
X36097368Y-81946400D02*
X36164035Y-82013066D01*
X36164035Y-82013066D02*
X36230702Y-82146400D01*
X36230702Y-82146400D02*
X36230702Y-82546400D01*
X36230702Y-82546400D02*
X36164035Y-82679733D01*
X36164035Y-82679733D02*
X36097368Y-82746400D01*
X36097368Y-82746400D02*
X35964035Y-82813066D01*
X35964035Y-82813066D02*
X35697368Y-82813066D01*
X35697368Y-82813066D02*
X35564035Y-82746400D01*
X36764035Y-81546400D02*
X36830702Y-81479733D01*
X36830702Y-81479733D02*
X36964035Y-81413066D01*
X36964035Y-81413066D02*
X37297369Y-81413066D01*
X37297369Y-81413066D02*
X37430702Y-81479733D01*
X37430702Y-81479733D02*
X37497369Y-81546400D01*
X37497369Y-81546400D02*
X37564035Y-81679733D01*
X37564035Y-81679733D02*
X37564035Y-81813066D01*
X37564035Y-81813066D02*
X37497369Y-82013066D01*
X37497369Y-82013066D02*
X36697369Y-82813066D01*
X36697369Y-82813066D02*
X37564035Y-82813066D01*
X38030702Y-81413066D02*
X38897368Y-81413066D01*
X38897368Y-81413066D02*
X38430702Y-81946400D01*
X38430702Y-81946400D02*
X38630702Y-81946400D01*
X38630702Y-81946400D02*
X38764035Y-82013066D01*
X38764035Y-82013066D02*
X38830702Y-82079733D01*
X38830702Y-82079733D02*
X38897368Y-82213066D01*
X38897368Y-82213066D02*
X38897368Y-82546400D01*
X38897368Y-82546400D02*
X38830702Y-82679733D01*
X38830702Y-82679733D02*
X38764035Y-82746400D01*
X38764035Y-82746400D02*
X38630702Y-82813066D01*
X38630702Y-82813066D02*
X38230702Y-82813066D01*
X38230702Y-82813066D02*
X38097368Y-82746400D01*
X38097368Y-82746400D02*
X38030702Y-82679733D01*
D13*
X27382204Y-70043961D02*
X27286966Y-70139200D01*
X27286966Y-70139200D02*
X27001252Y-70234438D01*
X27001252Y-70234438D02*
X26810776Y-70234438D01*
X26810776Y-70234438D02*
X26525061Y-70139200D01*
X26525061Y-70139200D02*
X26334585Y-69948723D01*
X26334585Y-69948723D02*
X26239347Y-69758247D01*
X26239347Y-69758247D02*
X26144109Y-69377295D01*
X26144109Y-69377295D02*
X26144109Y-69091580D01*
X26144109Y-69091580D02*
X26239347Y-68710628D01*
X26239347Y-68710628D02*
X26334585Y-68520152D01*
X26334585Y-68520152D02*
X26525061Y-68329676D01*
X26525061Y-68329676D02*
X26810776Y-68234438D01*
X26810776Y-68234438D02*
X27001252Y-68234438D01*
X27001252Y-68234438D02*
X27286966Y-68329676D01*
X27286966Y-68329676D02*
X27382204Y-68424914D01*
D12*
X27845863Y-59479600D02*
X30131578Y-59479600D01*
X28988720Y-60622457D02*
X28988720Y-58336742D01*
X36309862Y-62755028D02*
X36309862Y-61755028D01*
X36309862Y-61755028D02*
X36881290Y-62755028D01*
X36881290Y-62755028D02*
X36881290Y-61755028D01*
X37928909Y-62659789D02*
X37881290Y-62707409D01*
X37881290Y-62707409D02*
X37738433Y-62755028D01*
X37738433Y-62755028D02*
X37643195Y-62755028D01*
X37643195Y-62755028D02*
X37500338Y-62707409D01*
X37500338Y-62707409D02*
X37405100Y-62612170D01*
X37405100Y-62612170D02*
X37357481Y-62516932D01*
X37357481Y-62516932D02*
X37309862Y-62326456D01*
X37309862Y-62326456D02*
X37309862Y-62183599D01*
X37309862Y-62183599D02*
X37357481Y-61993123D01*
X37357481Y-61993123D02*
X37405100Y-61897885D01*
X37405100Y-61897885D02*
X37500338Y-61802647D01*
X37500338Y-61802647D02*
X37643195Y-61755028D01*
X37643195Y-61755028D02*
X37738433Y-61755028D01*
X37738433Y-61755028D02*
X37881290Y-61802647D01*
X37881290Y-61802647D02*
X37928909Y-61850266D01*
X33845863Y-71479600D02*
X36131578Y-71479600D01*
X33132780Y-62869673D02*
X34132780Y-62869673D01*
X34132780Y-62869673D02*
X33132780Y-63441101D01*
X33132780Y-63441101D02*
X34132780Y-63441101D01*
X34132780Y-64107768D02*
X34132780Y-64298244D01*
X34132780Y-64298244D02*
X34085161Y-64393482D01*
X34085161Y-64393482D02*
X33989923Y-64488720D01*
X33989923Y-64488720D02*
X33799447Y-64536339D01*
X33799447Y-64536339D02*
X33466114Y-64536339D01*
X33466114Y-64536339D02*
X33275638Y-64488720D01*
X33275638Y-64488720D02*
X33180400Y-64393482D01*
X33180400Y-64393482D02*
X33132780Y-64298244D01*
X33132780Y-64298244D02*
X33132780Y-64107768D01*
X33132780Y-64107768D02*
X33180400Y-64012530D01*
X33180400Y-64012530D02*
X33275638Y-63917292D01*
X33275638Y-63917292D02*
X33466114Y-63869673D01*
X33466114Y-63869673D02*
X33799447Y-63869673D01*
X33799447Y-63869673D02*
X33989923Y-63917292D01*
X33989923Y-63917292D02*
X34085161Y-64012530D01*
X34085161Y-64012530D02*
X34132780Y-64107768D01*
D15*
X56610274Y-29458476D02*
X56610274Y-32696571D01*
X56610274Y-32696571D02*
X56800751Y-33077523D01*
X56800751Y-33077523D02*
X56991227Y-33268000D01*
X56991227Y-33268000D02*
X57372179Y-33458476D01*
X57372179Y-33458476D02*
X58134084Y-33458476D01*
X58134084Y-33458476D02*
X58515036Y-33268000D01*
X58515036Y-33268000D02*
X58705513Y-33077523D01*
X58705513Y-33077523D02*
X58895989Y-32696571D01*
X58895989Y-32696571D02*
X58895989Y-29458476D01*
X60610274Y-33268000D02*
X61181703Y-33458476D01*
X61181703Y-33458476D02*
X62134084Y-33458476D01*
X62134084Y-33458476D02*
X62515036Y-33268000D01*
X62515036Y-33268000D02*
X62705512Y-33077523D01*
X62705512Y-33077523D02*
X62895989Y-32696571D01*
X62895989Y-32696571D02*
X62895989Y-32315619D01*
X62895989Y-32315619D02*
X62705512Y-31934666D01*
X62705512Y-31934666D02*
X62515036Y-31744190D01*
X62515036Y-31744190D02*
X62134084Y-31553714D01*
X62134084Y-31553714D02*
X61372179Y-31363238D01*
X61372179Y-31363238D02*
X60991227Y-31172761D01*
X60991227Y-31172761D02*
X60800750Y-30982285D01*
X60800750Y-30982285D02*
X60610274Y-30601333D01*
X60610274Y-30601333D02*
X60610274Y-30220380D01*
X60610274Y-30220380D02*
X60800750Y-29839428D01*
X60800750Y-29839428D02*
X60991227Y-29648952D01*
X60991227Y-29648952D02*
X61372179Y-29458476D01*
X61372179Y-29458476D02*
X62324560Y-29458476D01*
X62324560Y-29458476D02*
X62895989Y-29648952D01*
X65943608Y-31363238D02*
X66515036Y-31553714D01*
X66515036Y-31553714D02*
X66705513Y-31744190D01*
X66705513Y-31744190D02*
X66895989Y-32125142D01*
X66895989Y-32125142D02*
X66895989Y-32696571D01*
X66895989Y-32696571D02*
X66705513Y-33077523D01*
X66705513Y-33077523D02*
X66515036Y-33268000D01*
X66515036Y-33268000D02*
X66134084Y-33458476D01*
X66134084Y-33458476D02*
X64610274Y-33458476D01*
X64610274Y-33458476D02*
X64610274Y-29458476D01*
X64610274Y-29458476D02*
X65943608Y-29458476D01*
X65943608Y-29458476D02*
X66324560Y-29648952D01*
X66324560Y-29648952D02*
X66515036Y-29839428D01*
X66515036Y-29839428D02*
X66705513Y-30220380D01*
X66705513Y-30220380D02*
X66705513Y-30601333D01*
X66705513Y-30601333D02*
X66515036Y-30982285D01*
X66515036Y-30982285D02*
X66324560Y-31172761D01*
X66324560Y-31172761D02*
X65943608Y-31363238D01*
X65943608Y-31363238D02*
X64610274Y-31363238D01*
D16*
X67954819Y-66166666D02*
X67478628Y-66499999D01*
X67954819Y-66738094D02*
X66954819Y-66738094D01*
X66954819Y-66738094D02*
X66954819Y-66357142D01*
X66954819Y-66357142D02*
X67002438Y-66261904D01*
X67002438Y-66261904D02*
X67050057Y-66214285D01*
X67050057Y-66214285D02*
X67145295Y-66166666D01*
X67145295Y-66166666D02*
X67288152Y-66166666D01*
X67288152Y-66166666D02*
X67383390Y-66214285D01*
X67383390Y-66214285D02*
X67431009Y-66261904D01*
X67431009Y-66261904D02*
X67478628Y-66357142D01*
X67478628Y-66357142D02*
X67478628Y-66738094D01*
X66954819Y-65833332D02*
X66954819Y-65166666D01*
X66954819Y-65166666D02*
X67954819Y-65595237D01*
D12*
X86690137Y-94244971D02*
X86690137Y-95244971D01*
X86690137Y-95244971D02*
X86118709Y-94244971D01*
X86118709Y-94244971D02*
X86118709Y-95244971D01*
X85071090Y-94340210D02*
X85118709Y-94292591D01*
X85118709Y-94292591D02*
X85261566Y-94244971D01*
X85261566Y-94244971D02*
X85356804Y-94244971D01*
X85356804Y-94244971D02*
X85499661Y-94292591D01*
X85499661Y-94292591D02*
X85594899Y-94387829D01*
X85594899Y-94387829D02*
X85642518Y-94483067D01*
X85642518Y-94483067D02*
X85690137Y-94673543D01*
X85690137Y-94673543D02*
X85690137Y-94816400D01*
X85690137Y-94816400D02*
X85642518Y-95006876D01*
X85642518Y-95006876D02*
X85594899Y-95102114D01*
X85594899Y-95102114D02*
X85499661Y-95197352D01*
X85499661Y-95197352D02*
X85356804Y-95244971D01*
X85356804Y-95244971D02*
X85261566Y-95244971D01*
X85261566Y-95244971D02*
X85118709Y-95197352D01*
X85118709Y-95197352D02*
X85071090Y-95149733D01*
X95154136Y-97520400D02*
X92868422Y-97520400D01*
X94011279Y-96377542D02*
X94011279Y-98663257D01*
X89867219Y-94130326D02*
X88867219Y-94130326D01*
X88867219Y-94130326D02*
X89867219Y-93558898D01*
X89867219Y-93558898D02*
X88867219Y-93558898D01*
X88867219Y-92892231D02*
X88867219Y-92701755D01*
X88867219Y-92701755D02*
X88914838Y-92606517D01*
X88914838Y-92606517D02*
X89010076Y-92511279D01*
X89010076Y-92511279D02*
X89200552Y-92463660D01*
X89200552Y-92463660D02*
X89533885Y-92463660D01*
X89533885Y-92463660D02*
X89724361Y-92511279D01*
X89724361Y-92511279D02*
X89819600Y-92606517D01*
X89819600Y-92606517D02*
X89867219Y-92701755D01*
X89867219Y-92701755D02*
X89867219Y-92892231D01*
X89867219Y-92892231D02*
X89819600Y-92987469D01*
X89819600Y-92987469D02*
X89724361Y-93082707D01*
X89724361Y-93082707D02*
X89533885Y-93130326D01*
X89533885Y-93130326D02*
X89200552Y-93130326D01*
X89200552Y-93130326D02*
X89010076Y-93082707D01*
X89010076Y-93082707D02*
X88914838Y-92987469D01*
X88914838Y-92987469D02*
X88867219Y-92892231D01*
X89154136Y-85520400D02*
X86868422Y-85520400D01*
D13*
X95617795Y-86956038D02*
X95713033Y-86860800D01*
X95713033Y-86860800D02*
X95998747Y-86765561D01*
X95998747Y-86765561D02*
X96189223Y-86765561D01*
X96189223Y-86765561D02*
X96474938Y-86860800D01*
X96474938Y-86860800D02*
X96665414Y-87051276D01*
X96665414Y-87051276D02*
X96760652Y-87241752D01*
X96760652Y-87241752D02*
X96855890Y-87622704D01*
X96855890Y-87622704D02*
X96855890Y-87908419D01*
X96855890Y-87908419D02*
X96760652Y-88289371D01*
X96760652Y-88289371D02*
X96665414Y-88479847D01*
X96665414Y-88479847D02*
X96474938Y-88670323D01*
X96474938Y-88670323D02*
X96189223Y-88765561D01*
X96189223Y-88765561D02*
X95998747Y-88765561D01*
X95998747Y-88765561D02*
X95713033Y-88670323D01*
X95713033Y-88670323D02*
X95617795Y-88575085D01*
D16*
X81333333Y-71954819D02*
X81000000Y-71478628D01*
X80761905Y-71954819D02*
X80761905Y-70954819D01*
X80761905Y-70954819D02*
X81142857Y-70954819D01*
X81142857Y-70954819D02*
X81238095Y-71002438D01*
X81238095Y-71002438D02*
X81285714Y-71050057D01*
X81285714Y-71050057D02*
X81333333Y-71145295D01*
X81333333Y-71145295D02*
X81333333Y-71288152D01*
X81333333Y-71288152D02*
X81285714Y-71383390D01*
X81285714Y-71383390D02*
X81238095Y-71431009D01*
X81238095Y-71431009D02*
X81142857Y-71478628D01*
X81142857Y-71478628D02*
X80761905Y-71478628D01*
X82190476Y-71288152D02*
X82190476Y-71954819D01*
X81952381Y-70907200D02*
X81714286Y-71621485D01*
X81714286Y-71621485D02*
X82333333Y-71621485D01*
X81333333Y-66954819D02*
X81000000Y-66478628D01*
X80761905Y-66954819D02*
X80761905Y-65954819D01*
X80761905Y-65954819D02*
X81142857Y-65954819D01*
X81142857Y-65954819D02*
X81238095Y-66002438D01*
X81238095Y-66002438D02*
X81285714Y-66050057D01*
X81285714Y-66050057D02*
X81333333Y-66145295D01*
X81333333Y-66145295D02*
X81333333Y-66288152D01*
X81333333Y-66288152D02*
X81285714Y-66383390D01*
X81285714Y-66383390D02*
X81238095Y-66431009D01*
X81238095Y-66431009D02*
X81142857Y-66478628D01*
X81142857Y-66478628D02*
X80761905Y-66478628D01*
X81714286Y-66050057D02*
X81761905Y-66002438D01*
X81761905Y-66002438D02*
X81857143Y-65954819D01*
X81857143Y-65954819D02*
X82095238Y-65954819D01*
X82095238Y-65954819D02*
X82190476Y-66002438D01*
X82190476Y-66002438D02*
X82238095Y-66050057D01*
X82238095Y-66050057D02*
X82285714Y-66145295D01*
X82285714Y-66145295D02*
X82285714Y-66240533D01*
X82285714Y-66240533D02*
X82238095Y-66383390D01*
X82238095Y-66383390D02*
X81666667Y-66954819D01*
X81666667Y-66954819D02*
X82285714Y-66954819D01*
D13*
X27382204Y-96043961D02*
X27286966Y-96139200D01*
X27286966Y-96139200D02*
X27001252Y-96234438D01*
X27001252Y-96234438D02*
X26810776Y-96234438D01*
X26810776Y-96234438D02*
X26525061Y-96139200D01*
X26525061Y-96139200D02*
X26334585Y-95948723D01*
X26334585Y-95948723D02*
X26239347Y-95758247D01*
X26239347Y-95758247D02*
X26144109Y-95377295D01*
X26144109Y-95377295D02*
X26144109Y-95091580D01*
X26144109Y-95091580D02*
X26239347Y-94710628D01*
X26239347Y-94710628D02*
X26334585Y-94520152D01*
X26334585Y-94520152D02*
X26525061Y-94329676D01*
X26525061Y-94329676D02*
X26810776Y-94234438D01*
X26810776Y-94234438D02*
X27001252Y-94234438D01*
X27001252Y-94234438D02*
X27286966Y-94329676D01*
X27286966Y-94329676D02*
X27382204Y-94424914D01*
D12*
X33845863Y-97479600D02*
X36131578Y-97479600D01*
X36309862Y-88755028D02*
X36309862Y-87755028D01*
X36309862Y-87755028D02*
X36881290Y-88755028D01*
X36881290Y-88755028D02*
X36881290Y-87755028D01*
X37928909Y-88659789D02*
X37881290Y-88707409D01*
X37881290Y-88707409D02*
X37738433Y-88755028D01*
X37738433Y-88755028D02*
X37643195Y-88755028D01*
X37643195Y-88755028D02*
X37500338Y-88707409D01*
X37500338Y-88707409D02*
X37405100Y-88612170D01*
X37405100Y-88612170D02*
X37357481Y-88516932D01*
X37357481Y-88516932D02*
X37309862Y-88326456D01*
X37309862Y-88326456D02*
X37309862Y-88183599D01*
X37309862Y-88183599D02*
X37357481Y-87993123D01*
X37357481Y-87993123D02*
X37405100Y-87897885D01*
X37405100Y-87897885D02*
X37500338Y-87802647D01*
X37500338Y-87802647D02*
X37643195Y-87755028D01*
X37643195Y-87755028D02*
X37738433Y-87755028D01*
X37738433Y-87755028D02*
X37881290Y-87802647D01*
X37881290Y-87802647D02*
X37928909Y-87850266D01*
X33132780Y-88869673D02*
X34132780Y-88869673D01*
X34132780Y-88869673D02*
X33132780Y-89441101D01*
X33132780Y-89441101D02*
X34132780Y-89441101D01*
X34132780Y-90107768D02*
X34132780Y-90298244D01*
X34132780Y-90298244D02*
X34085161Y-90393482D01*
X34085161Y-90393482D02*
X33989923Y-90488720D01*
X33989923Y-90488720D02*
X33799447Y-90536339D01*
X33799447Y-90536339D02*
X33466114Y-90536339D01*
X33466114Y-90536339D02*
X33275638Y-90488720D01*
X33275638Y-90488720D02*
X33180400Y-90393482D01*
X33180400Y-90393482D02*
X33132780Y-90298244D01*
X33132780Y-90298244D02*
X33132780Y-90107768D01*
X33132780Y-90107768D02*
X33180400Y-90012530D01*
X33180400Y-90012530D02*
X33275638Y-89917292D01*
X33275638Y-89917292D02*
X33466114Y-89869673D01*
X33466114Y-89869673D02*
X33799447Y-89869673D01*
X33799447Y-89869673D02*
X33989923Y-89917292D01*
X33989923Y-89917292D02*
X34085161Y-90012530D01*
X34085161Y-90012530D02*
X34132780Y-90107768D01*
X27845863Y-85479600D02*
X30131578Y-85479600D01*
X28988720Y-86622457D02*
X28988720Y-84336742D01*
D16*
X64954819Y-71666666D02*
X64478628Y-71999999D01*
X64954819Y-72238094D02*
X63954819Y-72238094D01*
X63954819Y-72238094D02*
X63954819Y-71857142D01*
X63954819Y-71857142D02*
X64002438Y-71761904D01*
X64002438Y-71761904D02*
X64050057Y-71714285D01*
X64050057Y-71714285D02*
X64145295Y-71666666D01*
X64145295Y-71666666D02*
X64288152Y-71666666D01*
X64288152Y-71666666D02*
X64383390Y-71714285D01*
X64383390Y-71714285D02*
X64431009Y-71761904D01*
X64431009Y-71761904D02*
X64478628Y-71857142D01*
X64478628Y-71857142D02*
X64478628Y-72238094D01*
X64383390Y-71095237D02*
X64335771Y-71190475D01*
X64335771Y-71190475D02*
X64288152Y-71238094D01*
X64288152Y-71238094D02*
X64192914Y-71285713D01*
X64192914Y-71285713D02*
X64145295Y-71285713D01*
X64145295Y-71285713D02*
X64050057Y-71238094D01*
X64050057Y-71238094D02*
X64002438Y-71190475D01*
X64002438Y-71190475D02*
X63954819Y-71095237D01*
X63954819Y-71095237D02*
X63954819Y-70904761D01*
X63954819Y-70904761D02*
X64002438Y-70809523D01*
X64002438Y-70809523D02*
X64050057Y-70761904D01*
X64050057Y-70761904D02*
X64145295Y-70714285D01*
X64145295Y-70714285D02*
X64192914Y-70714285D01*
X64192914Y-70714285D02*
X64288152Y-70761904D01*
X64288152Y-70761904D02*
X64335771Y-70809523D01*
X64335771Y-70809523D02*
X64383390Y-70904761D01*
X64383390Y-70904761D02*
X64383390Y-71095237D01*
X64383390Y-71095237D02*
X64431009Y-71190475D01*
X64431009Y-71190475D02*
X64478628Y-71238094D01*
X64478628Y-71238094D02*
X64573866Y-71285713D01*
X64573866Y-71285713D02*
X64764342Y-71285713D01*
X64764342Y-71285713D02*
X64859580Y-71238094D01*
X64859580Y-71238094D02*
X64907200Y-71190475D01*
X64907200Y-71190475D02*
X64954819Y-71095237D01*
X64954819Y-71095237D02*
X64954819Y-70904761D01*
X64954819Y-70904761D02*
X64907200Y-70809523D01*
X64907200Y-70809523D02*
X64859580Y-70761904D01*
X64859580Y-70761904D02*
X64764342Y-70714285D01*
X64764342Y-70714285D02*
X64573866Y-70714285D01*
X64573866Y-70714285D02*
X64478628Y-70761904D01*
X64478628Y-70761904D02*
X64431009Y-70809523D01*
X64431009Y-70809523D02*
X64383390Y-70904761D01*
D12*
X95154136Y-45520400D02*
X92868422Y-45520400D01*
X94011279Y-44377542D02*
X94011279Y-46663257D01*
X89154136Y-33520400D02*
X86868422Y-33520400D01*
D13*
X95617795Y-34956038D02*
X95713033Y-34860800D01*
X95713033Y-34860800D02*
X95998747Y-34765561D01*
X95998747Y-34765561D02*
X96189223Y-34765561D01*
X96189223Y-34765561D02*
X96474938Y-34860800D01*
X96474938Y-34860800D02*
X96665414Y-35051276D01*
X96665414Y-35051276D02*
X96760652Y-35241752D01*
X96760652Y-35241752D02*
X96855890Y-35622704D01*
X96855890Y-35622704D02*
X96855890Y-35908419D01*
X96855890Y-35908419D02*
X96760652Y-36289371D01*
X96760652Y-36289371D02*
X96665414Y-36479847D01*
X96665414Y-36479847D02*
X96474938Y-36670323D01*
X96474938Y-36670323D02*
X96189223Y-36765561D01*
X96189223Y-36765561D02*
X95998747Y-36765561D01*
X95998747Y-36765561D02*
X95713033Y-36670323D01*
X95713033Y-36670323D02*
X95617795Y-36575085D01*
D12*
X86690137Y-42244971D02*
X86690137Y-43244971D01*
X86690137Y-43244971D02*
X86118709Y-42244971D01*
X86118709Y-42244971D02*
X86118709Y-43244971D01*
X85071090Y-42340210D02*
X85118709Y-42292591D01*
X85118709Y-42292591D02*
X85261566Y-42244971D01*
X85261566Y-42244971D02*
X85356804Y-42244971D01*
X85356804Y-42244971D02*
X85499661Y-42292591D01*
X85499661Y-42292591D02*
X85594899Y-42387829D01*
X85594899Y-42387829D02*
X85642518Y-42483067D01*
X85642518Y-42483067D02*
X85690137Y-42673543D01*
X85690137Y-42673543D02*
X85690137Y-42816400D01*
X85690137Y-42816400D02*
X85642518Y-43006876D01*
X85642518Y-43006876D02*
X85594899Y-43102114D01*
X85594899Y-43102114D02*
X85499661Y-43197352D01*
X85499661Y-43197352D02*
X85356804Y-43244971D01*
X85356804Y-43244971D02*
X85261566Y-43244971D01*
X85261566Y-43244971D02*
X85118709Y-43197352D01*
X85118709Y-43197352D02*
X85071090Y-43149733D01*
X89867219Y-42130326D02*
X88867219Y-42130326D01*
X88867219Y-42130326D02*
X89867219Y-41558898D01*
X89867219Y-41558898D02*
X88867219Y-41558898D01*
X88867219Y-40892231D02*
X88867219Y-40701755D01*
X88867219Y-40701755D02*
X88914838Y-40606517D01*
X88914838Y-40606517D02*
X89010076Y-40511279D01*
X89010076Y-40511279D02*
X89200552Y-40463660D01*
X89200552Y-40463660D02*
X89533885Y-40463660D01*
X89533885Y-40463660D02*
X89724361Y-40511279D01*
X89724361Y-40511279D02*
X89819600Y-40606517D01*
X89819600Y-40606517D02*
X89867219Y-40701755D01*
X89867219Y-40701755D02*
X89867219Y-40892231D01*
X89867219Y-40892231D02*
X89819600Y-40987469D01*
X89819600Y-40987469D02*
X89724361Y-41082707D01*
X89724361Y-41082707D02*
X89533885Y-41130326D01*
X89533885Y-41130326D02*
X89200552Y-41130326D01*
X89200552Y-41130326D02*
X89010076Y-41082707D01*
X89010076Y-41082707D02*
X88914838Y-40987469D01*
X88914838Y-40987469D02*
X88867219Y-40892231D01*
D16*
X81333333Y-64454819D02*
X81000000Y-63978628D01*
X80761905Y-64454819D02*
X80761905Y-63454819D01*
X80761905Y-63454819D02*
X81142857Y-63454819D01*
X81142857Y-63454819D02*
X81238095Y-63502438D01*
X81238095Y-63502438D02*
X81285714Y-63550057D01*
X81285714Y-63550057D02*
X81333333Y-63645295D01*
X81333333Y-63645295D02*
X81333333Y-63788152D01*
X81333333Y-63788152D02*
X81285714Y-63883390D01*
X81285714Y-63883390D02*
X81238095Y-63931009D01*
X81238095Y-63931009D02*
X81142857Y-63978628D01*
X81142857Y-63978628D02*
X80761905Y-63978628D01*
X82285714Y-64454819D02*
X81714286Y-64454819D01*
X82000000Y-64454819D02*
X82000000Y-63454819D01*
X82000000Y-63454819D02*
X81904762Y-63597676D01*
X81904762Y-63597676D02*
X81809524Y-63692914D01*
X81809524Y-63692914D02*
X81714286Y-63740533D01*
X81333333Y-76954819D02*
X81000000Y-76478628D01*
X80761905Y-76954819D02*
X80761905Y-75954819D01*
X80761905Y-75954819D02*
X81142857Y-75954819D01*
X81142857Y-75954819D02*
X81238095Y-76002438D01*
X81238095Y-76002438D02*
X81285714Y-76050057D01*
X81285714Y-76050057D02*
X81333333Y-76145295D01*
X81333333Y-76145295D02*
X81333333Y-76288152D01*
X81333333Y-76288152D02*
X81285714Y-76383390D01*
X81285714Y-76383390D02*
X81238095Y-76431009D01*
X81238095Y-76431009D02*
X81142857Y-76478628D01*
X81142857Y-76478628D02*
X80761905Y-76478628D01*
X82190476Y-75954819D02*
X82000000Y-75954819D01*
X82000000Y-75954819D02*
X81904762Y-76002438D01*
X81904762Y-76002438D02*
X81857143Y-76050057D01*
X81857143Y-76050057D02*
X81761905Y-76192914D01*
X81761905Y-76192914D02*
X81714286Y-76383390D01*
X81714286Y-76383390D02*
X81714286Y-76764342D01*
X81714286Y-76764342D02*
X81761905Y-76859580D01*
X81761905Y-76859580D02*
X81809524Y-76907200D01*
X81809524Y-76907200D02*
X81904762Y-76954819D01*
X81904762Y-76954819D02*
X82095238Y-76954819D01*
X82095238Y-76954819D02*
X82190476Y-76907200D01*
X82190476Y-76907200D02*
X82238095Y-76859580D01*
X82238095Y-76859580D02*
X82285714Y-76764342D01*
X82285714Y-76764342D02*
X82285714Y-76526247D01*
X82285714Y-76526247D02*
X82238095Y-76431009D01*
X82238095Y-76431009D02*
X82190476Y-76383390D01*
X82190476Y-76383390D02*
X82095238Y-76335771D01*
X82095238Y-76335771D02*
X81904762Y-76335771D01*
X81904762Y-76335771D02*
X81809524Y-76383390D01*
X81809524Y-76383390D02*
X81761905Y-76431009D01*
X81761905Y-76431009D02*
X81714286Y-76526247D01*
X81333333Y-69454819D02*
X81000000Y-68978628D01*
X80761905Y-69454819D02*
X80761905Y-68454819D01*
X80761905Y-68454819D02*
X81142857Y-68454819D01*
X81142857Y-68454819D02*
X81238095Y-68502438D01*
X81238095Y-68502438D02*
X81285714Y-68550057D01*
X81285714Y-68550057D02*
X81333333Y-68645295D01*
X81333333Y-68645295D02*
X81333333Y-68788152D01*
X81333333Y-68788152D02*
X81285714Y-68883390D01*
X81285714Y-68883390D02*
X81238095Y-68931009D01*
X81238095Y-68931009D02*
X81142857Y-68978628D01*
X81142857Y-68978628D02*
X80761905Y-68978628D01*
X81666667Y-68454819D02*
X82285714Y-68454819D01*
X82285714Y-68454819D02*
X81952381Y-68835771D01*
X81952381Y-68835771D02*
X82095238Y-68835771D01*
X82095238Y-68835771D02*
X82190476Y-68883390D01*
X82190476Y-68883390D02*
X82238095Y-68931009D01*
X82238095Y-68931009D02*
X82285714Y-69026247D01*
X82285714Y-69026247D02*
X82285714Y-69264342D01*
X82285714Y-69264342D02*
X82238095Y-69359580D01*
X82238095Y-69359580D02*
X82190476Y-69407200D01*
X82190476Y-69407200D02*
X82095238Y-69454819D01*
X82095238Y-69454819D02*
X81809524Y-69454819D01*
X81809524Y-69454819D02*
X81714286Y-69407200D01*
X81714286Y-69407200D02*
X81666667Y-69359580D01*
X81333333Y-74454819D02*
X81000000Y-73978628D01*
X80761905Y-74454819D02*
X80761905Y-73454819D01*
X80761905Y-73454819D02*
X81142857Y-73454819D01*
X81142857Y-73454819D02*
X81238095Y-73502438D01*
X81238095Y-73502438D02*
X81285714Y-73550057D01*
X81285714Y-73550057D02*
X81333333Y-73645295D01*
X81333333Y-73645295D02*
X81333333Y-73788152D01*
X81333333Y-73788152D02*
X81285714Y-73883390D01*
X81285714Y-73883390D02*
X81238095Y-73931009D01*
X81238095Y-73931009D02*
X81142857Y-73978628D01*
X81142857Y-73978628D02*
X80761905Y-73978628D01*
X82238095Y-73454819D02*
X81761905Y-73454819D01*
X81761905Y-73454819D02*
X81714286Y-73931009D01*
X81714286Y-73931009D02*
X81761905Y-73883390D01*
X81761905Y-73883390D02*
X81857143Y-73835771D01*
X81857143Y-73835771D02*
X82095238Y-73835771D01*
X82095238Y-73835771D02*
X82190476Y-73883390D01*
X82190476Y-73883390D02*
X82238095Y-73931009D01*
X82238095Y-73931009D02*
X82285714Y-74026247D01*
X82285714Y-74026247D02*
X82285714Y-74264342D01*
X82285714Y-74264342D02*
X82238095Y-74359580D01*
X82238095Y-74359580D02*
X82190476Y-74407200D01*
X82190476Y-74407200D02*
X82095238Y-74454819D01*
X82095238Y-74454819D02*
X81857143Y-74454819D01*
X81857143Y-74454819D02*
X81761905Y-74407200D01*
X81761905Y-74407200D02*
X81714286Y-74359580D01*
D12*
X36309862Y-36755028D02*
X36309862Y-35755028D01*
X36309862Y-35755028D02*
X36881290Y-36755028D01*
X36881290Y-36755028D02*
X36881290Y-35755028D01*
X37928909Y-36659789D02*
X37881290Y-36707409D01*
X37881290Y-36707409D02*
X37738433Y-36755028D01*
X37738433Y-36755028D02*
X37643195Y-36755028D01*
X37643195Y-36755028D02*
X37500338Y-36707409D01*
X37500338Y-36707409D02*
X37405100Y-36612170D01*
X37405100Y-36612170D02*
X37357481Y-36516932D01*
X37357481Y-36516932D02*
X37309862Y-36326456D01*
X37309862Y-36326456D02*
X37309862Y-36183599D01*
X37309862Y-36183599D02*
X37357481Y-35993123D01*
X37357481Y-35993123D02*
X37405100Y-35897885D01*
X37405100Y-35897885D02*
X37500338Y-35802647D01*
X37500338Y-35802647D02*
X37643195Y-35755028D01*
X37643195Y-35755028D02*
X37738433Y-35755028D01*
X37738433Y-35755028D02*
X37881290Y-35802647D01*
X37881290Y-35802647D02*
X37928909Y-35850266D01*
D13*
X27382204Y-44043961D02*
X27286966Y-44139200D01*
X27286966Y-44139200D02*
X27001252Y-44234438D01*
X27001252Y-44234438D02*
X26810776Y-44234438D01*
X26810776Y-44234438D02*
X26525061Y-44139200D01*
X26525061Y-44139200D02*
X26334585Y-43948723D01*
X26334585Y-43948723D02*
X26239347Y-43758247D01*
X26239347Y-43758247D02*
X26144109Y-43377295D01*
X26144109Y-43377295D02*
X26144109Y-43091580D01*
X26144109Y-43091580D02*
X26239347Y-42710628D01*
X26239347Y-42710628D02*
X26334585Y-42520152D01*
X26334585Y-42520152D02*
X26525061Y-42329676D01*
X26525061Y-42329676D02*
X26810776Y-42234438D01*
X26810776Y-42234438D02*
X27001252Y-42234438D01*
X27001252Y-42234438D02*
X27286966Y-42329676D01*
X27286966Y-42329676D02*
X27382204Y-42424914D01*
D12*
X27845863Y-33479600D02*
X30131578Y-33479600D01*
X28988720Y-34622457D02*
X28988720Y-32336742D01*
X33845863Y-45479600D02*
X36131578Y-45479600D01*
X33132780Y-36869673D02*
X34132780Y-36869673D01*
X34132780Y-36869673D02*
X33132780Y-37441101D01*
X33132780Y-37441101D02*
X34132780Y-37441101D01*
X34132780Y-38107768D02*
X34132780Y-38298244D01*
X34132780Y-38298244D02*
X34085161Y-38393482D01*
X34085161Y-38393482D02*
X33989923Y-38488720D01*
X33989923Y-38488720D02*
X33799447Y-38536339D01*
X33799447Y-38536339D02*
X33466114Y-38536339D01*
X33466114Y-38536339D02*
X33275638Y-38488720D01*
X33275638Y-38488720D02*
X33180400Y-38393482D01*
X33180400Y-38393482D02*
X33132780Y-38298244D01*
X33132780Y-38298244D02*
X33132780Y-38107768D01*
X33132780Y-38107768D02*
X33180400Y-38012530D01*
X33180400Y-38012530D02*
X33275638Y-37917292D01*
X33275638Y-37917292D02*
X33466114Y-37869673D01*
X33466114Y-37869673D02*
X33799447Y-37869673D01*
X33799447Y-37869673D02*
X33989923Y-37917292D01*
X33989923Y-37917292D02*
X34085161Y-38012530D01*
X34085161Y-38012530D02*
X34132780Y-38107768D01*
D13*
X95617795Y-60956038D02*
X95713033Y-60860800D01*
X95713033Y-60860800D02*
X95998747Y-60765561D01*
X95998747Y-60765561D02*
X96189223Y-60765561D01*
X96189223Y-60765561D02*
X96474938Y-60860800D01*
X96474938Y-60860800D02*
X96665414Y-61051276D01*
X96665414Y-61051276D02*
X96760652Y-61241752D01*
X96760652Y-61241752D02*
X96855890Y-61622704D01*
X96855890Y-61622704D02*
X96855890Y-61908419D01*
X96855890Y-61908419D02*
X96760652Y-62289371D01*
X96760652Y-62289371D02*
X96665414Y-62479847D01*
X96665414Y-62479847D02*
X96474938Y-62670323D01*
X96474938Y-62670323D02*
X96189223Y-62765561D01*
X96189223Y-62765561D02*
X95998747Y-62765561D01*
X95998747Y-62765561D02*
X95713033Y-62670323D01*
X95713033Y-62670323D02*
X95617795Y-62575085D01*
D12*
X89867219Y-68130326D02*
X88867219Y-68130326D01*
X88867219Y-68130326D02*
X89867219Y-67558898D01*
X89867219Y-67558898D02*
X88867219Y-67558898D01*
X88867219Y-66892231D02*
X88867219Y-66701755D01*
X88867219Y-66701755D02*
X88914838Y-66606517D01*
X88914838Y-66606517D02*
X89010076Y-66511279D01*
X89010076Y-66511279D02*
X89200552Y-66463660D01*
X89200552Y-66463660D02*
X89533885Y-66463660D01*
X89533885Y-66463660D02*
X89724361Y-66511279D01*
X89724361Y-66511279D02*
X89819600Y-66606517D01*
X89819600Y-66606517D02*
X89867219Y-66701755D01*
X89867219Y-66701755D02*
X89867219Y-66892231D01*
X89867219Y-66892231D02*
X89819600Y-66987469D01*
X89819600Y-66987469D02*
X89724361Y-67082707D01*
X89724361Y-67082707D02*
X89533885Y-67130326D01*
X89533885Y-67130326D02*
X89200552Y-67130326D01*
X89200552Y-67130326D02*
X89010076Y-67082707D01*
X89010076Y-67082707D02*
X88914838Y-66987469D01*
X88914838Y-66987469D02*
X88867219Y-66892231D01*
X86690137Y-68244971D02*
X86690137Y-69244971D01*
X86690137Y-69244971D02*
X86118709Y-68244971D01*
X86118709Y-68244971D02*
X86118709Y-69244971D01*
X85071090Y-68340210D02*
X85118709Y-68292591D01*
X85118709Y-68292591D02*
X85261566Y-68244971D01*
X85261566Y-68244971D02*
X85356804Y-68244971D01*
X85356804Y-68244971D02*
X85499661Y-68292591D01*
X85499661Y-68292591D02*
X85594899Y-68387829D01*
X85594899Y-68387829D02*
X85642518Y-68483067D01*
X85642518Y-68483067D02*
X85690137Y-68673543D01*
X85690137Y-68673543D02*
X85690137Y-68816400D01*
X85690137Y-68816400D02*
X85642518Y-69006876D01*
X85642518Y-69006876D02*
X85594899Y-69102114D01*
X85594899Y-69102114D02*
X85499661Y-69197352D01*
X85499661Y-69197352D02*
X85356804Y-69244971D01*
X85356804Y-69244971D02*
X85261566Y-69244971D01*
X85261566Y-69244971D02*
X85118709Y-69197352D01*
X85118709Y-69197352D02*
X85071090Y-69149733D01*
X89154136Y-59520400D02*
X86868422Y-59520400D01*
X95154136Y-71520400D02*
X92868422Y-71520400D01*
X94011279Y-70377542D02*
X94011279Y-72663257D01*
D17*
%TO.C,LPC1*%
X48420000Y-26850000D02*
X49750000Y-26850000D01*
X48420000Y-28180000D02*
X48420000Y-26850000D01*
X48420000Y-29450000D02*
X48420000Y-77770000D01*
X48420000Y-29450000D02*
X51080000Y-29450000D01*
X48420000Y-77770000D02*
X51080000Y-77770000D01*
X51080000Y-29450000D02*
X51080000Y-77770000D01*
X71420000Y-26870000D02*
X72750000Y-26870000D01*
X71420000Y-28200000D02*
X71420000Y-26870000D01*
X71420000Y-29470000D02*
X71420000Y-77790000D01*
X71420000Y-29470000D02*
X74080000Y-29470000D01*
X71420000Y-77790000D02*
X74080000Y-77790000D01*
X74080000Y-29470000D02*
X74080000Y-77790000D01*
%TO.C,R7*%
X70235000Y-65772936D02*
X70235000Y-66227064D01*
X68765000Y-65772936D02*
X68765000Y-66227064D01*
%TO.C,R4*%
X77772936Y-70765000D02*
X78227064Y-70765000D01*
X77772936Y-72235000D02*
X78227064Y-72235000D01*
%TO.C,R2*%
X77772936Y-65765000D02*
X78227064Y-65765000D01*
X77772936Y-67235000D02*
X78227064Y-67235000D01*
%TO.C,U7*%
X44830000Y-82670000D02*
X44830000Y-85330000D01*
X75370000Y-82670000D02*
X44830000Y-82670000D01*
X75370000Y-82670000D02*
X75370000Y-85330000D01*
X75370000Y-85330000D02*
X44830000Y-85330000D01*
X76640000Y-82670000D02*
X77970000Y-82670000D01*
X77970000Y-82670000D02*
X77970000Y-84000000D01*
%TO.C,R8*%
X67235000Y-71272936D02*
X67235000Y-71727064D01*
X65765000Y-71272936D02*
X65765000Y-71727064D01*
%TO.C,R1*%
X77772936Y-63265000D02*
X78227064Y-63265000D01*
X77772936Y-64735000D02*
X78227064Y-64735000D01*
%TO.C,R6*%
X77772936Y-75765000D02*
X78227064Y-75765000D01*
X77772936Y-77235000D02*
X78227064Y-77235000D01*
%TO.C,R3*%
X78227064Y-68265000D02*
X77772936Y-68265000D01*
X78227064Y-69735000D02*
X77772936Y-69735000D01*
%TO.C,R5*%
X77772936Y-73265000D02*
X78227064Y-73265000D01*
X77772936Y-74735000D02*
X78227064Y-74735000D01*
%TD*%
M02*
