%TF.GenerationSoftware,KiCad,Pcbnew,8.0.0*%
%TF.CreationDate,2024-04-08T20:49:20-04:00*%
%TF.ProjectId,Final Project,46696e61-6c20-4507-926f-6a6563742e6b,rev?*%
%TF.SameCoordinates,Original*%
%TF.FileFunction,Legend,Bot*%
%TF.FilePolarity,Positive*%
%FSLAX46Y46*%
G04 Gerber Fmt 4.6, Leading zero omitted, Abs format (unit mm)*
G04 Created by KiCad (PCBNEW 8.0.0) date 2024-04-08 20:49:20*
%MOMM*%
%LPD*%
G01*
G04 APERTURE LIST*
%ADD10C,0.500000*%
G04 APERTURE END LIST*
D10*
X58947193Y-41328947D02*
X60947193Y-41328947D01*
X57804336Y-40614661D02*
X59947193Y-39900375D01*
X59947193Y-39900375D02*
X59947193Y-41757518D01*
X60947193Y-44471804D02*
X60947193Y-42757518D01*
X60947193Y-43614661D02*
X57947193Y-43614661D01*
X57947193Y-43614661D02*
X58375764Y-43328947D01*
X58375764Y-43328947D02*
X58661478Y-43043232D01*
X58661478Y-43043232D02*
X58804336Y-42757518D01*
X59232907Y-46186090D02*
X59090050Y-45900375D01*
X59090050Y-45900375D02*
X58947193Y-45757518D01*
X58947193Y-45757518D02*
X58661478Y-45614661D01*
X58661478Y-45614661D02*
X58518621Y-45614661D01*
X58518621Y-45614661D02*
X58232907Y-45757518D01*
X58232907Y-45757518D02*
X58090050Y-45900375D01*
X58090050Y-45900375D02*
X57947193Y-46186090D01*
X57947193Y-46186090D02*
X57947193Y-46757518D01*
X57947193Y-46757518D02*
X58090050Y-47043233D01*
X58090050Y-47043233D02*
X58232907Y-47186090D01*
X58232907Y-47186090D02*
X58518621Y-47328947D01*
X58518621Y-47328947D02*
X58661478Y-47328947D01*
X58661478Y-47328947D02*
X58947193Y-47186090D01*
X58947193Y-47186090D02*
X59090050Y-47043233D01*
X59090050Y-47043233D02*
X59232907Y-46757518D01*
X59232907Y-46757518D02*
X59232907Y-46186090D01*
X59232907Y-46186090D02*
X59375764Y-45900375D01*
X59375764Y-45900375D02*
X59518621Y-45757518D01*
X59518621Y-45757518D02*
X59804336Y-45614661D01*
X59804336Y-45614661D02*
X60375764Y-45614661D01*
X60375764Y-45614661D02*
X60661478Y-45757518D01*
X60661478Y-45757518D02*
X60804336Y-45900375D01*
X60804336Y-45900375D02*
X60947193Y-46186090D01*
X60947193Y-46186090D02*
X60947193Y-46757518D01*
X60947193Y-46757518D02*
X60804336Y-47043233D01*
X60804336Y-47043233D02*
X60661478Y-47186090D01*
X60661478Y-47186090D02*
X60375764Y-47328947D01*
X60375764Y-47328947D02*
X59804336Y-47328947D01*
X59804336Y-47328947D02*
X59518621Y-47186090D01*
X59518621Y-47186090D02*
X59375764Y-47043233D01*
X59375764Y-47043233D02*
X59232907Y-46757518D01*
X57947193Y-49186090D02*
X57947193Y-49471804D01*
X57947193Y-49471804D02*
X58090050Y-49757518D01*
X58090050Y-49757518D02*
X58232907Y-49900376D01*
X58232907Y-49900376D02*
X58518621Y-50043233D01*
X58518621Y-50043233D02*
X59090050Y-50186090D01*
X59090050Y-50186090D02*
X59804336Y-50186090D01*
X59804336Y-50186090D02*
X60375764Y-50043233D01*
X60375764Y-50043233D02*
X60661478Y-49900376D01*
X60661478Y-49900376D02*
X60804336Y-49757518D01*
X60804336Y-49757518D02*
X60947193Y-49471804D01*
X60947193Y-49471804D02*
X60947193Y-49186090D01*
X60947193Y-49186090D02*
X60804336Y-48900376D01*
X60804336Y-48900376D02*
X60661478Y-48757518D01*
X60661478Y-48757518D02*
X60375764Y-48614661D01*
X60375764Y-48614661D02*
X59804336Y-48471804D01*
X59804336Y-48471804D02*
X59090050Y-48471804D01*
X59090050Y-48471804D02*
X58518621Y-48614661D01*
X58518621Y-48614661D02*
X58232907Y-48757518D01*
X58232907Y-48757518D02*
X58090050Y-48900376D01*
X58090050Y-48900376D02*
X57947193Y-49186090D01*
X59375764Y-54757518D02*
X59375764Y-53757518D01*
X60947193Y-53757518D02*
X57947193Y-53757518D01*
X57947193Y-53757518D02*
X57947193Y-55186090D01*
X60947193Y-56328947D02*
X58947193Y-56328947D01*
X57947193Y-56328947D02*
X58090050Y-56186090D01*
X58090050Y-56186090D02*
X58232907Y-56328947D01*
X58232907Y-56328947D02*
X58090050Y-56471804D01*
X58090050Y-56471804D02*
X57947193Y-56328947D01*
X57947193Y-56328947D02*
X58232907Y-56328947D01*
X58947193Y-57757518D02*
X60947193Y-57757518D01*
X59232907Y-57757518D02*
X59090050Y-57900375D01*
X59090050Y-57900375D02*
X58947193Y-58186090D01*
X58947193Y-58186090D02*
X58947193Y-58614661D01*
X58947193Y-58614661D02*
X59090050Y-58900375D01*
X59090050Y-58900375D02*
X59375764Y-59043233D01*
X59375764Y-59043233D02*
X60947193Y-59043233D01*
X60947193Y-61757519D02*
X59375764Y-61757519D01*
X59375764Y-61757519D02*
X59090050Y-61614661D01*
X59090050Y-61614661D02*
X58947193Y-61328947D01*
X58947193Y-61328947D02*
X58947193Y-60757519D01*
X58947193Y-60757519D02*
X59090050Y-60471804D01*
X60804336Y-61757519D02*
X60947193Y-61471804D01*
X60947193Y-61471804D02*
X60947193Y-60757519D01*
X60947193Y-60757519D02*
X60804336Y-60471804D01*
X60804336Y-60471804D02*
X60518621Y-60328947D01*
X60518621Y-60328947D02*
X60232907Y-60328947D01*
X60232907Y-60328947D02*
X59947193Y-60471804D01*
X59947193Y-60471804D02*
X59804336Y-60757519D01*
X59804336Y-60757519D02*
X59804336Y-61471804D01*
X59804336Y-61471804D02*
X59661478Y-61757519D01*
X60947193Y-63614662D02*
X60804336Y-63328947D01*
X60804336Y-63328947D02*
X60518621Y-63186090D01*
X60518621Y-63186090D02*
X57947193Y-63186090D01*
X60947193Y-67043233D02*
X57947193Y-67043233D01*
X57947193Y-67043233D02*
X57947193Y-68186090D01*
X57947193Y-68186090D02*
X58090050Y-68471805D01*
X58090050Y-68471805D02*
X58232907Y-68614662D01*
X58232907Y-68614662D02*
X58518621Y-68757519D01*
X58518621Y-68757519D02*
X58947193Y-68757519D01*
X58947193Y-68757519D02*
X59232907Y-68614662D01*
X59232907Y-68614662D02*
X59375764Y-68471805D01*
X59375764Y-68471805D02*
X59518621Y-68186090D01*
X59518621Y-68186090D02*
X59518621Y-67043233D01*
X60947193Y-70043233D02*
X58947193Y-70043233D01*
X59518621Y-70043233D02*
X59232907Y-70186090D01*
X59232907Y-70186090D02*
X59090050Y-70328948D01*
X59090050Y-70328948D02*
X58947193Y-70614662D01*
X58947193Y-70614662D02*
X58947193Y-70900376D01*
X60947193Y-72328948D02*
X60804336Y-72043233D01*
X60804336Y-72043233D02*
X60661478Y-71900376D01*
X60661478Y-71900376D02*
X60375764Y-71757519D01*
X60375764Y-71757519D02*
X59518621Y-71757519D01*
X59518621Y-71757519D02*
X59232907Y-71900376D01*
X59232907Y-71900376D02*
X59090050Y-72043233D01*
X59090050Y-72043233D02*
X58947193Y-72328948D01*
X58947193Y-72328948D02*
X58947193Y-72757519D01*
X58947193Y-72757519D02*
X59090050Y-73043233D01*
X59090050Y-73043233D02*
X59232907Y-73186091D01*
X59232907Y-73186091D02*
X59518621Y-73328948D01*
X59518621Y-73328948D02*
X60375764Y-73328948D01*
X60375764Y-73328948D02*
X60661478Y-73186091D01*
X60661478Y-73186091D02*
X60804336Y-73043233D01*
X60804336Y-73043233D02*
X60947193Y-72757519D01*
X60947193Y-72757519D02*
X60947193Y-72328948D01*
X58947193Y-74614662D02*
X61518621Y-74614662D01*
X61518621Y-74614662D02*
X61804336Y-74471805D01*
X61804336Y-74471805D02*
X61947193Y-74186091D01*
X61947193Y-74186091D02*
X61947193Y-74043234D01*
X57947193Y-74614662D02*
X58090050Y-74471805D01*
X58090050Y-74471805D02*
X58232907Y-74614662D01*
X58232907Y-74614662D02*
X58090050Y-74757519D01*
X58090050Y-74757519D02*
X57947193Y-74614662D01*
X57947193Y-74614662D02*
X58232907Y-74614662D01*
X60804336Y-77186090D02*
X60947193Y-76900376D01*
X60947193Y-76900376D02*
X60947193Y-76328948D01*
X60947193Y-76328948D02*
X60804336Y-76043233D01*
X60804336Y-76043233D02*
X60518621Y-75900376D01*
X60518621Y-75900376D02*
X59375764Y-75900376D01*
X59375764Y-75900376D02*
X59090050Y-76043233D01*
X59090050Y-76043233D02*
X58947193Y-76328948D01*
X58947193Y-76328948D02*
X58947193Y-76900376D01*
X58947193Y-76900376D02*
X59090050Y-77186090D01*
X59090050Y-77186090D02*
X59375764Y-77328948D01*
X59375764Y-77328948D02*
X59661478Y-77328948D01*
X59661478Y-77328948D02*
X59947193Y-75900376D01*
X60804336Y-79900377D02*
X60947193Y-79614662D01*
X60947193Y-79614662D02*
X60947193Y-79043234D01*
X60947193Y-79043234D02*
X60804336Y-78757519D01*
X60804336Y-78757519D02*
X60661478Y-78614662D01*
X60661478Y-78614662D02*
X60375764Y-78471805D01*
X60375764Y-78471805D02*
X59518621Y-78471805D01*
X59518621Y-78471805D02*
X59232907Y-78614662D01*
X59232907Y-78614662D02*
X59090050Y-78757519D01*
X59090050Y-78757519D02*
X58947193Y-79043234D01*
X58947193Y-79043234D02*
X58947193Y-79614662D01*
X58947193Y-79614662D02*
X59090050Y-79900377D01*
X58947193Y-80757520D02*
X58947193Y-81900377D01*
X57947193Y-81186091D02*
X60518621Y-81186091D01*
X60518621Y-81186091D02*
X60804336Y-81328948D01*
X60804336Y-81328948D02*
X60947193Y-81614663D01*
X60947193Y-81614663D02*
X60947193Y-81900377D01*
X65777025Y-40043232D02*
X62777025Y-40043232D01*
X65777025Y-41757518D02*
X64062739Y-40471804D01*
X62777025Y-41757518D02*
X64491310Y-40043232D01*
X65634168Y-44186089D02*
X65777025Y-43900375D01*
X65777025Y-43900375D02*
X65777025Y-43328947D01*
X65777025Y-43328947D02*
X65634168Y-43043232D01*
X65634168Y-43043232D02*
X65348453Y-42900375D01*
X65348453Y-42900375D02*
X64205596Y-42900375D01*
X64205596Y-42900375D02*
X63919882Y-43043232D01*
X63919882Y-43043232D02*
X63777025Y-43328947D01*
X63777025Y-43328947D02*
X63777025Y-43900375D01*
X63777025Y-43900375D02*
X63919882Y-44186089D01*
X63919882Y-44186089D02*
X64205596Y-44328947D01*
X64205596Y-44328947D02*
X64491310Y-44328947D01*
X64491310Y-44328947D02*
X64777025Y-42900375D01*
X65634168Y-46757518D02*
X65777025Y-46471804D01*
X65777025Y-46471804D02*
X65777025Y-45900376D01*
X65777025Y-45900376D02*
X65634168Y-45614661D01*
X65634168Y-45614661D02*
X65348453Y-45471804D01*
X65348453Y-45471804D02*
X64205596Y-45471804D01*
X64205596Y-45471804D02*
X63919882Y-45614661D01*
X63919882Y-45614661D02*
X63777025Y-45900376D01*
X63777025Y-45900376D02*
X63777025Y-46471804D01*
X63777025Y-46471804D02*
X63919882Y-46757518D01*
X63919882Y-46757518D02*
X64205596Y-46900376D01*
X64205596Y-46900376D02*
X64491310Y-46900376D01*
X64491310Y-46900376D02*
X64777025Y-45471804D01*
X63777025Y-48186090D02*
X65777025Y-48186090D01*
X64062739Y-48186090D02*
X63919882Y-48328947D01*
X63919882Y-48328947D02*
X63777025Y-48614662D01*
X63777025Y-48614662D02*
X63777025Y-49043233D01*
X63777025Y-49043233D02*
X63919882Y-49328947D01*
X63919882Y-49328947D02*
X64205596Y-49471805D01*
X64205596Y-49471805D02*
X65777025Y-49471805D01*
X65777025Y-52186091D02*
X64205596Y-52186091D01*
X64205596Y-52186091D02*
X63919882Y-52043233D01*
X63919882Y-52043233D02*
X63777025Y-51757519D01*
X63777025Y-51757519D02*
X63777025Y-51186091D01*
X63777025Y-51186091D02*
X63919882Y-50900376D01*
X65634168Y-52186091D02*
X65777025Y-51900376D01*
X65777025Y-51900376D02*
X65777025Y-51186091D01*
X65777025Y-51186091D02*
X65634168Y-50900376D01*
X65634168Y-50900376D02*
X65348453Y-50757519D01*
X65348453Y-50757519D02*
X65062739Y-50757519D01*
X65062739Y-50757519D02*
X64777025Y-50900376D01*
X64777025Y-50900376D02*
X64634168Y-51186091D01*
X64634168Y-51186091D02*
X64634168Y-51900376D01*
X64634168Y-51900376D02*
X64491310Y-52186091D01*
X63777025Y-53614662D02*
X65777025Y-53614662D01*
X64062739Y-53614662D02*
X63919882Y-53757519D01*
X63919882Y-53757519D02*
X63777025Y-54043234D01*
X63777025Y-54043234D02*
X63777025Y-54471805D01*
X63777025Y-54471805D02*
X63919882Y-54757519D01*
X63919882Y-54757519D02*
X64205596Y-54900377D01*
X64205596Y-54900377D02*
X65777025Y-54900377D01*
X65777025Y-58614662D02*
X62777025Y-58614662D01*
X62777025Y-58614662D02*
X64919882Y-59614662D01*
X64919882Y-59614662D02*
X62777025Y-60614662D01*
X62777025Y-60614662D02*
X65777025Y-60614662D01*
X65777025Y-63328948D02*
X64205596Y-63328948D01*
X64205596Y-63328948D02*
X63919882Y-63186090D01*
X63919882Y-63186090D02*
X63777025Y-62900376D01*
X63777025Y-62900376D02*
X63777025Y-62328948D01*
X63777025Y-62328948D02*
X63919882Y-62043233D01*
X65634168Y-63328948D02*
X65777025Y-63043233D01*
X65777025Y-63043233D02*
X65777025Y-62328948D01*
X65777025Y-62328948D02*
X65634168Y-62043233D01*
X65634168Y-62043233D02*
X65348453Y-61900376D01*
X65348453Y-61900376D02*
X65062739Y-61900376D01*
X65062739Y-61900376D02*
X64777025Y-62043233D01*
X64777025Y-62043233D02*
X64634168Y-62328948D01*
X64634168Y-62328948D02*
X64634168Y-63043233D01*
X64634168Y-63043233D02*
X64491310Y-63328948D01*
X63777025Y-64328948D02*
X63777025Y-65471805D01*
X62777025Y-64757519D02*
X65348453Y-64757519D01*
X65348453Y-64757519D02*
X65634168Y-64900376D01*
X65634168Y-64900376D02*
X65777025Y-65186091D01*
X65777025Y-65186091D02*
X65777025Y-65471805D01*
X65634168Y-67614662D02*
X65777025Y-67328948D01*
X65777025Y-67328948D02*
X65777025Y-66757520D01*
X65777025Y-66757520D02*
X65634168Y-66471805D01*
X65634168Y-66471805D02*
X65348453Y-66328948D01*
X65348453Y-66328948D02*
X64205596Y-66328948D01*
X64205596Y-66328948D02*
X63919882Y-66471805D01*
X63919882Y-66471805D02*
X63777025Y-66757520D01*
X63777025Y-66757520D02*
X63777025Y-67328948D01*
X63777025Y-67328948D02*
X63919882Y-67614662D01*
X63919882Y-67614662D02*
X64205596Y-67757520D01*
X64205596Y-67757520D02*
X64491310Y-67757520D01*
X64491310Y-67757520D02*
X64777025Y-66328948D01*
X65777025Y-69471806D02*
X65634168Y-69186091D01*
X65634168Y-69186091D02*
X65348453Y-69043234D01*
X65348453Y-69043234D02*
X62777025Y-69043234D01*
X65634168Y-70471806D02*
X65777025Y-70757520D01*
X65777025Y-70757520D02*
X65777025Y-71328949D01*
X65777025Y-71328949D02*
X65634168Y-71614663D01*
X65634168Y-71614663D02*
X65348453Y-71757520D01*
X65348453Y-71757520D02*
X65205596Y-71757520D01*
X65205596Y-71757520D02*
X64919882Y-71614663D01*
X64919882Y-71614663D02*
X64777025Y-71328949D01*
X64777025Y-71328949D02*
X64777025Y-70900378D01*
X64777025Y-70900378D02*
X64634168Y-70614663D01*
X64634168Y-70614663D02*
X64348453Y-70471806D01*
X64348453Y-70471806D02*
X64205596Y-70471806D01*
X64205596Y-70471806D02*
X63919882Y-70614663D01*
X63919882Y-70614663D02*
X63777025Y-70900378D01*
X63777025Y-70900378D02*
X63777025Y-71328949D01*
X63777025Y-71328949D02*
X63919882Y-71614663D01*
X65777025Y-73043234D02*
X62777025Y-73043234D01*
X64634168Y-73328949D02*
X65777025Y-74186091D01*
X63777025Y-74186091D02*
X64919882Y-73043234D01*
X65777025Y-75471805D02*
X63777025Y-75471805D01*
X62777025Y-75471805D02*
X62919882Y-75328948D01*
X62919882Y-75328948D02*
X63062739Y-75471805D01*
X63062739Y-75471805D02*
X62919882Y-75614662D01*
X62919882Y-75614662D02*
X62777025Y-75471805D01*
X62777025Y-75471805D02*
X63062739Y-75471805D01*
X67606857Y-39757518D02*
X70606857Y-40471804D01*
X70606857Y-40471804D02*
X68464000Y-41043232D01*
X68464000Y-41043232D02*
X70606857Y-41614661D01*
X70606857Y-41614661D02*
X67606857Y-42328947D01*
X70606857Y-43471803D02*
X68606857Y-43471803D01*
X67606857Y-43471803D02*
X67749714Y-43328946D01*
X67749714Y-43328946D02*
X67892571Y-43471803D01*
X67892571Y-43471803D02*
X67749714Y-43614660D01*
X67749714Y-43614660D02*
X67606857Y-43471803D01*
X67606857Y-43471803D02*
X67892571Y-43471803D01*
X70606857Y-45328946D02*
X70464000Y-45043231D01*
X70464000Y-45043231D02*
X70178285Y-44900374D01*
X70178285Y-44900374D02*
X67606857Y-44900374D01*
X70606857Y-46900375D02*
X70464000Y-46614660D01*
X70464000Y-46614660D02*
X70178285Y-46471803D01*
X70178285Y-46471803D02*
X67606857Y-46471803D01*
X70606857Y-48043232D02*
X68606857Y-48043232D01*
X67606857Y-48043232D02*
X67749714Y-47900375D01*
X67749714Y-47900375D02*
X67892571Y-48043232D01*
X67892571Y-48043232D02*
X67749714Y-48186089D01*
X67749714Y-48186089D02*
X67606857Y-48043232D01*
X67606857Y-48043232D02*
X67892571Y-48043232D01*
X70606857Y-50757518D02*
X69035428Y-50757518D01*
X69035428Y-50757518D02*
X68749714Y-50614660D01*
X68749714Y-50614660D02*
X68606857Y-50328946D01*
X68606857Y-50328946D02*
X68606857Y-49757518D01*
X68606857Y-49757518D02*
X68749714Y-49471803D01*
X70464000Y-50757518D02*
X70606857Y-50471803D01*
X70606857Y-50471803D02*
X70606857Y-49757518D01*
X70606857Y-49757518D02*
X70464000Y-49471803D01*
X70464000Y-49471803D02*
X70178285Y-49328946D01*
X70178285Y-49328946D02*
X69892571Y-49328946D01*
X69892571Y-49328946D02*
X69606857Y-49471803D01*
X69606857Y-49471803D02*
X69464000Y-49757518D01*
X69464000Y-49757518D02*
X69464000Y-50471803D01*
X69464000Y-50471803D02*
X69321142Y-50757518D01*
X70606857Y-52186089D02*
X68606857Y-52186089D01*
X68892571Y-52186089D02*
X68749714Y-52328946D01*
X68749714Y-52328946D02*
X68606857Y-52614661D01*
X68606857Y-52614661D02*
X68606857Y-53043232D01*
X68606857Y-53043232D02*
X68749714Y-53328946D01*
X68749714Y-53328946D02*
X69035428Y-53471804D01*
X69035428Y-53471804D02*
X70606857Y-53471804D01*
X69035428Y-53471804D02*
X68749714Y-53614661D01*
X68749714Y-53614661D02*
X68606857Y-53900375D01*
X68606857Y-53900375D02*
X68606857Y-54328946D01*
X68606857Y-54328946D02*
X68749714Y-54614661D01*
X68749714Y-54614661D02*
X69035428Y-54757518D01*
X69035428Y-54757518D02*
X70606857Y-54757518D01*
X67606857Y-58043232D02*
X70606857Y-59043232D01*
X70606857Y-59043232D02*
X67606857Y-60043232D01*
X70606857Y-62328947D02*
X69035428Y-62328947D01*
X69035428Y-62328947D02*
X68749714Y-62186089D01*
X68749714Y-62186089D02*
X68606857Y-61900375D01*
X68606857Y-61900375D02*
X68606857Y-61328947D01*
X68606857Y-61328947D02*
X68749714Y-61043232D01*
X70464000Y-62328947D02*
X70606857Y-62043232D01*
X70606857Y-62043232D02*
X70606857Y-61328947D01*
X70606857Y-61328947D02*
X70464000Y-61043232D01*
X70464000Y-61043232D02*
X70178285Y-60900375D01*
X70178285Y-60900375D02*
X69892571Y-60900375D01*
X69892571Y-60900375D02*
X69606857Y-61043232D01*
X69606857Y-61043232D02*
X69464000Y-61328947D01*
X69464000Y-61328947D02*
X69464000Y-62043232D01*
X69464000Y-62043232D02*
X69321142Y-62328947D01*
X68606857Y-65043233D02*
X70606857Y-65043233D01*
X68606857Y-63757518D02*
X70178285Y-63757518D01*
X70178285Y-63757518D02*
X70464000Y-63900375D01*
X70464000Y-63900375D02*
X70606857Y-64186090D01*
X70606857Y-64186090D02*
X70606857Y-64614661D01*
X70606857Y-64614661D02*
X70464000Y-64900375D01*
X70464000Y-64900375D02*
X70321142Y-65043233D01*
X68606857Y-67757519D02*
X71035428Y-67757519D01*
X71035428Y-67757519D02*
X71321142Y-67614661D01*
X71321142Y-67614661D02*
X71464000Y-67471804D01*
X71464000Y-67471804D02*
X71606857Y-67186090D01*
X71606857Y-67186090D02*
X71606857Y-66757519D01*
X71606857Y-66757519D02*
X71464000Y-66471804D01*
X70464000Y-67757519D02*
X70606857Y-67471804D01*
X70606857Y-67471804D02*
X70606857Y-66900376D01*
X70606857Y-66900376D02*
X70464000Y-66614661D01*
X70464000Y-66614661D02*
X70321142Y-66471804D01*
X70321142Y-66471804D02*
X70035428Y-66328947D01*
X70035428Y-66328947D02*
X69178285Y-66328947D01*
X69178285Y-66328947D02*
X68892571Y-66471804D01*
X68892571Y-66471804D02*
X68749714Y-66614661D01*
X68749714Y-66614661D02*
X68606857Y-66900376D01*
X68606857Y-66900376D02*
X68606857Y-67471804D01*
X68606857Y-67471804D02*
X68749714Y-67757519D01*
X70606857Y-69186090D02*
X67606857Y-69186090D01*
X70606857Y-70471805D02*
X69035428Y-70471805D01*
X69035428Y-70471805D02*
X68749714Y-70328947D01*
X68749714Y-70328947D02*
X68606857Y-70043233D01*
X68606857Y-70043233D02*
X68606857Y-69614662D01*
X68606857Y-69614662D02*
X68749714Y-69328947D01*
X68749714Y-69328947D02*
X68892571Y-69186090D01*
X68606857Y-71471805D02*
X68606857Y-72614662D01*
X67606857Y-71900376D02*
X70178285Y-71900376D01*
X70178285Y-71900376D02*
X70464000Y-72043233D01*
X70464000Y-72043233D02*
X70606857Y-72328948D01*
X70606857Y-72328948D02*
X70606857Y-72614662D01*
M02*
